<?xml version="1.0" encoding="utf-8" standalone="no"?>
<!DOCTYPE svg PUBLIC "-//W3C//DTD SVG 1.1//EN"
  "http://www.w3.org/Graphics/SVG/1.1/DTD/svg11.dtd">
<svg xmlns:xlink="http://www.w3.org/1999/xlink" width="460.8pt" height="345.6pt" viewBox="0 0 460.8 345.6" xmlns="http://www.w3.org/2000/svg" version="1.1">
 <metadata>
  <rdf:RDF xmlns:dc="http://purl.org/dc/elements/1.1/" xmlns:cc="http://creativecommons.org/ns#" xmlns:rdf="http://www.w3.org/1999/02/22-rdf-syntax-ns#">
   <cc:Work>
    <dc:type rdf:resource="http://purl.org/dc/dcmitype/StillImage"/>
    <dc:date>2024-11-09T12:41:52.148339</dc:date>
    <dc:format>image/svg+xml</dc:format>
    <dc:creator>
     <cc:Agent>
      <dc:title>Matplotlib v3.6.3, https://matplotlib.org/</dc:title>
     </cc:Agent>
    </dc:creator>
   </cc:Work>
  </rdf:RDF>
 </metadata>
 <defs>
  <style type="text/css">*{stroke-linejoin: round; stroke-linecap: butt}</style>
 </defs>
 <g id="figure_1">
  <g id="patch_1">
   <path d="M 0 345.6 
L 460.8 345.6 
L 460.8 0 
L 0 0 
z
" style="fill: #ffffff"/>
  </g>
  <g id="axes_1">
   <g id="patch_2">
    <path d="M 57.6 307.584 
L 414.72 307.584 
L 414.72 41.472 
L 57.6 41.472 
z
" style="fill: #ffffff"/>
   </g>
   <g id="matplotlib.axis_1">
    <g id="xtick_1">
     <g id="line2d_1">
      <path d="M 70.553388 307.584 
L 70.553388 41.472 
" clip-path="url(#p28acf0200e)" style="fill: none; stroke: #b0b0b0; stroke-width: 0.8; stroke-linecap: square"/>
     </g>
     <g id="line2d_2">
      <defs>
       <path id="mca03665949" d="M 0 0 
L 0 3.5 
" style="stroke: #000000; stroke-width: 0.8"/>
      </defs>
      <g>
       <use xlink:href="#mca03665949" x="70.553388" y="307.584" style="stroke: #000000; stroke-width: 0.8"/>
      </g>
     </g>
     <g id="text_1">
      <!-- 0 -->
      <g transform="translate(67.372138 322.182437) scale(0.1 -0.1)">
       <defs>
        <path id="DejaVuSans-30" d="M 2034 4250 
Q 1547 4250 1301 3770 
Q 1056 3291 1056 2328 
Q 1056 1369 1301 889 
Q 1547 409 2034 409 
Q 2525 409 2770 889 
Q 3016 1369 3016 2328 
Q 3016 3291 2770 3770 
Q 2525 4250 2034 4250 
z
M 2034 4750 
Q 2819 4750 3233 4129 
Q 3647 3509 3647 2328 
Q 3647 1150 3233 529 
Q 2819 -91 2034 -91 
Q 1250 -91 836 529 
Q 422 1150 422 2328 
Q 422 3509 836 4129 
Q 1250 4750 2034 4750 
z
" transform="scale(0.015625)"/>
       </defs>
       <use xlink:href="#DejaVuSans-30"/>
      </g>
     </g>
    </g>
    <g id="xtick_2">
     <g id="line2d_3">
      <path d="M 136.140165 307.584 
L 136.140165 41.472 
" clip-path="url(#p28acf0200e)" style="fill: none; stroke: #b0b0b0; stroke-width: 0.8; stroke-linecap: square"/>
     </g>
     <g id="line2d_4">
      <g>
       <use xlink:href="#mca03665949" x="136.140165" y="307.584" style="stroke: #000000; stroke-width: 0.8"/>
      </g>
     </g>
     <g id="text_2">
      <!-- 20 -->
      <g transform="translate(129.777665 322.182437) scale(0.1 -0.1)">
       <defs>
        <path id="DejaVuSans-32" d="M 1228 531 
L 3431 531 
L 3431 0 
L 469 0 
L 469 531 
Q 828 903 1448 1529 
Q 2069 2156 2228 2338 
Q 2531 2678 2651 2914 
Q 2772 3150 2772 3378 
Q 2772 3750 2511 3984 
Q 2250 4219 1831 4219 
Q 1534 4219 1204 4116 
Q 875 4013 500 3803 
L 500 4441 
Q 881 4594 1212 4672 
Q 1544 4750 1819 4750 
Q 2544 4750 2975 4387 
Q 3406 4025 3406 3419 
Q 3406 3131 3298 2873 
Q 3191 2616 2906 2266 
Q 2828 2175 2409 1742 
Q 1991 1309 1228 531 
z
" transform="scale(0.015625)"/>
       </defs>
       <use xlink:href="#DejaVuSans-32"/>
       <use xlink:href="#DejaVuSans-30" x="63.623047"/>
      </g>
     </g>
    </g>
    <g id="xtick_3">
     <g id="line2d_5">
      <path d="M 201.726942 307.584 
L 201.726942 41.472 
" clip-path="url(#p28acf0200e)" style="fill: none; stroke: #b0b0b0; stroke-width: 0.8; stroke-linecap: square"/>
     </g>
     <g id="line2d_6">
      <g>
       <use xlink:href="#mca03665949" x="201.726942" y="307.584" style="stroke: #000000; stroke-width: 0.8"/>
      </g>
     </g>
     <g id="text_3">
      <!-- 40 -->
      <g transform="translate(195.364442 322.182437) scale(0.1 -0.1)">
       <defs>
        <path id="DejaVuSans-34" d="M 2419 4116 
L 825 1625 
L 2419 1625 
L 2419 4116 
z
M 2253 4666 
L 3047 4666 
L 3047 1625 
L 3713 1625 
L 3713 1100 
L 3047 1100 
L 3047 0 
L 2419 0 
L 2419 1100 
L 313 1100 
L 313 1709 
L 2253 4666 
z
" transform="scale(0.015625)"/>
       </defs>
       <use xlink:href="#DejaVuSans-34"/>
       <use xlink:href="#DejaVuSans-30" x="63.623047"/>
      </g>
     </g>
    </g>
    <g id="xtick_4">
     <g id="line2d_7">
      <path d="M 267.313719 307.584 
L 267.313719 41.472 
" clip-path="url(#p28acf0200e)" style="fill: none; stroke: #b0b0b0; stroke-width: 0.8; stroke-linecap: square"/>
     </g>
     <g id="line2d_8">
      <g>
       <use xlink:href="#mca03665949" x="267.313719" y="307.584" style="stroke: #000000; stroke-width: 0.8"/>
      </g>
     </g>
     <g id="text_4">
      <!-- 60 -->
      <g transform="translate(260.951219 322.182437) scale(0.1 -0.1)">
       <defs>
        <path id="DejaVuSans-36" d="M 2113 2584 
Q 1688 2584 1439 2293 
Q 1191 2003 1191 1497 
Q 1191 994 1439 701 
Q 1688 409 2113 409 
Q 2538 409 2786 701 
Q 3034 994 3034 1497 
Q 3034 2003 2786 2293 
Q 2538 2584 2113 2584 
z
M 3366 4563 
L 3366 3988 
Q 3128 4100 2886 4159 
Q 2644 4219 2406 4219 
Q 1781 4219 1451 3797 
Q 1122 3375 1075 2522 
Q 1259 2794 1537 2939 
Q 1816 3084 2150 3084 
Q 2853 3084 3261 2657 
Q 3669 2231 3669 1497 
Q 3669 778 3244 343 
Q 2819 -91 2113 -91 
Q 1303 -91 875 529 
Q 447 1150 447 2328 
Q 447 3434 972 4092 
Q 1497 4750 2381 4750 
Q 2619 4750 2861 4703 
Q 3103 4656 3366 4563 
z
" transform="scale(0.015625)"/>
       </defs>
       <use xlink:href="#DejaVuSans-36"/>
       <use xlink:href="#DejaVuSans-30" x="63.623047"/>
      </g>
     </g>
    </g>
    <g id="xtick_5">
     <g id="line2d_9">
      <path d="M 332.900496 307.584 
L 332.900496 41.472 
" clip-path="url(#p28acf0200e)" style="fill: none; stroke: #b0b0b0; stroke-width: 0.8; stroke-linecap: square"/>
     </g>
     <g id="line2d_10">
      <g>
       <use xlink:href="#mca03665949" x="332.900496" y="307.584" style="stroke: #000000; stroke-width: 0.8"/>
      </g>
     </g>
     <g id="text_5">
      <!-- 80 -->
      <g transform="translate(326.537996 322.182437) scale(0.1 -0.1)">
       <defs>
        <path id="DejaVuSans-38" d="M 2034 2216 
Q 1584 2216 1326 1975 
Q 1069 1734 1069 1313 
Q 1069 891 1326 650 
Q 1584 409 2034 409 
Q 2484 409 2743 651 
Q 3003 894 3003 1313 
Q 3003 1734 2745 1975 
Q 2488 2216 2034 2216 
z
M 1403 2484 
Q 997 2584 770 2862 
Q 544 3141 544 3541 
Q 544 4100 942 4425 
Q 1341 4750 2034 4750 
Q 2731 4750 3128 4425 
Q 3525 4100 3525 3541 
Q 3525 3141 3298 2862 
Q 3072 2584 2669 2484 
Q 3125 2378 3379 2068 
Q 3634 1759 3634 1313 
Q 3634 634 3220 271 
Q 2806 -91 2034 -91 
Q 1263 -91 848 271 
Q 434 634 434 1313 
Q 434 1759 690 2068 
Q 947 2378 1403 2484 
z
M 1172 3481 
Q 1172 3119 1398 2916 
Q 1625 2713 2034 2713 
Q 2441 2713 2670 2916 
Q 2900 3119 2900 3481 
Q 2900 3844 2670 4047 
Q 2441 4250 2034 4250 
Q 1625 4250 1398 4047 
Q 1172 3844 1172 3481 
z
" transform="scale(0.015625)"/>
       </defs>
       <use xlink:href="#DejaVuSans-38"/>
       <use xlink:href="#DejaVuSans-30" x="63.623047"/>
      </g>
     </g>
    </g>
    <g id="xtick_6">
     <g id="line2d_11">
      <path d="M 398.487273 307.584 
L 398.487273 41.472 
" clip-path="url(#p28acf0200e)" style="fill: none; stroke: #b0b0b0; stroke-width: 0.8; stroke-linecap: square"/>
     </g>
     <g id="line2d_12">
      <g>
       <use xlink:href="#mca03665949" x="398.487273" y="307.584" style="stroke: #000000; stroke-width: 0.8"/>
      </g>
     </g>
     <g id="text_6">
      <!-- 100 -->
      <g transform="translate(388.943523 322.182437) scale(0.1 -0.1)">
       <defs>
        <path id="DejaVuSans-31" d="M 794 531 
L 1825 531 
L 1825 4091 
L 703 3866 
L 703 4441 
L 1819 4666 
L 2450 4666 
L 2450 531 
L 3481 531 
L 3481 0 
L 794 0 
L 794 531 
z
" transform="scale(0.015625)"/>
       </defs>
       <use xlink:href="#DejaVuSans-31"/>
       <use xlink:href="#DejaVuSans-30" x="63.623047"/>
       <use xlink:href="#DejaVuSans-30" x="127.246094"/>
      </g>
     </g>
    </g>
    <g id="text_7">
     <!-- Номер бенчмарка -->
     <g transform="translate(189.251406 336.030875) scale(0.1 -0.1)">
      <defs>
       <path id="DejaVuSans-41d" d="M 628 4666 
L 1259 4666 
L 1259 2753 
L 3553 2753 
L 3553 4666 
L 4184 4666 
L 4184 0 
L 3553 0 
L 3553 2222 
L 1259 2222 
L 1259 0 
L 628 0 
L 628 4666 
z
" transform="scale(0.015625)"/>
       <path id="DejaVuSans-43e" d="M 1959 3097 
Q 1497 3097 1228 2736 
Q 959 2375 959 1747 
Q 959 1119 1226 758 
Q 1494 397 1959 397 
Q 2419 397 2687 759 
Q 2956 1122 2956 1747 
Q 2956 2369 2687 2733 
Q 2419 3097 1959 3097 
z
M 1959 3584 
Q 2709 3584 3137 3096 
Q 3566 2609 3566 1747 
Q 3566 888 3137 398 
Q 2709 -91 1959 -91 
Q 1206 -91 779 398 
Q 353 888 353 1747 
Q 353 2609 779 3096 
Q 1206 3584 1959 3584 
z
" transform="scale(0.015625)"/>
       <path id="DejaVuSans-43c" d="M 581 3500 
L 1422 3500 
L 2416 1156 
L 3413 3500 
L 4247 3500 
L 4247 0 
L 3669 0 
L 3669 2950 
L 2703 672 
L 2128 672 
L 1159 2950 
L 1159 0 
L 581 0 
L 581 3500 
z
" transform="scale(0.015625)"/>
       <path id="DejaVuSans-435" d="M 3597 1894 
L 3597 1613 
L 953 1613 
Q 991 1019 1311 708 
Q 1631 397 2203 397 
Q 2534 397 2845 478 
Q 3156 559 3463 722 
L 3463 178 
Q 3153 47 2828 -22 
Q 2503 -91 2169 -91 
Q 1331 -91 842 396 
Q 353 884 353 1716 
Q 353 2575 817 3079 
Q 1281 3584 2069 3584 
Q 2775 3584 3186 3129 
Q 3597 2675 3597 1894 
z
M 3022 2063 
Q 3016 2534 2758 2815 
Q 2500 3097 2075 3097 
Q 1594 3097 1305 2825 
Q 1016 2553 972 2059 
L 3022 2063 
z
" transform="scale(0.015625)"/>
       <path id="DejaVuSans-440" d="M 1159 525 
L 1159 -1331 
L 581 -1331 
L 581 3500 
L 1159 3500 
L 1159 2969 
Q 1341 3281 1617 3432 
Q 1894 3584 2278 3584 
Q 2916 3584 3314 3078 
Q 3713 2572 3713 1747 
Q 3713 922 3314 415 
Q 2916 -91 2278 -91 
Q 1894 -91 1617 61 
Q 1341 213 1159 525 
z
M 3116 1747 
Q 3116 2381 2855 2742 
Q 2594 3103 2138 3103 
Q 1681 3103 1420 2742 
Q 1159 2381 1159 1747 
Q 1159 1113 1420 752 
Q 1681 391 2138 391 
Q 2594 391 2855 752 
Q 3116 1113 3116 1747 
z
" transform="scale(0.015625)"/>
       <path id="DejaVuSans-20" transform="scale(0.015625)"/>
       <path id="DejaVuSans-431" d="M 1991 3584 
Q 2741 3584 3169 3096 
Q 3597 2609 3597 1747 
Q 3597 888 3169 398 
Q 2741 -91 1991 -91 
Q 1238 -91 822 384 
Q 406 859 384 1747 
L 366 2463 
Q 350 2834 350 2963 
Q 350 3463 531 3831 
Q 816 4409 1308 4659 
Q 1800 4909 2625 4916 
Q 3006 4919 3175 4972 
L 3334 4516 
Q 3181 4453 3041 4450 
L 2259 4397 
Q 1866 4369 1628 4231 
Q 1006 3866 947 3388 
L 925 3213 
Q 1331 3584 1991 3584 
z
M 1991 3097 
Q 1528 3097 1259 2736 
Q 991 2375 991 1747 
Q 991 1119 1258 758 
Q 1525 397 1991 397 
Q 2450 397 2719 759 
Q 2988 1122 2988 1747 
Q 2988 2369 2719 2733 
Q 2450 3097 1991 3097 
z
" transform="scale(0.015625)"/>
       <path id="DejaVuSans-43d" d="M 581 3500 
L 1159 3500 
L 1159 2072 
L 3025 2072 
L 3025 3500 
L 3603 3500 
L 3603 0 
L 3025 0 
L 3025 1613 
L 1159 1613 
L 1159 0 
L 581 0 
L 581 3500 
z
" transform="scale(0.015625)"/>
       <path id="DejaVuSans-447" d="M 2625 0 
L 2625 1472 
L 1553 1472 
Q 1075 1472 756 1769 
Q 469 2038 469 2613 
L 469 3500 
L 1044 3500 
L 1044 2666 
Q 1044 2300 1206 2116 
Q 1372 1931 1697 1931 
L 2625 1931 
L 2625 3500 
L 3200 3500 
L 3200 0 
L 2625 0 
z
" transform="scale(0.015625)"/>
       <path id="DejaVuSans-430" d="M 2194 1759 
Q 1497 1759 1228 1600 
Q 959 1441 959 1056 
Q 959 750 1161 570 
Q 1363 391 1709 391 
Q 2188 391 2477 730 
Q 2766 1069 2766 1631 
L 2766 1759 
L 2194 1759 
z
M 3341 1997 
L 3341 0 
L 2766 0 
L 2766 531 
Q 2569 213 2275 61 
Q 1981 -91 1556 -91 
Q 1019 -91 701 211 
Q 384 513 384 1019 
Q 384 1609 779 1909 
Q 1175 2209 1959 2209 
L 2766 2209 
L 2766 2266 
Q 2766 2663 2505 2880 
Q 2244 3097 1772 3097 
Q 1472 3097 1187 3025 
Q 903 2953 641 2809 
L 641 3341 
Q 956 3463 1253 3523 
Q 1550 3584 1831 3584 
Q 2591 3584 2966 3190 
Q 3341 2797 3341 1997 
z
" transform="scale(0.015625)"/>
       <path id="DejaVuSans-43a" d="M 581 3500 
L 1153 3500 
L 1153 1856 
L 2775 3500 
L 3481 3500 
L 2144 2147 
L 3653 0 
L 3009 0 
L 1769 1766 
L 1153 1141 
L 1153 0 
L 581 0 
L 581 3500 
z
" transform="scale(0.015625)"/>
      </defs>
      <use xlink:href="#DejaVuSans-41d"/>
      <use xlink:href="#DejaVuSans-43e" x="75.195312"/>
      <use xlink:href="#DejaVuSans-43c" x="136.376953"/>
      <use xlink:href="#DejaVuSans-435" x="211.816406"/>
      <use xlink:href="#DejaVuSans-440" x="273.339844"/>
      <use xlink:href="#DejaVuSans-20" x="336.816406"/>
      <use xlink:href="#DejaVuSans-431" x="368.603516"/>
      <use xlink:href="#DejaVuSans-435" x="430.273438"/>
      <use xlink:href="#DejaVuSans-43d" x="491.796875"/>
      <use xlink:href="#DejaVuSans-447" x="557.177734"/>
      <use xlink:href="#DejaVuSans-43c" x="616.259766"/>
      <use xlink:href="#DejaVuSans-430" x="691.699219"/>
      <use xlink:href="#DejaVuSans-440" x="752.978516"/>
      <use xlink:href="#DejaVuSans-43a" x="816.455078"/>
      <use xlink:href="#DejaVuSans-430" x="876.855469"/>
     </g>
    </g>
   </g>
   <g id="matplotlib.axis_2">
    <g id="ytick_1">
     <g id="line2d_13">
      <path d="M 57.6 303.910792 
L 414.72 303.910792 
" clip-path="url(#p28acf0200e)" style="fill: none; stroke: #b0b0b0; stroke-width: 0.8; stroke-linecap: square"/>
     </g>
     <g id="line2d_14">
      <defs>
       <path id="m6d3017ad44" d="M 0 0 
L -3.5 0 
" style="stroke: #000000; stroke-width: 0.8"/>
      </defs>
      <g>
       <use xlink:href="#m6d3017ad44" x="57.6" y="303.910792" style="stroke: #000000; stroke-width: 0.8"/>
      </g>
     </g>
     <g id="text_8">
      <!-- 2.5 -->
      <g transform="translate(34.696875 307.710011) scale(0.1 -0.1)">
       <defs>
        <path id="DejaVuSans-2e" d="M 684 794 
L 1344 794 
L 1344 0 
L 684 0 
L 684 794 
z
" transform="scale(0.015625)"/>
        <path id="DejaVuSans-35" d="M 691 4666 
L 3169 4666 
L 3169 4134 
L 1269 4134 
L 1269 2991 
Q 1406 3038 1543 3061 
Q 1681 3084 1819 3084 
Q 2600 3084 3056 2656 
Q 3513 2228 3513 1497 
Q 3513 744 3044 326 
Q 2575 -91 1722 -91 
Q 1428 -91 1123 -41 
Q 819 9 494 109 
L 494 744 
Q 775 591 1075 516 
Q 1375 441 1709 441 
Q 2250 441 2565 725 
Q 2881 1009 2881 1497 
Q 2881 1984 2565 2268 
Q 2250 2553 1709 2553 
Q 1456 2553 1204 2497 
Q 953 2441 691 2322 
L 691 4666 
z
" transform="scale(0.015625)"/>
       </defs>
       <use xlink:href="#DejaVuSans-32"/>
       <use xlink:href="#DejaVuSans-2e" x="63.623047"/>
       <use xlink:href="#DejaVuSans-35" x="95.410156"/>
      </g>
     </g>
    </g>
    <g id="ytick_2">
     <g id="line2d_15">
      <path d="M 57.6 269.70406 
L 414.72 269.70406 
" clip-path="url(#p28acf0200e)" style="fill: none; stroke: #b0b0b0; stroke-width: 0.8; stroke-linecap: square"/>
     </g>
     <g id="line2d_16">
      <g>
       <use xlink:href="#m6d3017ad44" x="57.6" y="269.70406" style="stroke: #000000; stroke-width: 0.8"/>
      </g>
     </g>
     <g id="text_9">
      <!-- 3.0 -->
      <g transform="translate(34.696875 273.503278) scale(0.1 -0.1)">
       <defs>
        <path id="DejaVuSans-33" d="M 2597 2516 
Q 3050 2419 3304 2112 
Q 3559 1806 3559 1356 
Q 3559 666 3084 287 
Q 2609 -91 1734 -91 
Q 1441 -91 1130 -33 
Q 819 25 488 141 
L 488 750 
Q 750 597 1062 519 
Q 1375 441 1716 441 
Q 2309 441 2620 675 
Q 2931 909 2931 1356 
Q 2931 1769 2642 2001 
Q 2353 2234 1838 2234 
L 1294 2234 
L 1294 2753 
L 1863 2753 
Q 2328 2753 2575 2939 
Q 2822 3125 2822 3475 
Q 2822 3834 2567 4026 
Q 2313 4219 1838 4219 
Q 1578 4219 1281 4162 
Q 984 4106 628 3988 
L 628 4550 
Q 988 4650 1302 4700 
Q 1616 4750 1894 4750 
Q 2613 4750 3031 4423 
Q 3450 4097 3450 3541 
Q 3450 3153 3228 2886 
Q 3006 2619 2597 2516 
z
" transform="scale(0.015625)"/>
       </defs>
       <use xlink:href="#DejaVuSans-33"/>
       <use xlink:href="#DejaVuSans-2e" x="63.623047"/>
       <use xlink:href="#DejaVuSans-30" x="95.410156"/>
      </g>
     </g>
    </g>
    <g id="ytick_3">
     <g id="line2d_17">
      <path d="M 57.6 235.497327 
L 414.72 235.497327 
" clip-path="url(#p28acf0200e)" style="fill: none; stroke: #b0b0b0; stroke-width: 0.8; stroke-linecap: square"/>
     </g>
     <g id="line2d_18">
      <g>
       <use xlink:href="#m6d3017ad44" x="57.6" y="235.497327" style="stroke: #000000; stroke-width: 0.8"/>
      </g>
     </g>
     <g id="text_10">
      <!-- 3.5 -->
      <g transform="translate(34.696875 239.296546) scale(0.1 -0.1)">
       <use xlink:href="#DejaVuSans-33"/>
       <use xlink:href="#DejaVuSans-2e" x="63.623047"/>
       <use xlink:href="#DejaVuSans-35" x="95.410156"/>
      </g>
     </g>
    </g>
    <g id="ytick_4">
     <g id="line2d_19">
      <path d="M 57.6 201.290595 
L 414.72 201.290595 
" clip-path="url(#p28acf0200e)" style="fill: none; stroke: #b0b0b0; stroke-width: 0.8; stroke-linecap: square"/>
     </g>
     <g id="line2d_20">
      <g>
       <use xlink:href="#m6d3017ad44" x="57.6" y="201.290595" style="stroke: #000000; stroke-width: 0.8"/>
      </g>
     </g>
     <g id="text_11">
      <!-- 4.0 -->
      <g transform="translate(34.696875 205.089814) scale(0.1 -0.1)">
       <use xlink:href="#DejaVuSans-34"/>
       <use xlink:href="#DejaVuSans-2e" x="63.623047"/>
       <use xlink:href="#DejaVuSans-30" x="95.410156"/>
      </g>
     </g>
    </g>
    <g id="ytick_5">
     <g id="line2d_21">
      <path d="M 57.6 167.083862 
L 414.72 167.083862 
" clip-path="url(#p28acf0200e)" style="fill: none; stroke: #b0b0b0; stroke-width: 0.8; stroke-linecap: square"/>
     </g>
     <g id="line2d_22">
      <g>
       <use xlink:href="#m6d3017ad44" x="57.6" y="167.083862" style="stroke: #000000; stroke-width: 0.8"/>
      </g>
     </g>
     <g id="text_12">
      <!-- 4.5 -->
      <g transform="translate(34.696875 170.883081) scale(0.1 -0.1)">
       <use xlink:href="#DejaVuSans-34"/>
       <use xlink:href="#DejaVuSans-2e" x="63.623047"/>
       <use xlink:href="#DejaVuSans-35" x="95.410156"/>
      </g>
     </g>
    </g>
    <g id="ytick_6">
     <g id="line2d_23">
      <path d="M 57.6 132.87713 
L 414.72 132.87713 
" clip-path="url(#p28acf0200e)" style="fill: none; stroke: #b0b0b0; stroke-width: 0.8; stroke-linecap: square"/>
     </g>
     <g id="line2d_24">
      <g>
       <use xlink:href="#m6d3017ad44" x="57.6" y="132.87713" style="stroke: #000000; stroke-width: 0.8"/>
      </g>
     </g>
     <g id="text_13">
      <!-- 5.0 -->
      <g transform="translate(34.696875 136.676349) scale(0.1 -0.1)">
       <use xlink:href="#DejaVuSans-35"/>
       <use xlink:href="#DejaVuSans-2e" x="63.623047"/>
       <use xlink:href="#DejaVuSans-30" x="95.410156"/>
      </g>
     </g>
    </g>
    <g id="ytick_7">
     <g id="line2d_25">
      <path d="M 57.6 98.670398 
L 414.72 98.670398 
" clip-path="url(#p28acf0200e)" style="fill: none; stroke: #b0b0b0; stroke-width: 0.8; stroke-linecap: square"/>
     </g>
     <g id="line2d_26">
      <g>
       <use xlink:href="#m6d3017ad44" x="57.6" y="98.670398" style="stroke: #000000; stroke-width: 0.8"/>
      </g>
     </g>
     <g id="text_14">
      <!-- 5.5 -->
      <g transform="translate(34.696875 102.469616) scale(0.1 -0.1)">
       <use xlink:href="#DejaVuSans-35"/>
       <use xlink:href="#DejaVuSans-2e" x="63.623047"/>
       <use xlink:href="#DejaVuSans-35" x="95.410156"/>
      </g>
     </g>
    </g>
    <g id="ytick_8">
     <g id="line2d_27">
      <path d="M 57.6 64.463665 
L 414.72 64.463665 
" clip-path="url(#p28acf0200e)" style="fill: none; stroke: #b0b0b0; stroke-width: 0.8; stroke-linecap: square"/>
     </g>
     <g id="line2d_28">
      <g>
       <use xlink:href="#m6d3017ad44" x="57.6" y="64.463665" style="stroke: #000000; stroke-width: 0.8"/>
      </g>
     </g>
     <g id="text_15">
      <!-- 6.0 -->
      <g transform="translate(34.696875 68.262884) scale(0.1 -0.1)">
       <use xlink:href="#DejaVuSans-36"/>
       <use xlink:href="#DejaVuSans-2e" x="63.623047"/>
       <use xlink:href="#DejaVuSans-30" x="95.410156"/>
      </g>
     </g>
    </g>
    <g id="text_16">
     <!-- NsPerOp -->
     <g transform="translate(28.617187 195.949094) rotate(-90) scale(0.1 -0.1)">
      <defs>
       <path id="DejaVuSans-4e" d="M 628 4666 
L 1478 4666 
L 3547 763 
L 3547 4666 
L 4159 4666 
L 4159 0 
L 3309 0 
L 1241 3903 
L 1241 0 
L 628 0 
L 628 4666 
z
" transform="scale(0.015625)"/>
       <path id="DejaVuSans-73" d="M 2834 3397 
L 2834 2853 
Q 2591 2978 2328 3040 
Q 2066 3103 1784 3103 
Q 1356 3103 1142 2972 
Q 928 2841 928 2578 
Q 928 2378 1081 2264 
Q 1234 2150 1697 2047 
L 1894 2003 
Q 2506 1872 2764 1633 
Q 3022 1394 3022 966 
Q 3022 478 2636 193 
Q 2250 -91 1575 -91 
Q 1294 -91 989 -36 
Q 684 19 347 128 
L 347 722 
Q 666 556 975 473 
Q 1284 391 1588 391 
Q 1994 391 2212 530 
Q 2431 669 2431 922 
Q 2431 1156 2273 1281 
Q 2116 1406 1581 1522 
L 1381 1569 
Q 847 1681 609 1914 
Q 372 2147 372 2553 
Q 372 3047 722 3315 
Q 1072 3584 1716 3584 
Q 2034 3584 2315 3537 
Q 2597 3491 2834 3397 
z
" transform="scale(0.015625)"/>
       <path id="DejaVuSans-50" d="M 1259 4147 
L 1259 2394 
L 2053 2394 
Q 2494 2394 2734 2622 
Q 2975 2850 2975 3272 
Q 2975 3691 2734 3919 
Q 2494 4147 2053 4147 
L 1259 4147 
z
M 628 4666 
L 2053 4666 
Q 2838 4666 3239 4311 
Q 3641 3956 3641 3272 
Q 3641 2581 3239 2228 
Q 2838 1875 2053 1875 
L 1259 1875 
L 1259 0 
L 628 0 
L 628 4666 
z
" transform="scale(0.015625)"/>
       <path id="DejaVuSans-65" d="M 3597 1894 
L 3597 1613 
L 953 1613 
Q 991 1019 1311 708 
Q 1631 397 2203 397 
Q 2534 397 2845 478 
Q 3156 559 3463 722 
L 3463 178 
Q 3153 47 2828 -22 
Q 2503 -91 2169 -91 
Q 1331 -91 842 396 
Q 353 884 353 1716 
Q 353 2575 817 3079 
Q 1281 3584 2069 3584 
Q 2775 3584 3186 3129 
Q 3597 2675 3597 1894 
z
M 3022 2063 
Q 3016 2534 2758 2815 
Q 2500 3097 2075 3097 
Q 1594 3097 1305 2825 
Q 1016 2553 972 2059 
L 3022 2063 
z
" transform="scale(0.015625)"/>
       <path id="DejaVuSans-72" d="M 2631 2963 
Q 2534 3019 2420 3045 
Q 2306 3072 2169 3072 
Q 1681 3072 1420 2755 
Q 1159 2438 1159 1844 
L 1159 0 
L 581 0 
L 581 3500 
L 1159 3500 
L 1159 2956 
Q 1341 3275 1631 3429 
Q 1922 3584 2338 3584 
Q 2397 3584 2469 3576 
Q 2541 3569 2628 3553 
L 2631 2963 
z
" transform="scale(0.015625)"/>
       <path id="DejaVuSans-4f" d="M 2522 4238 
Q 1834 4238 1429 3725 
Q 1025 3213 1025 2328 
Q 1025 1447 1429 934 
Q 1834 422 2522 422 
Q 3209 422 3611 934 
Q 4013 1447 4013 2328 
Q 4013 3213 3611 3725 
Q 3209 4238 2522 4238 
z
M 2522 4750 
Q 3503 4750 4090 4092 
Q 4678 3434 4678 2328 
Q 4678 1225 4090 567 
Q 3503 -91 2522 -91 
Q 1538 -91 948 565 
Q 359 1222 359 2328 
Q 359 3434 948 4092 
Q 1538 4750 2522 4750 
z
" transform="scale(0.015625)"/>
       <path id="DejaVuSans-70" d="M 1159 525 
L 1159 -1331 
L 581 -1331 
L 581 3500 
L 1159 3500 
L 1159 2969 
Q 1341 3281 1617 3432 
Q 1894 3584 2278 3584 
Q 2916 3584 3314 3078 
Q 3713 2572 3713 1747 
Q 3713 922 3314 415 
Q 2916 -91 2278 -91 
Q 1894 -91 1617 61 
Q 1341 213 1159 525 
z
M 3116 1747 
Q 3116 2381 2855 2742 
Q 2594 3103 2138 3103 
Q 1681 3103 1420 2742 
Q 1159 2381 1159 1747 
Q 1159 1113 1420 752 
Q 1681 391 2138 391 
Q 2594 391 2855 752 
Q 3116 1113 3116 1747 
z
" transform="scale(0.015625)"/>
      </defs>
      <use xlink:href="#DejaVuSans-4e"/>
      <use xlink:href="#DejaVuSans-73" x="74.804688"/>
      <use xlink:href="#DejaVuSans-50" x="126.904297"/>
      <use xlink:href="#DejaVuSans-65" x="183.582031"/>
      <use xlink:href="#DejaVuSans-72" x="245.105469"/>
      <use xlink:href="#DejaVuSans-4f" x="286.21875"/>
      <use xlink:href="#DejaVuSans-70" x="364.929688"/>
     </g>
    </g>
    <g id="text_17">
     <!-- 1e6 -->
     <g transform="translate(57.6 38.472) scale(0.1 -0.1)">
      <use xlink:href="#DejaVuSans-31"/>
      <use xlink:href="#DejaVuSans-65" x="63.623047"/>
      <use xlink:href="#DejaVuSans-36" x="125.146484"/>
     </g>
    </g>
   </g>
   <g id="line2d_29">
    <path d="M 73.832727 146.071351 
L 77.112066 144.867958 
L 80.391405 164.015724 
L 83.670744 192.699506 
L 86.950083 188.207478 
L 90.229421 197.152743 
L 93.50876 193.11888 
L 96.788099 53.568 
L 100.067438 230.835771 
L 103.346777 221.004687 
L 106.626116 197.166836 
L 109.905455 225.754429 
L 113.184793 207.452254 
L 116.464132 222.627728 
L 119.743471 212.70805 
L 123.02281 236.229557 
L 126.302149 200.512186 
L 129.581488 230.72022 
L 132.860826 210.303795 
L 136.140165 222.055108 
L 139.419504 219.140489 
L 142.698843 155.870896 
L 145.978182 217.588598 
L 149.257521 209.490359 
L 152.53686 210.920337 
L 155.816198 194.602016 
L 159.095537 231.337105 
L 162.374876 210.383018 
L 165.654215 224.017753 
L 168.933554 239.782268 
L 172.212893 230.458949 
L 175.492231 228.986897 
L 178.77157 223.009544 
L 182.050909 230.050247 
L 185.330248 210.646547 
L 188.609587 211.311731 
L 191.888926 220.505201 
L 195.168264 227.715022 
L 198.447603 226.473933 
L 201.726942 187.157399 
L 205.006281 215.153489 
L 208.28562 225.158685 
L 211.564959 216.811352 
L 214.844298 200.499872 
L 218.123636 205.380078 
L 221.402975 228.115583 
L 224.682314 204.268223 
L 227.961653 230.559654 
L 231.240992 217.106488 
L 234.520331 232.928539 
L 237.799669 228.425017 
L 241.079008 235.511352 
L 244.358347 229.40203 
L 247.637686 232.076791 
L 250.917025 216.394988 
L 254.196364 213.053196 
L 257.475702 232.413727 
L 260.755041 227.225113 
L 264.03438 193.103966 
L 267.313719 210.277798 
L 270.593058 173.327823 
L 273.872397 166.977616 
L 277.151736 91.772336 
L 280.431074 141.474855 
L 283.710413 114.561067 
L 286.989752 109.709594 
L 290.269091 228.218135 
L 293.54843 195.650863 
L 296.827769 215.354419 
L 300.107107 227.585515 
L 303.386446 221.913971 
L 306.665785 234.457306 
L 309.945124 228.53701 
L 313.224463 218.020834 
L 316.503802 205.631498 
L 319.78314 225.235376 
L 323.062479 234.673356 
L 326.341818 229.909384 
L 329.621157 222.987994 
L 332.900496 231.531741 
L 336.179835 237.611509 
L 339.459174 206.500759 
L 342.738512 212.989639 
L 346.017851 229.045664 
L 349.29719 229.913147 
L 352.576529 232.245704 
L 355.855868 188.58122 
L 359.135207 205.125443 
L 362.414545 199.080635 
L 365.693884 224.376445 
L 368.973223 218.419069 
L 372.252562 210.978694 
L 375.531901 236.218953 
L 378.81124 214.499867 
L 382.090579 187.579305 
L 385.369917 216.937849 
L 388.649256 224.672538 
L 391.928595 232.021855 
L 395.207934 227.845897 
L 398.487273 226.342443 
" clip-path="url(#p28acf0200e)" style="fill: none; stroke: #8b008b; stroke-width: 1.5; stroke-linecap: square"/>
    <defs>
     <path id="m5c1f1f5097" d="M 0 -3 
L -3 3 
L 3 3 
z
" style="stroke: #8b008b; stroke-linejoin: miter"/>
    </defs>
    <g clip-path="url(#p28acf0200e)">
     <use xlink:href="#m5c1f1f5097" x="73.832727" y="146.071351" style="fill: #8b008b; stroke: #8b008b; stroke-linejoin: miter"/>
     <use xlink:href="#m5c1f1f5097" x="77.112066" y="144.867958" style="fill: #8b008b; stroke: #8b008b; stroke-linejoin: miter"/>
     <use xlink:href="#m5c1f1f5097" x="80.391405" y="164.015724" style="fill: #8b008b; stroke: #8b008b; stroke-linejoin: miter"/>
     <use xlink:href="#m5c1f1f5097" x="83.670744" y="192.699506" style="fill: #8b008b; stroke: #8b008b; stroke-linejoin: miter"/>
     <use xlink:href="#m5c1f1f5097" x="86.950083" y="188.207478" style="fill: #8b008b; stroke: #8b008b; stroke-linejoin: miter"/>
     <use xlink:href="#m5c1f1f5097" x="90.229421" y="197.152743" style="fill: #8b008b; stroke: #8b008b; stroke-linejoin: miter"/>
     <use xlink:href="#m5c1f1f5097" x="93.50876" y="193.11888" style="fill: #8b008b; stroke: #8b008b; stroke-linejoin: miter"/>
     <use xlink:href="#m5c1f1f5097" x="96.788099" y="53.568" style="fill: #8b008b; stroke: #8b008b; stroke-linejoin: miter"/>
     <use xlink:href="#m5c1f1f5097" x="100.067438" y="230.835771" style="fill: #8b008b; stroke: #8b008b; stroke-linejoin: miter"/>
     <use xlink:href="#m5c1f1f5097" x="103.346777" y="221.004687" style="fill: #8b008b; stroke: #8b008b; stroke-linejoin: miter"/>
     <use xlink:href="#m5c1f1f5097" x="106.626116" y="197.166836" style="fill: #8b008b; stroke: #8b008b; stroke-linejoin: miter"/>
     <use xlink:href="#m5c1f1f5097" x="109.905455" y="225.754429" style="fill: #8b008b; stroke: #8b008b; stroke-linejoin: miter"/>
     <use xlink:href="#m5c1f1f5097" x="113.184793" y="207.452254" style="fill: #8b008b; stroke: #8b008b; stroke-linejoin: miter"/>
     <use xlink:href="#m5c1f1f5097" x="116.464132" y="222.627728" style="fill: #8b008b; stroke: #8b008b; stroke-linejoin: miter"/>
     <use xlink:href="#m5c1f1f5097" x="119.743471" y="212.70805" style="fill: #8b008b; stroke: #8b008b; stroke-linejoin: miter"/>
     <use xlink:href="#m5c1f1f5097" x="123.02281" y="236.229557" style="fill: #8b008b; stroke: #8b008b; stroke-linejoin: miter"/>
     <use xlink:href="#m5c1f1f5097" x="126.302149" y="200.512186" style="fill: #8b008b; stroke: #8b008b; stroke-linejoin: miter"/>
     <use xlink:href="#m5c1f1f5097" x="129.581488" y="230.72022" style="fill: #8b008b; stroke: #8b008b; stroke-linejoin: miter"/>
     <use xlink:href="#m5c1f1f5097" x="132.860826" y="210.303795" style="fill: #8b008b; stroke: #8b008b; stroke-linejoin: miter"/>
     <use xlink:href="#m5c1f1f5097" x="136.140165" y="222.055108" style="fill: #8b008b; stroke: #8b008b; stroke-linejoin: miter"/>
     <use xlink:href="#m5c1f1f5097" x="139.419504" y="219.140489" style="fill: #8b008b; stroke: #8b008b; stroke-linejoin: miter"/>
     <use xlink:href="#m5c1f1f5097" x="142.698843" y="155.870896" style="fill: #8b008b; stroke: #8b008b; stroke-linejoin: miter"/>
     <use xlink:href="#m5c1f1f5097" x="145.978182" y="217.588598" style="fill: #8b008b; stroke: #8b008b; stroke-linejoin: miter"/>
     <use xlink:href="#m5c1f1f5097" x="149.257521" y="209.490359" style="fill: #8b008b; stroke: #8b008b; stroke-linejoin: miter"/>
     <use xlink:href="#m5c1f1f5097" x="152.53686" y="210.920337" style="fill: #8b008b; stroke: #8b008b; stroke-linejoin: miter"/>
     <use xlink:href="#m5c1f1f5097" x="155.816198" y="194.602016" style="fill: #8b008b; stroke: #8b008b; stroke-linejoin: miter"/>
     <use xlink:href="#m5c1f1f5097" x="159.095537" y="231.337105" style="fill: #8b008b; stroke: #8b008b; stroke-linejoin: miter"/>
     <use xlink:href="#m5c1f1f5097" x="162.374876" y="210.383018" style="fill: #8b008b; stroke: #8b008b; stroke-linejoin: miter"/>
     <use xlink:href="#m5c1f1f5097" x="165.654215" y="224.017753" style="fill: #8b008b; stroke: #8b008b; stroke-linejoin: miter"/>
     <use xlink:href="#m5c1f1f5097" x="168.933554" y="239.782268" style="fill: #8b008b; stroke: #8b008b; stroke-linejoin: miter"/>
     <use xlink:href="#m5c1f1f5097" x="172.212893" y="230.458949" style="fill: #8b008b; stroke: #8b008b; stroke-linejoin: miter"/>
     <use xlink:href="#m5c1f1f5097" x="175.492231" y="228.986897" style="fill: #8b008b; stroke: #8b008b; stroke-linejoin: miter"/>
     <use xlink:href="#m5c1f1f5097" x="178.77157" y="223.009544" style="fill: #8b008b; stroke: #8b008b; stroke-linejoin: miter"/>
     <use xlink:href="#m5c1f1f5097" x="182.050909" y="230.050247" style="fill: #8b008b; stroke: #8b008b; stroke-linejoin: miter"/>
     <use xlink:href="#m5c1f1f5097" x="185.330248" y="210.646547" style="fill: #8b008b; stroke: #8b008b; stroke-linejoin: miter"/>
     <use xlink:href="#m5c1f1f5097" x="188.609587" y="211.311731" style="fill: #8b008b; stroke: #8b008b; stroke-linejoin: miter"/>
     <use xlink:href="#m5c1f1f5097" x="191.888926" y="220.505201" style="fill: #8b008b; stroke: #8b008b; stroke-linejoin: miter"/>
     <use xlink:href="#m5c1f1f5097" x="195.168264" y="227.715022" style="fill: #8b008b; stroke: #8b008b; stroke-linejoin: miter"/>
     <use xlink:href="#m5c1f1f5097" x="198.447603" y="226.473933" style="fill: #8b008b; stroke: #8b008b; stroke-linejoin: miter"/>
     <use xlink:href="#m5c1f1f5097" x="201.726942" y="187.157399" style="fill: #8b008b; stroke: #8b008b; stroke-linejoin: miter"/>
     <use xlink:href="#m5c1f1f5097" x="205.006281" y="215.153489" style="fill: #8b008b; stroke: #8b008b; stroke-linejoin: miter"/>
     <use xlink:href="#m5c1f1f5097" x="208.28562" y="225.158685" style="fill: #8b008b; stroke: #8b008b; stroke-linejoin: miter"/>
     <use xlink:href="#m5c1f1f5097" x="211.564959" y="216.811352" style="fill: #8b008b; stroke: #8b008b; stroke-linejoin: miter"/>
     <use xlink:href="#m5c1f1f5097" x="214.844298" y="200.499872" style="fill: #8b008b; stroke: #8b008b; stroke-linejoin: miter"/>
     <use xlink:href="#m5c1f1f5097" x="218.123636" y="205.380078" style="fill: #8b008b; stroke: #8b008b; stroke-linejoin: miter"/>
     <use xlink:href="#m5c1f1f5097" x="221.402975" y="228.115583" style="fill: #8b008b; stroke: #8b008b; stroke-linejoin: miter"/>
     <use xlink:href="#m5c1f1f5097" x="224.682314" y="204.268223" style="fill: #8b008b; stroke: #8b008b; stroke-linejoin: miter"/>
     <use xlink:href="#m5c1f1f5097" x="227.961653" y="230.559654" style="fill: #8b008b; stroke: #8b008b; stroke-linejoin: miter"/>
     <use xlink:href="#m5c1f1f5097" x="231.240992" y="217.106488" style="fill: #8b008b; stroke: #8b008b; stroke-linejoin: miter"/>
     <use xlink:href="#m5c1f1f5097" x="234.520331" y="232.928539" style="fill: #8b008b; stroke: #8b008b; stroke-linejoin: miter"/>
     <use xlink:href="#m5c1f1f5097" x="237.799669" y="228.425017" style="fill: #8b008b; stroke: #8b008b; stroke-linejoin: miter"/>
     <use xlink:href="#m5c1f1f5097" x="241.079008" y="235.511352" style="fill: #8b008b; stroke: #8b008b; stroke-linejoin: miter"/>
     <use xlink:href="#m5c1f1f5097" x="244.358347" y="229.40203" style="fill: #8b008b; stroke: #8b008b; stroke-linejoin: miter"/>
     <use xlink:href="#m5c1f1f5097" x="247.637686" y="232.076791" style="fill: #8b008b; stroke: #8b008b; stroke-linejoin: miter"/>
     <use xlink:href="#m5c1f1f5097" x="250.917025" y="216.394988" style="fill: #8b008b; stroke: #8b008b; stroke-linejoin: miter"/>
     <use xlink:href="#m5c1f1f5097" x="254.196364" y="213.053196" style="fill: #8b008b; stroke: #8b008b; stroke-linejoin: miter"/>
     <use xlink:href="#m5c1f1f5097" x="257.475702" y="232.413727" style="fill: #8b008b; stroke: #8b008b; stroke-linejoin: miter"/>
     <use xlink:href="#m5c1f1f5097" x="260.755041" y="227.225113" style="fill: #8b008b; stroke: #8b008b; stroke-linejoin: miter"/>
     <use xlink:href="#m5c1f1f5097" x="264.03438" y="193.103966" style="fill: #8b008b; stroke: #8b008b; stroke-linejoin: miter"/>
     <use xlink:href="#m5c1f1f5097" x="267.313719" y="210.277798" style="fill: #8b008b; stroke: #8b008b; stroke-linejoin: miter"/>
     <use xlink:href="#m5c1f1f5097" x="270.593058" y="173.327823" style="fill: #8b008b; stroke: #8b008b; stroke-linejoin: miter"/>
     <use xlink:href="#m5c1f1f5097" x="273.872397" y="166.977616" style="fill: #8b008b; stroke: #8b008b; stroke-linejoin: miter"/>
     <use xlink:href="#m5c1f1f5097" x="277.151736" y="91.772336" style="fill: #8b008b; stroke: #8b008b; stroke-linejoin: miter"/>
     <use xlink:href="#m5c1f1f5097" x="280.431074" y="141.474855" style="fill: #8b008b; stroke: #8b008b; stroke-linejoin: miter"/>
     <use xlink:href="#m5c1f1f5097" x="283.710413" y="114.561067" style="fill: #8b008b; stroke: #8b008b; stroke-linejoin: miter"/>
     <use xlink:href="#m5c1f1f5097" x="286.989752" y="109.709594" style="fill: #8b008b; stroke: #8b008b; stroke-linejoin: miter"/>
     <use xlink:href="#m5c1f1f5097" x="290.269091" y="228.218135" style="fill: #8b008b; stroke: #8b008b; stroke-linejoin: miter"/>
     <use xlink:href="#m5c1f1f5097" x="293.54843" y="195.650863" style="fill: #8b008b; stroke: #8b008b; stroke-linejoin: miter"/>
     <use xlink:href="#m5c1f1f5097" x="296.827769" y="215.354419" style="fill: #8b008b; stroke: #8b008b; stroke-linejoin: miter"/>
     <use xlink:href="#m5c1f1f5097" x="300.107107" y="227.585515" style="fill: #8b008b; stroke: #8b008b; stroke-linejoin: miter"/>
     <use xlink:href="#m5c1f1f5097" x="303.386446" y="221.913971" style="fill: #8b008b; stroke: #8b008b; stroke-linejoin: miter"/>
     <use xlink:href="#m5c1f1f5097" x="306.665785" y="234.457306" style="fill: #8b008b; stroke: #8b008b; stroke-linejoin: miter"/>
     <use xlink:href="#m5c1f1f5097" x="309.945124" y="228.53701" style="fill: #8b008b; stroke: #8b008b; stroke-linejoin: miter"/>
     <use xlink:href="#m5c1f1f5097" x="313.224463" y="218.020834" style="fill: #8b008b; stroke: #8b008b; stroke-linejoin: miter"/>
     <use xlink:href="#m5c1f1f5097" x="316.503802" y="205.631498" style="fill: #8b008b; stroke: #8b008b; stroke-linejoin: miter"/>
     <use xlink:href="#m5c1f1f5097" x="319.78314" y="225.235376" style="fill: #8b008b; stroke: #8b008b; stroke-linejoin: miter"/>
     <use xlink:href="#m5c1f1f5097" x="323.062479" y="234.673356" style="fill: #8b008b; stroke: #8b008b; stroke-linejoin: miter"/>
     <use xlink:href="#m5c1f1f5097" x="326.341818" y="229.909384" style="fill: #8b008b; stroke: #8b008b; stroke-linejoin: miter"/>
     <use xlink:href="#m5c1f1f5097" x="329.621157" y="222.987994" style="fill: #8b008b; stroke: #8b008b; stroke-linejoin: miter"/>
     <use xlink:href="#m5c1f1f5097" x="332.900496" y="231.531741" style="fill: #8b008b; stroke: #8b008b; stroke-linejoin: miter"/>
     <use xlink:href="#m5c1f1f5097" x="336.179835" y="237.611509" style="fill: #8b008b; stroke: #8b008b; stroke-linejoin: miter"/>
     <use xlink:href="#m5c1f1f5097" x="339.459174" y="206.500759" style="fill: #8b008b; stroke: #8b008b; stroke-linejoin: miter"/>
     <use xlink:href="#m5c1f1f5097" x="342.738512" y="212.989639" style="fill: #8b008b; stroke: #8b008b; stroke-linejoin: miter"/>
     <use xlink:href="#m5c1f1f5097" x="346.017851" y="229.045664" style="fill: #8b008b; stroke: #8b008b; stroke-linejoin: miter"/>
     <use xlink:href="#m5c1f1f5097" x="349.29719" y="229.913147" style="fill: #8b008b; stroke: #8b008b; stroke-linejoin: miter"/>
     <use xlink:href="#m5c1f1f5097" x="352.576529" y="232.245704" style="fill: #8b008b; stroke: #8b008b; stroke-linejoin: miter"/>
     <use xlink:href="#m5c1f1f5097" x="355.855868" y="188.58122" style="fill: #8b008b; stroke: #8b008b; stroke-linejoin: miter"/>
     <use xlink:href="#m5c1f1f5097" x="359.135207" y="205.125443" style="fill: #8b008b; stroke: #8b008b; stroke-linejoin: miter"/>
     <use xlink:href="#m5c1f1f5097" x="362.414545" y="199.080635" style="fill: #8b008b; stroke: #8b008b; stroke-linejoin: miter"/>
     <use xlink:href="#m5c1f1f5097" x="365.693884" y="224.376445" style="fill: #8b008b; stroke: #8b008b; stroke-linejoin: miter"/>
     <use xlink:href="#m5c1f1f5097" x="368.973223" y="218.419069" style="fill: #8b008b; stroke: #8b008b; stroke-linejoin: miter"/>
     <use xlink:href="#m5c1f1f5097" x="372.252562" y="210.978694" style="fill: #8b008b; stroke: #8b008b; stroke-linejoin: miter"/>
     <use xlink:href="#m5c1f1f5097" x="375.531901" y="236.218953" style="fill: #8b008b; stroke: #8b008b; stroke-linejoin: miter"/>
     <use xlink:href="#m5c1f1f5097" x="378.81124" y="214.499867" style="fill: #8b008b; stroke: #8b008b; stroke-linejoin: miter"/>
     <use xlink:href="#m5c1f1f5097" x="382.090579" y="187.579305" style="fill: #8b008b; stroke: #8b008b; stroke-linejoin: miter"/>
     <use xlink:href="#m5c1f1f5097" x="385.369917" y="216.937849" style="fill: #8b008b; stroke: #8b008b; stroke-linejoin: miter"/>
     <use xlink:href="#m5c1f1f5097" x="388.649256" y="224.672538" style="fill: #8b008b; stroke: #8b008b; stroke-linejoin: miter"/>
     <use xlink:href="#m5c1f1f5097" x="391.928595" y="232.021855" style="fill: #8b008b; stroke: #8b008b; stroke-linejoin: miter"/>
     <use xlink:href="#m5c1f1f5097" x="395.207934" y="227.845897" style="fill: #8b008b; stroke: #8b008b; stroke-linejoin: miter"/>
     <use xlink:href="#m5c1f1f5097" x="398.487273" y="226.342443" style="fill: #8b008b; stroke: #8b008b; stroke-linejoin: miter"/>
    </g>
   </g>
   <g id="line2d_30">
    <path d="M 73.832727 267.353099 
L 77.112066 267.769601 
L 80.391405 267.941318 
L 83.670744 264.437181 
L 86.950083 266.636605 
L 90.229421 261.245693 
L 93.50876 250.419467 
L 96.788099 284.870299 
L 100.067438 283.111252 
L 103.346777 272.192942 
L 106.626116 288.625377 
L 109.905455 289.787106 
L 113.184793 255.213062 
L 116.464132 257.237142 
L 119.743471 280.498336 
L 123.02281 284.728478 
L 126.302149 284.221055 
L 129.581488 277.615872 
L 132.860826 283.776504 
L 136.140165 285.939191 
L 139.419504 239.803887 
L 142.698843 247.287704 
L 145.978182 282.321213 
L 149.257521 267.10339 
L 152.53686 281.547251 
L 155.816198 267.449015 
L 159.095537 272.128633 
L 162.374876 257.487057 
L 165.654215 284.252115 
L 168.933554 276.367531 
L 172.212893 278.464678 
L 175.492231 281.02553 
L 178.77157 288.758031 
L 182.050909 284.056521 
L 185.330248 267.396063 
L 188.609587 286.615116 
L 191.888926 280.351589 
L 195.168264 284.400298 
L 198.447603 289.83479 
L 201.726942 295.488 
L 205.006281 262.30186 
L 208.28562 285.182401 
L 211.564959 266.670607 
L 214.844298 276.869207 
L 218.123636 268.99297 
L 221.402975 286.018824 
L 224.682314 289.090178 
L 227.961653 269.221266 
L 231.240992 281.741751 
L 234.520331 284.801954 
L 237.799669 280.601298 
L 241.079008 269.686135 
L 244.358347 290.272978 
L 247.637686 274.80702 
L 250.917025 265.90807 
L 254.196364 275.355491 
L 257.475702 270.056731 
L 260.755041 288.036405 
L 264.03438 274.708436 
L 267.313719 220.395397 
L 270.593058 248.338329 
L 273.872397 171.915905 
L 277.151736 211.101017 
L 280.431074 244.805869 
L 283.710413 173.978982 
L 286.989752 215.115998 
L 290.269091 229.774473 
L 293.54843 278.911623 
L 296.827769 279.197181 
L 300.107107 289.190267 
L 303.386446 289.57133 
L 306.665785 285.739629 
L 309.945124 260.193357 
L 313.224463 262.494033 
L 316.503802 284.444767 
L 319.78314 281.060216 
L 323.062479 278.037778 
L 326.341818 280.561482 
L 329.621157 287.626061 
L 332.900496 283.640019 
L 336.179835 263.15737 
L 339.459174 279.812423 
L 342.738512 272.657743 
L 346.017851 291.615387 
L 349.29719 274.264775 
L 352.576529 287.193141 
L 355.855868 267.671222 
L 359.135207 260.77494 
L 362.414545 280.282286 
L 365.693884 281.819879 
L 368.973223 281.495531 
L 372.252562 258.235363 
L 375.531901 275.298913 
L 378.81124 273.623878 
L 382.090579 268.58201 
L 385.369917 279.872011 
L 388.649256 273.357407 
L 391.928595 274.005625 
L 395.207934 260.10695 
L 398.487273 277.927974 
" clip-path="url(#p28acf0200e)" style="fill: none; stroke: #ffd700; stroke-width: 1.5; stroke-linecap: square"/>
    <defs>
     <path id="m8f9f529e4e" d="M 0 -3 
L -0.673542 -0.927051 
L -2.85317 -0.927051 
L -1.089814 0.354102 
L -1.763356 2.427051 
L -0 1.145898 
L 1.763356 2.427051 
L 1.089814 0.354102 
L 2.85317 -0.927051 
L 0.673542 -0.927051 
z
" style="stroke: #ffd700; stroke-linejoin: bevel"/>
    </defs>
    <g clip-path="url(#p28acf0200e)">
     <use xlink:href="#m8f9f529e4e" x="73.832727" y="267.353099" style="fill: #ffd700; stroke: #ffd700; stroke-linejoin: bevel"/>
     <use xlink:href="#m8f9f529e4e" x="77.112066" y="267.769601" style="fill: #ffd700; stroke: #ffd700; stroke-linejoin: bevel"/>
     <use xlink:href="#m8f9f529e4e" x="80.391405" y="267.941318" style="fill: #ffd700; stroke: #ffd700; stroke-linejoin: bevel"/>
     <use xlink:href="#m8f9f529e4e" x="83.670744" y="264.437181" style="fill: #ffd700; stroke: #ffd700; stroke-linejoin: bevel"/>
     <use xlink:href="#m8f9f529e4e" x="86.950083" y="266.636605" style="fill: #ffd700; stroke: #ffd700; stroke-linejoin: bevel"/>
     <use xlink:href="#m8f9f529e4e" x="90.229421" y="261.245693" style="fill: #ffd700; stroke: #ffd700; stroke-linejoin: bevel"/>
     <use xlink:href="#m8f9f529e4e" x="93.50876" y="250.419467" style="fill: #ffd700; stroke: #ffd700; stroke-linejoin: bevel"/>
     <use xlink:href="#m8f9f529e4e" x="96.788099" y="284.870299" style="fill: #ffd700; stroke: #ffd700; stroke-linejoin: bevel"/>
     <use xlink:href="#m8f9f529e4e" x="100.067438" y="283.111252" style="fill: #ffd700; stroke: #ffd700; stroke-linejoin: bevel"/>
     <use xlink:href="#m8f9f529e4e" x="103.346777" y="272.192942" style="fill: #ffd700; stroke: #ffd700; stroke-linejoin: bevel"/>
     <use xlink:href="#m8f9f529e4e" x="106.626116" y="288.625377" style="fill: #ffd700; stroke: #ffd700; stroke-linejoin: bevel"/>
     <use xlink:href="#m8f9f529e4e" x="109.905455" y="289.787106" style="fill: #ffd700; stroke: #ffd700; stroke-linejoin: bevel"/>
     <use xlink:href="#m8f9f529e4e" x="113.184793" y="255.213062" style="fill: #ffd700; stroke: #ffd700; stroke-linejoin: bevel"/>
     <use xlink:href="#m8f9f529e4e" x="116.464132" y="257.237142" style="fill: #ffd700; stroke: #ffd700; stroke-linejoin: bevel"/>
     <use xlink:href="#m8f9f529e4e" x="119.743471" y="280.498336" style="fill: #ffd700; stroke: #ffd700; stroke-linejoin: bevel"/>
     <use xlink:href="#m8f9f529e4e" x="123.02281" y="284.728478" style="fill: #ffd700; stroke: #ffd700; stroke-linejoin: bevel"/>
     <use xlink:href="#m8f9f529e4e" x="126.302149" y="284.221055" style="fill: #ffd700; stroke: #ffd700; stroke-linejoin: bevel"/>
     <use xlink:href="#m8f9f529e4e" x="129.581488" y="277.615872" style="fill: #ffd700; stroke: #ffd700; stroke-linejoin: bevel"/>
     <use xlink:href="#m8f9f529e4e" x="132.860826" y="283.776504" style="fill: #ffd700; stroke: #ffd700; stroke-linejoin: bevel"/>
     <use xlink:href="#m8f9f529e4e" x="136.140165" y="285.939191" style="fill: #ffd700; stroke: #ffd700; stroke-linejoin: bevel"/>
     <use xlink:href="#m8f9f529e4e" x="139.419504" y="239.803887" style="fill: #ffd700; stroke: #ffd700; stroke-linejoin: bevel"/>
     <use xlink:href="#m8f9f529e4e" x="142.698843" y="247.287704" style="fill: #ffd700; stroke: #ffd700; stroke-linejoin: bevel"/>
     <use xlink:href="#m8f9f529e4e" x="145.978182" y="282.321213" style="fill: #ffd700; stroke: #ffd700; stroke-linejoin: bevel"/>
     <use xlink:href="#m8f9f529e4e" x="149.257521" y="267.10339" style="fill: #ffd700; stroke: #ffd700; stroke-linejoin: bevel"/>
     <use xlink:href="#m8f9f529e4e" x="152.53686" y="281.547251" style="fill: #ffd700; stroke: #ffd700; stroke-linejoin: bevel"/>
     <use xlink:href="#m8f9f529e4e" x="155.816198" y="267.449015" style="fill: #ffd700; stroke: #ffd700; stroke-linejoin: bevel"/>
     <use xlink:href="#m8f9f529e4e" x="159.095537" y="272.128633" style="fill: #ffd700; stroke: #ffd700; stroke-linejoin: bevel"/>
     <use xlink:href="#m8f9f529e4e" x="162.374876" y="257.487057" style="fill: #ffd700; stroke: #ffd700; stroke-linejoin: bevel"/>
     <use xlink:href="#m8f9f529e4e" x="165.654215" y="284.252115" style="fill: #ffd700; stroke: #ffd700; stroke-linejoin: bevel"/>
     <use xlink:href="#m8f9f529e4e" x="168.933554" y="276.367531" style="fill: #ffd700; stroke: #ffd700; stroke-linejoin: bevel"/>
     <use xlink:href="#m8f9f529e4e" x="172.212893" y="278.464678" style="fill: #ffd700; stroke: #ffd700; stroke-linejoin: bevel"/>
     <use xlink:href="#m8f9f529e4e" x="175.492231" y="281.02553" style="fill: #ffd700; stroke: #ffd700; stroke-linejoin: bevel"/>
     <use xlink:href="#m8f9f529e4e" x="178.77157" y="288.758031" style="fill: #ffd700; stroke: #ffd700; stroke-linejoin: bevel"/>
     <use xlink:href="#m8f9f529e4e" x="182.050909" y="284.056521" style="fill: #ffd700; stroke: #ffd700; stroke-linejoin: bevel"/>
     <use xlink:href="#m8f9f529e4e" x="185.330248" y="267.396063" style="fill: #ffd700; stroke: #ffd700; stroke-linejoin: bevel"/>
     <use xlink:href="#m8f9f529e4e" x="188.609587" y="286.615116" style="fill: #ffd700; stroke: #ffd700; stroke-linejoin: bevel"/>
     <use xlink:href="#m8f9f529e4e" x="191.888926" y="280.351589" style="fill: #ffd700; stroke: #ffd700; stroke-linejoin: bevel"/>
     <use xlink:href="#m8f9f529e4e" x="195.168264" y="284.400298" style="fill: #ffd700; stroke: #ffd700; stroke-linejoin: bevel"/>
     <use xlink:href="#m8f9f529e4e" x="198.447603" y="289.83479" style="fill: #ffd700; stroke: #ffd700; stroke-linejoin: bevel"/>
     <use xlink:href="#m8f9f529e4e" x="201.726942" y="295.488" style="fill: #ffd700; stroke: #ffd700; stroke-linejoin: bevel"/>
     <use xlink:href="#m8f9f529e4e" x="205.006281" y="262.30186" style="fill: #ffd700; stroke: #ffd700; stroke-linejoin: bevel"/>
     <use xlink:href="#m8f9f529e4e" x="208.28562" y="285.182401" style="fill: #ffd700; stroke: #ffd700; stroke-linejoin: bevel"/>
     <use xlink:href="#m8f9f529e4e" x="211.564959" y="266.670607" style="fill: #ffd700; stroke: #ffd700; stroke-linejoin: bevel"/>
     <use xlink:href="#m8f9f529e4e" x="214.844298" y="276.869207" style="fill: #ffd700; stroke: #ffd700; stroke-linejoin: bevel"/>
     <use xlink:href="#m8f9f529e4e" x="218.123636" y="268.99297" style="fill: #ffd700; stroke: #ffd700; stroke-linejoin: bevel"/>
     <use xlink:href="#m8f9f529e4e" x="221.402975" y="286.018824" style="fill: #ffd700; stroke: #ffd700; stroke-linejoin: bevel"/>
     <use xlink:href="#m8f9f529e4e" x="224.682314" y="289.090178" style="fill: #ffd700; stroke: #ffd700; stroke-linejoin: bevel"/>
     <use xlink:href="#m8f9f529e4e" x="227.961653" y="269.221266" style="fill: #ffd700; stroke: #ffd700; stroke-linejoin: bevel"/>
     <use xlink:href="#m8f9f529e4e" x="231.240992" y="281.741751" style="fill: #ffd700; stroke: #ffd700; stroke-linejoin: bevel"/>
     <use xlink:href="#m8f9f529e4e" x="234.520331" y="284.801954" style="fill: #ffd700; stroke: #ffd700; stroke-linejoin: bevel"/>
     <use xlink:href="#m8f9f529e4e" x="237.799669" y="280.601298" style="fill: #ffd700; stroke: #ffd700; stroke-linejoin: bevel"/>
     <use xlink:href="#m8f9f529e4e" x="241.079008" y="269.686135" style="fill: #ffd700; stroke: #ffd700; stroke-linejoin: bevel"/>
     <use xlink:href="#m8f9f529e4e" x="244.358347" y="290.272978" style="fill: #ffd700; stroke: #ffd700; stroke-linejoin: bevel"/>
     <use xlink:href="#m8f9f529e4e" x="247.637686" y="274.80702" style="fill: #ffd700; stroke: #ffd700; stroke-linejoin: bevel"/>
     <use xlink:href="#m8f9f529e4e" x="250.917025" y="265.90807" style="fill: #ffd700; stroke: #ffd700; stroke-linejoin: bevel"/>
     <use xlink:href="#m8f9f529e4e" x="254.196364" y="275.355491" style="fill: #ffd700; stroke: #ffd700; stroke-linejoin: bevel"/>
     <use xlink:href="#m8f9f529e4e" x="257.475702" y="270.056731" style="fill: #ffd700; stroke: #ffd700; stroke-linejoin: bevel"/>
     <use xlink:href="#m8f9f529e4e" x="260.755041" y="288.036405" style="fill: #ffd700; stroke: #ffd700; stroke-linejoin: bevel"/>
     <use xlink:href="#m8f9f529e4e" x="264.03438" y="274.708436" style="fill: #ffd700; stroke: #ffd700; stroke-linejoin: bevel"/>
     <use xlink:href="#m8f9f529e4e" x="267.313719" y="220.395397" style="fill: #ffd700; stroke: #ffd700; stroke-linejoin: bevel"/>
     <use xlink:href="#m8f9f529e4e" x="270.593058" y="248.338329" style="fill: #ffd700; stroke: #ffd700; stroke-linejoin: bevel"/>
     <use xlink:href="#m8f9f529e4e" x="273.872397" y="171.915905" style="fill: #ffd700; stroke: #ffd700; stroke-linejoin: bevel"/>
     <use xlink:href="#m8f9f529e4e" x="277.151736" y="211.101017" style="fill: #ffd700; stroke: #ffd700; stroke-linejoin: bevel"/>
     <use xlink:href="#m8f9f529e4e" x="280.431074" y="244.805869" style="fill: #ffd700; stroke: #ffd700; stroke-linejoin: bevel"/>
     <use xlink:href="#m8f9f529e4e" x="283.710413" y="173.978982" style="fill: #ffd700; stroke: #ffd700; stroke-linejoin: bevel"/>
     <use xlink:href="#m8f9f529e4e" x="286.989752" y="215.115998" style="fill: #ffd700; stroke: #ffd700; stroke-linejoin: bevel"/>
     <use xlink:href="#m8f9f529e4e" x="290.269091" y="229.774473" style="fill: #ffd700; stroke: #ffd700; stroke-linejoin: bevel"/>
     <use xlink:href="#m8f9f529e4e" x="293.54843" y="278.911623" style="fill: #ffd700; stroke: #ffd700; stroke-linejoin: bevel"/>
     <use xlink:href="#m8f9f529e4e" x="296.827769" y="279.197181" style="fill: #ffd700; stroke: #ffd700; stroke-linejoin: bevel"/>
     <use xlink:href="#m8f9f529e4e" x="300.107107" y="289.190267" style="fill: #ffd700; stroke: #ffd700; stroke-linejoin: bevel"/>
     <use xlink:href="#m8f9f529e4e" x="303.386446" y="289.57133" style="fill: #ffd700; stroke: #ffd700; stroke-linejoin: bevel"/>
     <use xlink:href="#m8f9f529e4e" x="306.665785" y="285.739629" style="fill: #ffd700; stroke: #ffd700; stroke-linejoin: bevel"/>
     <use xlink:href="#m8f9f529e4e" x="309.945124" y="260.193357" style="fill: #ffd700; stroke: #ffd700; stroke-linejoin: bevel"/>
     <use xlink:href="#m8f9f529e4e" x="313.224463" y="262.494033" style="fill: #ffd700; stroke: #ffd700; stroke-linejoin: bevel"/>
     <use xlink:href="#m8f9f529e4e" x="316.503802" y="284.444767" style="fill: #ffd700; stroke: #ffd700; stroke-linejoin: bevel"/>
     <use xlink:href="#m8f9f529e4e" x="319.78314" y="281.060216" style="fill: #ffd700; stroke: #ffd700; stroke-linejoin: bevel"/>
     <use xlink:href="#m8f9f529e4e" x="323.062479" y="278.037778" style="fill: #ffd700; stroke: #ffd700; stroke-linejoin: bevel"/>
     <use xlink:href="#m8f9f529e4e" x="326.341818" y="280.561482" style="fill: #ffd700; stroke: #ffd700; stroke-linejoin: bevel"/>
     <use xlink:href="#m8f9f529e4e" x="329.621157" y="287.626061" style="fill: #ffd700; stroke: #ffd700; stroke-linejoin: bevel"/>
     <use xlink:href="#m8f9f529e4e" x="332.900496" y="283.640019" style="fill: #ffd700; stroke: #ffd700; stroke-linejoin: bevel"/>
     <use xlink:href="#m8f9f529e4e" x="336.179835" y="263.15737" style="fill: #ffd700; stroke: #ffd700; stroke-linejoin: bevel"/>
     <use xlink:href="#m8f9f529e4e" x="339.459174" y="279.812423" style="fill: #ffd700; stroke: #ffd700; stroke-linejoin: bevel"/>
     <use xlink:href="#m8f9f529e4e" x="342.738512" y="272.657743" style="fill: #ffd700; stroke: #ffd700; stroke-linejoin: bevel"/>
     <use xlink:href="#m8f9f529e4e" x="346.017851" y="291.615387" style="fill: #ffd700; stroke: #ffd700; stroke-linejoin: bevel"/>
     <use xlink:href="#m8f9f529e4e" x="349.29719" y="274.264775" style="fill: #ffd700; stroke: #ffd700; stroke-linejoin: bevel"/>
     <use xlink:href="#m8f9f529e4e" x="352.576529" y="287.193141" style="fill: #ffd700; stroke: #ffd700; stroke-linejoin: bevel"/>
     <use xlink:href="#m8f9f529e4e" x="355.855868" y="267.671222" style="fill: #ffd700; stroke: #ffd700; stroke-linejoin: bevel"/>
     <use xlink:href="#m8f9f529e4e" x="359.135207" y="260.77494" style="fill: #ffd700; stroke: #ffd700; stroke-linejoin: bevel"/>
     <use xlink:href="#m8f9f529e4e" x="362.414545" y="280.282286" style="fill: #ffd700; stroke: #ffd700; stroke-linejoin: bevel"/>
     <use xlink:href="#m8f9f529e4e" x="365.693884" y="281.819879" style="fill: #ffd700; stroke: #ffd700; stroke-linejoin: bevel"/>
     <use xlink:href="#m8f9f529e4e" x="368.973223" y="281.495531" style="fill: #ffd700; stroke: #ffd700; stroke-linejoin: bevel"/>
     <use xlink:href="#m8f9f529e4e" x="372.252562" y="258.235363" style="fill: #ffd700; stroke: #ffd700; stroke-linejoin: bevel"/>
     <use xlink:href="#m8f9f529e4e" x="375.531901" y="275.298913" style="fill: #ffd700; stroke: #ffd700; stroke-linejoin: bevel"/>
     <use xlink:href="#m8f9f529e4e" x="378.81124" y="273.623878" style="fill: #ffd700; stroke: #ffd700; stroke-linejoin: bevel"/>
     <use xlink:href="#m8f9f529e4e" x="382.090579" y="268.58201" style="fill: #ffd700; stroke: #ffd700; stroke-linejoin: bevel"/>
     <use xlink:href="#m8f9f529e4e" x="385.369917" y="279.872011" style="fill: #ffd700; stroke: #ffd700; stroke-linejoin: bevel"/>
     <use xlink:href="#m8f9f529e4e" x="388.649256" y="273.357407" style="fill: #ffd700; stroke: #ffd700; stroke-linejoin: bevel"/>
     <use xlink:href="#m8f9f529e4e" x="391.928595" y="274.005625" style="fill: #ffd700; stroke: #ffd700; stroke-linejoin: bevel"/>
     <use xlink:href="#m8f9f529e4e" x="395.207934" y="260.10695" style="fill: #ffd700; stroke: #ffd700; stroke-linejoin: bevel"/>
     <use xlink:href="#m8f9f529e4e" x="398.487273" y="277.927974" style="fill: #ffd700; stroke: #ffd700; stroke-linejoin: bevel"/>
    </g>
   </g>
   <g id="patch_3">
    <path d="M 57.6 307.584 
L 57.6 41.472 
" style="fill: none; stroke: #000000; stroke-width: 0.8; stroke-linejoin: miter; stroke-linecap: square"/>
   </g>
   <g id="patch_4">
    <path d="M 414.72 307.584 
L 414.72 41.472 
" style="fill: none; stroke: #000000; stroke-width: 0.8; stroke-linejoin: miter; stroke-linecap: square"/>
   </g>
   <g id="patch_5">
    <path d="M 57.6 307.584 
L 414.72 307.584 
" style="fill: none; stroke: #000000; stroke-width: 0.8; stroke-linejoin: miter; stroke-linecap: square"/>
   </g>
   <g id="patch_6">
    <path d="M 57.6 41.472 
L 414.72 41.472 
" style="fill: none; stroke: #000000; stroke-width: 0.8; stroke-linejoin: miter; stroke-linecap: square"/>
   </g>
   <g id="text_18">
    <!-- Add client NsPerOp -->
    <g transform="translate(178.544062 35.472) scale(0.12 -0.12)">
     <defs>
      <path id="DejaVuSans-41" d="M 2188 4044 
L 1331 1722 
L 3047 1722 
L 2188 4044 
z
M 1831 4666 
L 2547 4666 
L 4325 0 
L 3669 0 
L 3244 1197 
L 1141 1197 
L 716 0 
L 50 0 
L 1831 4666 
z
" transform="scale(0.015625)"/>
      <path id="DejaVuSans-64" d="M 2906 2969 
L 2906 4863 
L 3481 4863 
L 3481 0 
L 2906 0 
L 2906 525 
Q 2725 213 2448 61 
Q 2172 -91 1784 -91 
Q 1150 -91 751 415 
Q 353 922 353 1747 
Q 353 2572 751 3078 
Q 1150 3584 1784 3584 
Q 2172 3584 2448 3432 
Q 2725 3281 2906 2969 
z
M 947 1747 
Q 947 1113 1208 752 
Q 1469 391 1925 391 
Q 2381 391 2643 752 
Q 2906 1113 2906 1747 
Q 2906 2381 2643 2742 
Q 2381 3103 1925 3103 
Q 1469 3103 1208 2742 
Q 947 2381 947 1747 
z
" transform="scale(0.015625)"/>
      <path id="DejaVuSans-63" d="M 3122 3366 
L 3122 2828 
Q 2878 2963 2633 3030 
Q 2388 3097 2138 3097 
Q 1578 3097 1268 2742 
Q 959 2388 959 1747 
Q 959 1106 1268 751 
Q 1578 397 2138 397 
Q 2388 397 2633 464 
Q 2878 531 3122 666 
L 3122 134 
Q 2881 22 2623 -34 
Q 2366 -91 2075 -91 
Q 1284 -91 818 406 
Q 353 903 353 1747 
Q 353 2603 823 3093 
Q 1294 3584 2113 3584 
Q 2378 3584 2631 3529 
Q 2884 3475 3122 3366 
z
" transform="scale(0.015625)"/>
      <path id="DejaVuSans-6c" d="M 603 4863 
L 1178 4863 
L 1178 0 
L 603 0 
L 603 4863 
z
" transform="scale(0.015625)"/>
      <path id="DejaVuSans-69" d="M 603 3500 
L 1178 3500 
L 1178 0 
L 603 0 
L 603 3500 
z
M 603 4863 
L 1178 4863 
L 1178 4134 
L 603 4134 
L 603 4863 
z
" transform="scale(0.015625)"/>
      <path id="DejaVuSans-6e" d="M 3513 2113 
L 3513 0 
L 2938 0 
L 2938 2094 
Q 2938 2591 2744 2837 
Q 2550 3084 2163 3084 
Q 1697 3084 1428 2787 
Q 1159 2491 1159 1978 
L 1159 0 
L 581 0 
L 581 3500 
L 1159 3500 
L 1159 2956 
Q 1366 3272 1645 3428 
Q 1925 3584 2291 3584 
Q 2894 3584 3203 3211 
Q 3513 2838 3513 2113 
z
" transform="scale(0.015625)"/>
      <path id="DejaVuSans-74" d="M 1172 4494 
L 1172 3500 
L 2356 3500 
L 2356 3053 
L 1172 3053 
L 1172 1153 
Q 1172 725 1289 603 
Q 1406 481 1766 481 
L 2356 481 
L 2356 0 
L 1766 0 
Q 1100 0 847 248 
Q 594 497 594 1153 
L 594 3053 
L 172 3053 
L 172 3500 
L 594 3500 
L 594 4494 
L 1172 4494 
z
" transform="scale(0.015625)"/>
     </defs>
     <use xlink:href="#DejaVuSans-41"/>
     <use xlink:href="#DejaVuSans-64" x="66.658203"/>
     <use xlink:href="#DejaVuSans-64" x="130.134766"/>
     <use xlink:href="#DejaVuSans-20" x="193.611328"/>
     <use xlink:href="#DejaVuSans-63" x="225.398438"/>
     <use xlink:href="#DejaVuSans-6c" x="280.378906"/>
     <use xlink:href="#DejaVuSans-69" x="308.162109"/>
     <use xlink:href="#DejaVuSans-65" x="335.945312"/>
     <use xlink:href="#DejaVuSans-6e" x="397.46875"/>
     <use xlink:href="#DejaVuSans-74" x="460.847656"/>
     <use xlink:href="#DejaVuSans-20" x="500.056641"/>
     <use xlink:href="#DejaVuSans-4e" x="531.84375"/>
     <use xlink:href="#DejaVuSans-73" x="606.648438"/>
     <use xlink:href="#DejaVuSans-50" x="658.748047"/>
     <use xlink:href="#DejaVuSans-65" x="715.425781"/>
     <use xlink:href="#DejaVuSans-72" x="776.949219"/>
     <use xlink:href="#DejaVuSans-4f" x="818.0625"/>
     <use xlink:href="#DejaVuSans-70" x="896.773438"/>
    </g>
   </g>
   <g id="legend_1">
    <g id="patch_7">
     <path d="M 349.57625 78.82825 
L 407.72 78.82825 
Q 409.72 78.82825 409.72 76.82825 
L 409.72 48.472 
Q 409.72 46.472 407.72 46.472 
L 349.57625 46.472 
Q 347.57625 46.472 347.57625 48.472 
L 347.57625 76.82825 
Q 347.57625 78.82825 349.57625 78.82825 
z
" style="fill: #ffffff; opacity: 0.8; stroke: #cccccc; stroke-linejoin: miter"/>
    </g>
    <g id="line2d_31">
     <path d="M 351.57625 54.570437 
L 361.57625 54.570437 
L 371.57625 54.570437 
" style="fill: none; stroke: #8b008b; stroke-width: 1.5; stroke-linecap: square"/>
     <g>
      <use xlink:href="#m5c1f1f5097" x="361.57625" y="54.570437" style="fill: #8b008b; stroke: #8b008b; stroke-linejoin: miter"/>
     </g>
    </g>
    <g id="text_19">
     <!-- gorm -->
     <g transform="translate(379.57625 58.070437) scale(0.1 -0.1)">
      <defs>
       <path id="DejaVuSans-67" d="M 2906 1791 
Q 2906 2416 2648 2759 
Q 2391 3103 1925 3103 
Q 1463 3103 1205 2759 
Q 947 2416 947 1791 
Q 947 1169 1205 825 
Q 1463 481 1925 481 
Q 2391 481 2648 825 
Q 2906 1169 2906 1791 
z
M 3481 434 
Q 3481 -459 3084 -895 
Q 2688 -1331 1869 -1331 
Q 1566 -1331 1297 -1286 
Q 1028 -1241 775 -1147 
L 775 -588 
Q 1028 -725 1275 -790 
Q 1522 -856 1778 -856 
Q 2344 -856 2625 -561 
Q 2906 -266 2906 331 
L 2906 616 
Q 2728 306 2450 153 
Q 2172 0 1784 0 
Q 1141 0 747 490 
Q 353 981 353 1791 
Q 353 2603 747 3093 
Q 1141 3584 1784 3584 
Q 2172 3584 2450 3431 
Q 2728 3278 2906 2969 
L 2906 3500 
L 3481 3500 
L 3481 434 
z
" transform="scale(0.015625)"/>
       <path id="DejaVuSans-6f" d="M 1959 3097 
Q 1497 3097 1228 2736 
Q 959 2375 959 1747 
Q 959 1119 1226 758 
Q 1494 397 1959 397 
Q 2419 397 2687 759 
Q 2956 1122 2956 1747 
Q 2956 2369 2687 2733 
Q 2419 3097 1959 3097 
z
M 1959 3584 
Q 2709 3584 3137 3096 
Q 3566 2609 3566 1747 
Q 3566 888 3137 398 
Q 2709 -91 1959 -91 
Q 1206 -91 779 398 
Q 353 888 353 1747 
Q 353 2609 779 3096 
Q 1206 3584 1959 3584 
z
" transform="scale(0.015625)"/>
       <path id="DejaVuSans-6d" d="M 3328 2828 
Q 3544 3216 3844 3400 
Q 4144 3584 4550 3584 
Q 5097 3584 5394 3201 
Q 5691 2819 5691 2113 
L 5691 0 
L 5113 0 
L 5113 2094 
Q 5113 2597 4934 2840 
Q 4756 3084 4391 3084 
Q 3944 3084 3684 2787 
Q 3425 2491 3425 1978 
L 3425 0 
L 2847 0 
L 2847 2094 
Q 2847 2600 2669 2842 
Q 2491 3084 2119 3084 
Q 1678 3084 1418 2786 
Q 1159 2488 1159 1978 
L 1159 0 
L 581 0 
L 581 3500 
L 1159 3500 
L 1159 2956 
Q 1356 3278 1631 3431 
Q 1906 3584 2284 3584 
Q 2666 3584 2933 3390 
Q 3200 3197 3328 2828 
z
" transform="scale(0.015625)"/>
      </defs>
      <use xlink:href="#DejaVuSans-67"/>
      <use xlink:href="#DejaVuSans-6f" x="63.476562"/>
      <use xlink:href="#DejaVuSans-72" x="124.658203"/>
      <use xlink:href="#DejaVuSans-6d" x="164.021484"/>
     </g>
    </g>
    <g id="line2d_32">
     <path d="M 351.57625 69.248562 
L 361.57625 69.248562 
L 371.57625 69.248562 
" style="fill: none; stroke: #ffd700; stroke-width: 1.5; stroke-linecap: square"/>
     <g>
      <use xlink:href="#m8f9f529e4e" x="361.57625" y="69.248562" style="fill: #ffd700; stroke: #ffd700; stroke-linejoin: bevel"/>
     </g>
    </g>
    <g id="text_20">
     <!-- sqlx -->
     <g transform="translate(379.57625 72.748562) scale(0.1 -0.1)">
      <defs>
       <path id="DejaVuSans-71" d="M 947 1747 
Q 947 1113 1208 752 
Q 1469 391 1925 391 
Q 2381 391 2643 752 
Q 2906 1113 2906 1747 
Q 2906 2381 2643 2742 
Q 2381 3103 1925 3103 
Q 1469 3103 1208 2742 
Q 947 2381 947 1747 
z
M 2906 525 
Q 2725 213 2448 61 
Q 2172 -91 1784 -91 
Q 1150 -91 751 415 
Q 353 922 353 1747 
Q 353 2572 751 3078 
Q 1150 3584 1784 3584 
Q 2172 3584 2448 3432 
Q 2725 3281 2906 2969 
L 2906 3500 
L 3481 3500 
L 3481 -1331 
L 2906 -1331 
L 2906 525 
z
" transform="scale(0.015625)"/>
       <path id="DejaVuSans-78" d="M 3513 3500 
L 2247 1797 
L 3578 0 
L 2900 0 
L 1881 1375 
L 863 0 
L 184 0 
L 1544 1831 
L 300 3500 
L 978 3500 
L 1906 2253 
L 2834 3500 
L 3513 3500 
z
" transform="scale(0.015625)"/>
      </defs>
      <use xlink:href="#DejaVuSans-73"/>
      <use xlink:href="#DejaVuSans-71" x="52.099609"/>
      <use xlink:href="#DejaVuSans-6c" x="115.576172"/>
      <use xlink:href="#DejaVuSans-78" x="143.359375"/>
     </g>
    </g>
   </g>
  </g>
 </g>
 <defs>
  <clipPath id="p28acf0200e">
   <rect x="57.6" y="41.472" width="357.12" height="266.112"/>
  </clipPath>
 </defs>
</svg>
