<?xml version="1.0" encoding="utf-8" standalone="no"?>
<!DOCTYPE svg PUBLIC "-//W3C//DTD SVG 1.1//EN"
  "http://www.w3.org/Graphics/SVG/1.1/DTD/svg11.dtd">
<svg xmlns:xlink="http://www.w3.org/1999/xlink" width="460.8pt" height="345.6pt" viewBox="0 0 460.8 345.6" xmlns="http://www.w3.org/2000/svg" version="1.1">
 <metadata>
  <rdf:RDF xmlns:dc="http://purl.org/dc/elements/1.1/" xmlns:cc="http://creativecommons.org/ns#" xmlns:rdf="http://www.w3.org/1999/02/22-rdf-syntax-ns#">
   <cc:Work>
    <dc:type rdf:resource="http://purl.org/dc/dcmitype/StillImage"/>
    <dc:date>2024-11-09T12:41:56.507700</dc:date>
    <dc:format>image/svg+xml</dc:format>
    <dc:creator>
     <cc:Agent>
      <dc:title>Matplotlib v3.6.3, https://matplotlib.org/</dc:title>
     </cc:Agent>
    </dc:creator>
   </cc:Work>
  </rdf:RDF>
 </metadata>
 <defs>
  <style type="text/css">*{stroke-linejoin: round; stroke-linecap: butt}</style>
 </defs>
 <g id="figure_1">
  <g id="patch_1">
   <path d="M 0 345.6 
L 460.8 345.6 
L 460.8 0 
L 0 0 
z
" style="fill: #ffffff"/>
  </g>
  <g id="axes_1">
   <g id="patch_2">
    <path d="M 57.6 307.584 
L 414.72 307.584 
L 414.72 41.472 
L 57.6 41.472 
z
" style="fill: #ffffff"/>
   </g>
   <g id="matplotlib.axis_1">
    <g id="xtick_1">
     <g id="line2d_1">
      <path d="M 70.553388 307.584 
L 70.553388 41.472 
" clip-path="url(#p6ff8155f2a)" style="fill: none; stroke: #b0b0b0; stroke-width: 0.8; stroke-linecap: square"/>
     </g>
     <g id="line2d_2">
      <defs>
       <path id="m6ad54cc26f" d="M 0 0 
L 0 3.5 
" style="stroke: #000000; stroke-width: 0.8"/>
      </defs>
      <g>
       <use xlink:href="#m6ad54cc26f" x="70.553388" y="307.584" style="stroke: #000000; stroke-width: 0.8"/>
      </g>
     </g>
     <g id="text_1">
      <!-- 0 -->
      <g transform="translate(67.372138 322.182437) scale(0.1 -0.1)">
       <defs>
        <path id="DejaVuSans-30" d="M 2034 4250 
Q 1547 4250 1301 3770 
Q 1056 3291 1056 2328 
Q 1056 1369 1301 889 
Q 1547 409 2034 409 
Q 2525 409 2770 889 
Q 3016 1369 3016 2328 
Q 3016 3291 2770 3770 
Q 2525 4250 2034 4250 
z
M 2034 4750 
Q 2819 4750 3233 4129 
Q 3647 3509 3647 2328 
Q 3647 1150 3233 529 
Q 2819 -91 2034 -91 
Q 1250 -91 836 529 
Q 422 1150 422 2328 
Q 422 3509 836 4129 
Q 1250 4750 2034 4750 
z
" transform="scale(0.015625)"/>
       </defs>
       <use xlink:href="#DejaVuSans-30"/>
      </g>
     </g>
    </g>
    <g id="xtick_2">
     <g id="line2d_3">
      <path d="M 136.140165 307.584 
L 136.140165 41.472 
" clip-path="url(#p6ff8155f2a)" style="fill: none; stroke: #b0b0b0; stroke-width: 0.8; stroke-linecap: square"/>
     </g>
     <g id="line2d_4">
      <g>
       <use xlink:href="#m6ad54cc26f" x="136.140165" y="307.584" style="stroke: #000000; stroke-width: 0.8"/>
      </g>
     </g>
     <g id="text_2">
      <!-- 20 -->
      <g transform="translate(129.777665 322.182437) scale(0.1 -0.1)">
       <defs>
        <path id="DejaVuSans-32" d="M 1228 531 
L 3431 531 
L 3431 0 
L 469 0 
L 469 531 
Q 828 903 1448 1529 
Q 2069 2156 2228 2338 
Q 2531 2678 2651 2914 
Q 2772 3150 2772 3378 
Q 2772 3750 2511 3984 
Q 2250 4219 1831 4219 
Q 1534 4219 1204 4116 
Q 875 4013 500 3803 
L 500 4441 
Q 881 4594 1212 4672 
Q 1544 4750 1819 4750 
Q 2544 4750 2975 4387 
Q 3406 4025 3406 3419 
Q 3406 3131 3298 2873 
Q 3191 2616 2906 2266 
Q 2828 2175 2409 1742 
Q 1991 1309 1228 531 
z
" transform="scale(0.015625)"/>
       </defs>
       <use xlink:href="#DejaVuSans-32"/>
       <use xlink:href="#DejaVuSans-30" x="63.623047"/>
      </g>
     </g>
    </g>
    <g id="xtick_3">
     <g id="line2d_5">
      <path d="M 201.726942 307.584 
L 201.726942 41.472 
" clip-path="url(#p6ff8155f2a)" style="fill: none; stroke: #b0b0b0; stroke-width: 0.8; stroke-linecap: square"/>
     </g>
     <g id="line2d_6">
      <g>
       <use xlink:href="#m6ad54cc26f" x="201.726942" y="307.584" style="stroke: #000000; stroke-width: 0.8"/>
      </g>
     </g>
     <g id="text_3">
      <!-- 40 -->
      <g transform="translate(195.364442 322.182437) scale(0.1 -0.1)">
       <defs>
        <path id="DejaVuSans-34" d="M 2419 4116 
L 825 1625 
L 2419 1625 
L 2419 4116 
z
M 2253 4666 
L 3047 4666 
L 3047 1625 
L 3713 1625 
L 3713 1100 
L 3047 1100 
L 3047 0 
L 2419 0 
L 2419 1100 
L 313 1100 
L 313 1709 
L 2253 4666 
z
" transform="scale(0.015625)"/>
       </defs>
       <use xlink:href="#DejaVuSans-34"/>
       <use xlink:href="#DejaVuSans-30" x="63.623047"/>
      </g>
     </g>
    </g>
    <g id="xtick_4">
     <g id="line2d_7">
      <path d="M 267.313719 307.584 
L 267.313719 41.472 
" clip-path="url(#p6ff8155f2a)" style="fill: none; stroke: #b0b0b0; stroke-width: 0.8; stroke-linecap: square"/>
     </g>
     <g id="line2d_8">
      <g>
       <use xlink:href="#m6ad54cc26f" x="267.313719" y="307.584" style="stroke: #000000; stroke-width: 0.8"/>
      </g>
     </g>
     <g id="text_4">
      <!-- 60 -->
      <g transform="translate(260.951219 322.182437) scale(0.1 -0.1)">
       <defs>
        <path id="DejaVuSans-36" d="M 2113 2584 
Q 1688 2584 1439 2293 
Q 1191 2003 1191 1497 
Q 1191 994 1439 701 
Q 1688 409 2113 409 
Q 2538 409 2786 701 
Q 3034 994 3034 1497 
Q 3034 2003 2786 2293 
Q 2538 2584 2113 2584 
z
M 3366 4563 
L 3366 3988 
Q 3128 4100 2886 4159 
Q 2644 4219 2406 4219 
Q 1781 4219 1451 3797 
Q 1122 3375 1075 2522 
Q 1259 2794 1537 2939 
Q 1816 3084 2150 3084 
Q 2853 3084 3261 2657 
Q 3669 2231 3669 1497 
Q 3669 778 3244 343 
Q 2819 -91 2113 -91 
Q 1303 -91 875 529 
Q 447 1150 447 2328 
Q 447 3434 972 4092 
Q 1497 4750 2381 4750 
Q 2619 4750 2861 4703 
Q 3103 4656 3366 4563 
z
" transform="scale(0.015625)"/>
       </defs>
       <use xlink:href="#DejaVuSans-36"/>
       <use xlink:href="#DejaVuSans-30" x="63.623047"/>
      </g>
     </g>
    </g>
    <g id="xtick_5">
     <g id="line2d_9">
      <path d="M 332.900496 307.584 
L 332.900496 41.472 
" clip-path="url(#p6ff8155f2a)" style="fill: none; stroke: #b0b0b0; stroke-width: 0.8; stroke-linecap: square"/>
     </g>
     <g id="line2d_10">
      <g>
       <use xlink:href="#m6ad54cc26f" x="332.900496" y="307.584" style="stroke: #000000; stroke-width: 0.8"/>
      </g>
     </g>
     <g id="text_5">
      <!-- 80 -->
      <g transform="translate(326.537996 322.182437) scale(0.1 -0.1)">
       <defs>
        <path id="DejaVuSans-38" d="M 2034 2216 
Q 1584 2216 1326 1975 
Q 1069 1734 1069 1313 
Q 1069 891 1326 650 
Q 1584 409 2034 409 
Q 2484 409 2743 651 
Q 3003 894 3003 1313 
Q 3003 1734 2745 1975 
Q 2488 2216 2034 2216 
z
M 1403 2484 
Q 997 2584 770 2862 
Q 544 3141 544 3541 
Q 544 4100 942 4425 
Q 1341 4750 2034 4750 
Q 2731 4750 3128 4425 
Q 3525 4100 3525 3541 
Q 3525 3141 3298 2862 
Q 3072 2584 2669 2484 
Q 3125 2378 3379 2068 
Q 3634 1759 3634 1313 
Q 3634 634 3220 271 
Q 2806 -91 2034 -91 
Q 1263 -91 848 271 
Q 434 634 434 1313 
Q 434 1759 690 2068 
Q 947 2378 1403 2484 
z
M 1172 3481 
Q 1172 3119 1398 2916 
Q 1625 2713 2034 2713 
Q 2441 2713 2670 2916 
Q 2900 3119 2900 3481 
Q 2900 3844 2670 4047 
Q 2441 4250 2034 4250 
Q 1625 4250 1398 4047 
Q 1172 3844 1172 3481 
z
" transform="scale(0.015625)"/>
       </defs>
       <use xlink:href="#DejaVuSans-38"/>
       <use xlink:href="#DejaVuSans-30" x="63.623047"/>
      </g>
     </g>
    </g>
    <g id="xtick_6">
     <g id="line2d_11">
      <path d="M 398.487273 307.584 
L 398.487273 41.472 
" clip-path="url(#p6ff8155f2a)" style="fill: none; stroke: #b0b0b0; stroke-width: 0.8; stroke-linecap: square"/>
     </g>
     <g id="line2d_12">
      <g>
       <use xlink:href="#m6ad54cc26f" x="398.487273" y="307.584" style="stroke: #000000; stroke-width: 0.8"/>
      </g>
     </g>
     <g id="text_6">
      <!-- 100 -->
      <g transform="translate(388.943523 322.182437) scale(0.1 -0.1)">
       <defs>
        <path id="DejaVuSans-31" d="M 794 531 
L 1825 531 
L 1825 4091 
L 703 3866 
L 703 4441 
L 1819 4666 
L 2450 4666 
L 2450 531 
L 3481 531 
L 3481 0 
L 794 0 
L 794 531 
z
" transform="scale(0.015625)"/>
       </defs>
       <use xlink:href="#DejaVuSans-31"/>
       <use xlink:href="#DejaVuSans-30" x="63.623047"/>
       <use xlink:href="#DejaVuSans-30" x="127.246094"/>
      </g>
     </g>
    </g>
    <g id="text_7">
     <!-- Номер бенчмарка -->
     <g transform="translate(189.251406 336.030875) scale(0.1 -0.1)">
      <defs>
       <path id="DejaVuSans-41d" d="M 628 4666 
L 1259 4666 
L 1259 2753 
L 3553 2753 
L 3553 4666 
L 4184 4666 
L 4184 0 
L 3553 0 
L 3553 2222 
L 1259 2222 
L 1259 0 
L 628 0 
L 628 4666 
z
" transform="scale(0.015625)"/>
       <path id="DejaVuSans-43e" d="M 1959 3097 
Q 1497 3097 1228 2736 
Q 959 2375 959 1747 
Q 959 1119 1226 758 
Q 1494 397 1959 397 
Q 2419 397 2687 759 
Q 2956 1122 2956 1747 
Q 2956 2369 2687 2733 
Q 2419 3097 1959 3097 
z
M 1959 3584 
Q 2709 3584 3137 3096 
Q 3566 2609 3566 1747 
Q 3566 888 3137 398 
Q 2709 -91 1959 -91 
Q 1206 -91 779 398 
Q 353 888 353 1747 
Q 353 2609 779 3096 
Q 1206 3584 1959 3584 
z
" transform="scale(0.015625)"/>
       <path id="DejaVuSans-43c" d="M 581 3500 
L 1422 3500 
L 2416 1156 
L 3413 3500 
L 4247 3500 
L 4247 0 
L 3669 0 
L 3669 2950 
L 2703 672 
L 2128 672 
L 1159 2950 
L 1159 0 
L 581 0 
L 581 3500 
z
" transform="scale(0.015625)"/>
       <path id="DejaVuSans-435" d="M 3597 1894 
L 3597 1613 
L 953 1613 
Q 991 1019 1311 708 
Q 1631 397 2203 397 
Q 2534 397 2845 478 
Q 3156 559 3463 722 
L 3463 178 
Q 3153 47 2828 -22 
Q 2503 -91 2169 -91 
Q 1331 -91 842 396 
Q 353 884 353 1716 
Q 353 2575 817 3079 
Q 1281 3584 2069 3584 
Q 2775 3584 3186 3129 
Q 3597 2675 3597 1894 
z
M 3022 2063 
Q 3016 2534 2758 2815 
Q 2500 3097 2075 3097 
Q 1594 3097 1305 2825 
Q 1016 2553 972 2059 
L 3022 2063 
z
" transform="scale(0.015625)"/>
       <path id="DejaVuSans-440" d="M 1159 525 
L 1159 -1331 
L 581 -1331 
L 581 3500 
L 1159 3500 
L 1159 2969 
Q 1341 3281 1617 3432 
Q 1894 3584 2278 3584 
Q 2916 3584 3314 3078 
Q 3713 2572 3713 1747 
Q 3713 922 3314 415 
Q 2916 -91 2278 -91 
Q 1894 -91 1617 61 
Q 1341 213 1159 525 
z
M 3116 1747 
Q 3116 2381 2855 2742 
Q 2594 3103 2138 3103 
Q 1681 3103 1420 2742 
Q 1159 2381 1159 1747 
Q 1159 1113 1420 752 
Q 1681 391 2138 391 
Q 2594 391 2855 752 
Q 3116 1113 3116 1747 
z
" transform="scale(0.015625)"/>
       <path id="DejaVuSans-20" transform="scale(0.015625)"/>
       <path id="DejaVuSans-431" d="M 1991 3584 
Q 2741 3584 3169 3096 
Q 3597 2609 3597 1747 
Q 3597 888 3169 398 
Q 2741 -91 1991 -91 
Q 1238 -91 822 384 
Q 406 859 384 1747 
L 366 2463 
Q 350 2834 350 2963 
Q 350 3463 531 3831 
Q 816 4409 1308 4659 
Q 1800 4909 2625 4916 
Q 3006 4919 3175 4972 
L 3334 4516 
Q 3181 4453 3041 4450 
L 2259 4397 
Q 1866 4369 1628 4231 
Q 1006 3866 947 3388 
L 925 3213 
Q 1331 3584 1991 3584 
z
M 1991 3097 
Q 1528 3097 1259 2736 
Q 991 2375 991 1747 
Q 991 1119 1258 758 
Q 1525 397 1991 397 
Q 2450 397 2719 759 
Q 2988 1122 2988 1747 
Q 2988 2369 2719 2733 
Q 2450 3097 1991 3097 
z
" transform="scale(0.015625)"/>
       <path id="DejaVuSans-43d" d="M 581 3500 
L 1159 3500 
L 1159 2072 
L 3025 2072 
L 3025 3500 
L 3603 3500 
L 3603 0 
L 3025 0 
L 3025 1613 
L 1159 1613 
L 1159 0 
L 581 0 
L 581 3500 
z
" transform="scale(0.015625)"/>
       <path id="DejaVuSans-447" d="M 2625 0 
L 2625 1472 
L 1553 1472 
Q 1075 1472 756 1769 
Q 469 2038 469 2613 
L 469 3500 
L 1044 3500 
L 1044 2666 
Q 1044 2300 1206 2116 
Q 1372 1931 1697 1931 
L 2625 1931 
L 2625 3500 
L 3200 3500 
L 3200 0 
L 2625 0 
z
" transform="scale(0.015625)"/>
       <path id="DejaVuSans-430" d="M 2194 1759 
Q 1497 1759 1228 1600 
Q 959 1441 959 1056 
Q 959 750 1161 570 
Q 1363 391 1709 391 
Q 2188 391 2477 730 
Q 2766 1069 2766 1631 
L 2766 1759 
L 2194 1759 
z
M 3341 1997 
L 3341 0 
L 2766 0 
L 2766 531 
Q 2569 213 2275 61 
Q 1981 -91 1556 -91 
Q 1019 -91 701 211 
Q 384 513 384 1019 
Q 384 1609 779 1909 
Q 1175 2209 1959 2209 
L 2766 2209 
L 2766 2266 
Q 2766 2663 2505 2880 
Q 2244 3097 1772 3097 
Q 1472 3097 1187 3025 
Q 903 2953 641 2809 
L 641 3341 
Q 956 3463 1253 3523 
Q 1550 3584 1831 3584 
Q 2591 3584 2966 3190 
Q 3341 2797 3341 1997 
z
" transform="scale(0.015625)"/>
       <path id="DejaVuSans-43a" d="M 581 3500 
L 1153 3500 
L 1153 1856 
L 2775 3500 
L 3481 3500 
L 2144 2147 
L 3653 0 
L 3009 0 
L 1769 1766 
L 1153 1141 
L 1153 0 
L 581 0 
L 581 3500 
z
" transform="scale(0.015625)"/>
      </defs>
      <use xlink:href="#DejaVuSans-41d"/>
      <use xlink:href="#DejaVuSans-43e" x="75.195312"/>
      <use xlink:href="#DejaVuSans-43c" x="136.376953"/>
      <use xlink:href="#DejaVuSans-435" x="211.816406"/>
      <use xlink:href="#DejaVuSans-440" x="273.339844"/>
      <use xlink:href="#DejaVuSans-20" x="336.816406"/>
      <use xlink:href="#DejaVuSans-431" x="368.603516"/>
      <use xlink:href="#DejaVuSans-435" x="430.273438"/>
      <use xlink:href="#DejaVuSans-43d" x="491.796875"/>
      <use xlink:href="#DejaVuSans-447" x="557.177734"/>
      <use xlink:href="#DejaVuSans-43c" x="616.259766"/>
      <use xlink:href="#DejaVuSans-430" x="691.699219"/>
      <use xlink:href="#DejaVuSans-440" x="752.978516"/>
      <use xlink:href="#DejaVuSans-43a" x="816.455078"/>
      <use xlink:href="#DejaVuSans-430" x="876.855469"/>
     </g>
    </g>
   </g>
   <g id="matplotlib.axis_2">
    <g id="ytick_1">
     <g id="line2d_13">
      <path d="M 57.6 295.693193 
L 414.72 295.693193 
" clip-path="url(#p6ff8155f2a)" style="fill: none; stroke: #b0b0b0; stroke-width: 0.8; stroke-linecap: square"/>
     </g>
     <g id="line2d_14">
      <defs>
       <path id="mc4c1e68314" d="M 0 0 
L -3.5 0 
" style="stroke: #000000; stroke-width: 0.8"/>
      </defs>
      <g>
       <use xlink:href="#mc4c1e68314" x="57.6" y="295.693193" style="stroke: #000000; stroke-width: 0.8"/>
      </g>
     </g>
     <g id="text_8">
      <!-- 1.0 -->
      <g transform="translate(34.696875 299.492412) scale(0.1 -0.1)">
       <defs>
        <path id="DejaVuSans-2e" d="M 684 794 
L 1344 794 
L 1344 0 
L 684 0 
L 684 794 
z
" transform="scale(0.015625)"/>
       </defs>
       <use xlink:href="#DejaVuSans-31"/>
       <use xlink:href="#DejaVuSans-2e" x="63.623047"/>
       <use xlink:href="#DejaVuSans-30" x="95.410156"/>
      </g>
     </g>
    </g>
    <g id="ytick_2">
     <g id="line2d_15">
      <path d="M 57.6 251.508667 
L 414.72 251.508667 
" clip-path="url(#p6ff8155f2a)" style="fill: none; stroke: #b0b0b0; stroke-width: 0.8; stroke-linecap: square"/>
     </g>
     <g id="line2d_16">
      <g>
       <use xlink:href="#mc4c1e68314" x="57.6" y="251.508667" style="stroke: #000000; stroke-width: 0.8"/>
      </g>
     </g>
     <g id="text_9">
      <!-- 1.5 -->
      <g transform="translate(34.696875 255.307886) scale(0.1 -0.1)">
       <defs>
        <path id="DejaVuSans-35" d="M 691 4666 
L 3169 4666 
L 3169 4134 
L 1269 4134 
L 1269 2991 
Q 1406 3038 1543 3061 
Q 1681 3084 1819 3084 
Q 2600 3084 3056 2656 
Q 3513 2228 3513 1497 
Q 3513 744 3044 326 
Q 2575 -91 1722 -91 
Q 1428 -91 1123 -41 
Q 819 9 494 109 
L 494 744 
Q 775 591 1075 516 
Q 1375 441 1709 441 
Q 2250 441 2565 725 
Q 2881 1009 2881 1497 
Q 2881 1984 2565 2268 
Q 2250 2553 1709 2553 
Q 1456 2553 1204 2497 
Q 953 2441 691 2322 
L 691 4666 
z
" transform="scale(0.015625)"/>
       </defs>
       <use xlink:href="#DejaVuSans-31"/>
       <use xlink:href="#DejaVuSans-2e" x="63.623047"/>
       <use xlink:href="#DejaVuSans-35" x="95.410156"/>
      </g>
     </g>
    </g>
    <g id="ytick_3">
     <g id="line2d_17">
      <path d="M 57.6 207.324141 
L 414.72 207.324141 
" clip-path="url(#p6ff8155f2a)" style="fill: none; stroke: #b0b0b0; stroke-width: 0.8; stroke-linecap: square"/>
     </g>
     <g id="line2d_18">
      <g>
       <use xlink:href="#mc4c1e68314" x="57.6" y="207.324141" style="stroke: #000000; stroke-width: 0.8"/>
      </g>
     </g>
     <g id="text_10">
      <!-- 2.0 -->
      <g transform="translate(34.696875 211.12336) scale(0.1 -0.1)">
       <use xlink:href="#DejaVuSans-32"/>
       <use xlink:href="#DejaVuSans-2e" x="63.623047"/>
       <use xlink:href="#DejaVuSans-30" x="95.410156"/>
      </g>
     </g>
    </g>
    <g id="ytick_4">
     <g id="line2d_19">
      <path d="M 57.6 163.139615 
L 414.72 163.139615 
" clip-path="url(#p6ff8155f2a)" style="fill: none; stroke: #b0b0b0; stroke-width: 0.8; stroke-linecap: square"/>
     </g>
     <g id="line2d_20">
      <g>
       <use xlink:href="#mc4c1e68314" x="57.6" y="163.139615" style="stroke: #000000; stroke-width: 0.8"/>
      </g>
     </g>
     <g id="text_11">
      <!-- 2.5 -->
      <g transform="translate(34.696875 166.938834) scale(0.1 -0.1)">
       <use xlink:href="#DejaVuSans-32"/>
       <use xlink:href="#DejaVuSans-2e" x="63.623047"/>
       <use xlink:href="#DejaVuSans-35" x="95.410156"/>
      </g>
     </g>
    </g>
    <g id="ytick_5">
     <g id="line2d_21">
      <path d="M 57.6 118.955089 
L 414.72 118.955089 
" clip-path="url(#p6ff8155f2a)" style="fill: none; stroke: #b0b0b0; stroke-width: 0.8; stroke-linecap: square"/>
     </g>
     <g id="line2d_22">
      <g>
       <use xlink:href="#mc4c1e68314" x="57.6" y="118.955089" style="stroke: #000000; stroke-width: 0.8"/>
      </g>
     </g>
     <g id="text_12">
      <!-- 3.0 -->
      <g transform="translate(34.696875 122.754308) scale(0.1 -0.1)">
       <defs>
        <path id="DejaVuSans-33" d="M 2597 2516 
Q 3050 2419 3304 2112 
Q 3559 1806 3559 1356 
Q 3559 666 3084 287 
Q 2609 -91 1734 -91 
Q 1441 -91 1130 -33 
Q 819 25 488 141 
L 488 750 
Q 750 597 1062 519 
Q 1375 441 1716 441 
Q 2309 441 2620 675 
Q 2931 909 2931 1356 
Q 2931 1769 2642 2001 
Q 2353 2234 1838 2234 
L 1294 2234 
L 1294 2753 
L 1863 2753 
Q 2328 2753 2575 2939 
Q 2822 3125 2822 3475 
Q 2822 3834 2567 4026 
Q 2313 4219 1838 4219 
Q 1578 4219 1281 4162 
Q 984 4106 628 3988 
L 628 4550 
Q 988 4650 1302 4700 
Q 1616 4750 1894 4750 
Q 2613 4750 3031 4423 
Q 3450 4097 3450 3541 
Q 3450 3153 3228 2886 
Q 3006 2619 2597 2516 
z
" transform="scale(0.015625)"/>
       </defs>
       <use xlink:href="#DejaVuSans-33"/>
       <use xlink:href="#DejaVuSans-2e" x="63.623047"/>
       <use xlink:href="#DejaVuSans-30" x="95.410156"/>
      </g>
     </g>
    </g>
    <g id="ytick_6">
     <g id="line2d_23">
      <path d="M 57.6 74.770563 
L 414.72 74.770563 
" clip-path="url(#p6ff8155f2a)" style="fill: none; stroke: #b0b0b0; stroke-width: 0.8; stroke-linecap: square"/>
     </g>
     <g id="line2d_24">
      <g>
       <use xlink:href="#mc4c1e68314" x="57.6" y="74.770563" style="stroke: #000000; stroke-width: 0.8"/>
      </g>
     </g>
     <g id="text_13">
      <!-- 3.5 -->
      <g transform="translate(34.696875 78.569782) scale(0.1 -0.1)">
       <use xlink:href="#DejaVuSans-33"/>
       <use xlink:href="#DejaVuSans-2e" x="63.623047"/>
       <use xlink:href="#DejaVuSans-35" x="95.410156"/>
      </g>
     </g>
    </g>
    <g id="text_14">
     <!-- NsPerOp -->
     <g transform="translate(28.617187 195.949094) rotate(-90) scale(0.1 -0.1)">
      <defs>
       <path id="DejaVuSans-4e" d="M 628 4666 
L 1478 4666 
L 3547 763 
L 3547 4666 
L 4159 4666 
L 4159 0 
L 3309 0 
L 1241 3903 
L 1241 0 
L 628 0 
L 628 4666 
z
" transform="scale(0.015625)"/>
       <path id="DejaVuSans-73" d="M 2834 3397 
L 2834 2853 
Q 2591 2978 2328 3040 
Q 2066 3103 1784 3103 
Q 1356 3103 1142 2972 
Q 928 2841 928 2578 
Q 928 2378 1081 2264 
Q 1234 2150 1697 2047 
L 1894 2003 
Q 2506 1872 2764 1633 
Q 3022 1394 3022 966 
Q 3022 478 2636 193 
Q 2250 -91 1575 -91 
Q 1294 -91 989 -36 
Q 684 19 347 128 
L 347 722 
Q 666 556 975 473 
Q 1284 391 1588 391 
Q 1994 391 2212 530 
Q 2431 669 2431 922 
Q 2431 1156 2273 1281 
Q 2116 1406 1581 1522 
L 1381 1569 
Q 847 1681 609 1914 
Q 372 2147 372 2553 
Q 372 3047 722 3315 
Q 1072 3584 1716 3584 
Q 2034 3584 2315 3537 
Q 2597 3491 2834 3397 
z
" transform="scale(0.015625)"/>
       <path id="DejaVuSans-50" d="M 1259 4147 
L 1259 2394 
L 2053 2394 
Q 2494 2394 2734 2622 
Q 2975 2850 2975 3272 
Q 2975 3691 2734 3919 
Q 2494 4147 2053 4147 
L 1259 4147 
z
M 628 4666 
L 2053 4666 
Q 2838 4666 3239 4311 
Q 3641 3956 3641 3272 
Q 3641 2581 3239 2228 
Q 2838 1875 2053 1875 
L 1259 1875 
L 1259 0 
L 628 0 
L 628 4666 
z
" transform="scale(0.015625)"/>
       <path id="DejaVuSans-65" d="M 3597 1894 
L 3597 1613 
L 953 1613 
Q 991 1019 1311 708 
Q 1631 397 2203 397 
Q 2534 397 2845 478 
Q 3156 559 3463 722 
L 3463 178 
Q 3153 47 2828 -22 
Q 2503 -91 2169 -91 
Q 1331 -91 842 396 
Q 353 884 353 1716 
Q 353 2575 817 3079 
Q 1281 3584 2069 3584 
Q 2775 3584 3186 3129 
Q 3597 2675 3597 1894 
z
M 3022 2063 
Q 3016 2534 2758 2815 
Q 2500 3097 2075 3097 
Q 1594 3097 1305 2825 
Q 1016 2553 972 2059 
L 3022 2063 
z
" transform="scale(0.015625)"/>
       <path id="DejaVuSans-72" d="M 2631 2963 
Q 2534 3019 2420 3045 
Q 2306 3072 2169 3072 
Q 1681 3072 1420 2755 
Q 1159 2438 1159 1844 
L 1159 0 
L 581 0 
L 581 3500 
L 1159 3500 
L 1159 2956 
Q 1341 3275 1631 3429 
Q 1922 3584 2338 3584 
Q 2397 3584 2469 3576 
Q 2541 3569 2628 3553 
L 2631 2963 
z
" transform="scale(0.015625)"/>
       <path id="DejaVuSans-4f" d="M 2522 4238 
Q 1834 4238 1429 3725 
Q 1025 3213 1025 2328 
Q 1025 1447 1429 934 
Q 1834 422 2522 422 
Q 3209 422 3611 934 
Q 4013 1447 4013 2328 
Q 4013 3213 3611 3725 
Q 3209 4238 2522 4238 
z
M 2522 4750 
Q 3503 4750 4090 4092 
Q 4678 3434 4678 2328 
Q 4678 1225 4090 567 
Q 3503 -91 2522 -91 
Q 1538 -91 948 565 
Q 359 1222 359 2328 
Q 359 3434 948 4092 
Q 1538 4750 2522 4750 
z
" transform="scale(0.015625)"/>
       <path id="DejaVuSans-70" d="M 1159 525 
L 1159 -1331 
L 581 -1331 
L 581 3500 
L 1159 3500 
L 1159 2969 
Q 1341 3281 1617 3432 
Q 1894 3584 2278 3584 
Q 2916 3584 3314 3078 
Q 3713 2572 3713 1747 
Q 3713 922 3314 415 
Q 2916 -91 2278 -91 
Q 1894 -91 1617 61 
Q 1341 213 1159 525 
z
M 3116 1747 
Q 3116 2381 2855 2742 
Q 2594 3103 2138 3103 
Q 1681 3103 1420 2742 
Q 1159 2381 1159 1747 
Q 1159 1113 1420 752 
Q 1681 391 2138 391 
Q 2594 391 2855 752 
Q 3116 1113 3116 1747 
z
" transform="scale(0.015625)"/>
      </defs>
      <use xlink:href="#DejaVuSans-4e"/>
      <use xlink:href="#DejaVuSans-73" x="74.804688"/>
      <use xlink:href="#DejaVuSans-50" x="126.904297"/>
      <use xlink:href="#DejaVuSans-65" x="183.582031"/>
      <use xlink:href="#DejaVuSans-72" x="245.105469"/>
      <use xlink:href="#DejaVuSans-4f" x="286.21875"/>
      <use xlink:href="#DejaVuSans-70" x="364.929688"/>
     </g>
    </g>
    <g id="text_15">
     <!-- 1e6 -->
     <g transform="translate(57.6 38.472) scale(0.1 -0.1)">
      <use xlink:href="#DejaVuSans-31"/>
      <use xlink:href="#DejaVuSans-65" x="63.623047"/>
      <use xlink:href="#DejaVuSans-36" x="125.146484"/>
     </g>
    </g>
   </g>
   <g id="line2d_25">
    <path d="M 73.832727 275.85549 
L 77.112066 285.418788 
L 80.391405 275.93564 
L 83.670744 279.518652 
L 86.950083 273.648384 
L 90.229421 281.382885 
L 93.50876 277.564989 
L 96.788099 245.749744 
L 100.067438 290.958644 
L 103.346777 293.882246 
L 106.626116 275.602754 
L 109.905455 291.918862 
L 113.184793 285.094032 
L 116.464132 292.260851 
L 119.743471 280.415244 
L 123.02281 290.345098 
L 126.302149 279.348453 
L 129.581488 287.672818 
L 132.860826 292.908507 
L 136.140165 287.686868 
L 139.419504 288.800495 
L 142.698843 266.637537 
L 145.978182 294.318082 
L 149.257521 286.44493 
L 152.53686 293.575782 
L 155.816198 285.878749 
L 159.095537 290.484191 
L 162.374876 283.21778 
L 165.654215 295.27671 
L 168.933554 293.780622 
L 172.212893 287.718063 
L 175.492231 293.670779 
L 178.77157 290.409607 
L 182.050909 293.307582 
L 185.330248 288.335144 
L 188.609587 292.698543 
L 191.888926 288.959118 
L 195.168264 288.578954 
L 198.447603 292.560157 
L 201.726942 285.834476 
L 205.006281 276.127401 
L 208.28562 289.490746 
L 211.564959 285.065931 
L 214.844298 286.883505 
L 218.123636 283.322851 
L 221.402975 290.695216 
L 224.682314 289.367736 
L 227.961653 280.458368 
L 231.240992 293.651603 
L 234.520331 293.557755 
L 237.799669 288.659988 
L 241.079008 294.315166 
L 244.358347 294.502597 
L 247.637686 288.049447 
L 250.917025 283.538472 
L 254.196364 291.975684 
L 257.475702 279.552674 
L 260.755041 290.605345 
L 264.03438 285.539766 
L 267.313719 288.09964 
L 270.593058 289.38647 
L 273.872397 257.438407 
L 277.151736 230.227897 
L 280.431074 248.23371 
L 283.710413 207.125311 
L 286.989752 246.318311 
L 290.269091 274.017325 
L 293.54843 295.110841 
L 296.827769 284.19364 
L 300.107107 292.639335 
L 303.386446 295.072047 
L 306.665785 290.556919 
L 309.945124 274.750169 
L 313.224463 289.533075 
L 316.503802 284.672954 
L 319.78314 293.378012 
L 323.062479 281.916458 
L 326.341818 295.488 
L 329.621157 293.960011 
L 332.900496 295.33627 
L 336.179835 294.239964 
L 339.459174 287.839217 
L 342.738512 286.244597 
L 346.017851 293.498459 
L 349.29719 293.139946 
L 352.576529 290.048355 
L 355.855868 286.727004 
L 359.135207 286.081026 
L 362.414545 280.230288 
L 365.693884 280.193261 
L 368.973223 292.087647 
L 372.252562 290.998675 
L 375.531901 291.808489 
L 378.81124 290.291811 
L 382.090579 281.963028 
L 385.369917 291.672489 
L 388.649256 294.784317 
L 391.928595 293.253412 
L 395.207934 281.619538 
L 398.487273 292.233103 
" clip-path="url(#p6ff8155f2a)" style="fill: none; stroke: #8b008b; stroke-width: 1.5; stroke-linecap: square"/>
    <defs>
     <path id="mc2e2b65dc3" d="M 0 -3 
L -3 3 
L 3 3 
z
" style="stroke: #8b008b; stroke-linejoin: miter"/>
    </defs>
    <g clip-path="url(#p6ff8155f2a)">
     <use xlink:href="#mc2e2b65dc3" x="73.832727" y="275.85549" style="fill: #8b008b; stroke: #8b008b; stroke-linejoin: miter"/>
     <use xlink:href="#mc2e2b65dc3" x="77.112066" y="285.418788" style="fill: #8b008b; stroke: #8b008b; stroke-linejoin: miter"/>
     <use xlink:href="#mc2e2b65dc3" x="80.391405" y="275.93564" style="fill: #8b008b; stroke: #8b008b; stroke-linejoin: miter"/>
     <use xlink:href="#mc2e2b65dc3" x="83.670744" y="279.518652" style="fill: #8b008b; stroke: #8b008b; stroke-linejoin: miter"/>
     <use xlink:href="#mc2e2b65dc3" x="86.950083" y="273.648384" style="fill: #8b008b; stroke: #8b008b; stroke-linejoin: miter"/>
     <use xlink:href="#mc2e2b65dc3" x="90.229421" y="281.382885" style="fill: #8b008b; stroke: #8b008b; stroke-linejoin: miter"/>
     <use xlink:href="#mc2e2b65dc3" x="93.50876" y="277.564989" style="fill: #8b008b; stroke: #8b008b; stroke-linejoin: miter"/>
     <use xlink:href="#mc2e2b65dc3" x="96.788099" y="245.749744" style="fill: #8b008b; stroke: #8b008b; stroke-linejoin: miter"/>
     <use xlink:href="#mc2e2b65dc3" x="100.067438" y="290.958644" style="fill: #8b008b; stroke: #8b008b; stroke-linejoin: miter"/>
     <use xlink:href="#mc2e2b65dc3" x="103.346777" y="293.882246" style="fill: #8b008b; stroke: #8b008b; stroke-linejoin: miter"/>
     <use xlink:href="#mc2e2b65dc3" x="106.626116" y="275.602754" style="fill: #8b008b; stroke: #8b008b; stroke-linejoin: miter"/>
     <use xlink:href="#mc2e2b65dc3" x="109.905455" y="291.918862" style="fill: #8b008b; stroke: #8b008b; stroke-linejoin: miter"/>
     <use xlink:href="#mc2e2b65dc3" x="113.184793" y="285.094032" style="fill: #8b008b; stroke: #8b008b; stroke-linejoin: miter"/>
     <use xlink:href="#mc2e2b65dc3" x="116.464132" y="292.260851" style="fill: #8b008b; stroke: #8b008b; stroke-linejoin: miter"/>
     <use xlink:href="#mc2e2b65dc3" x="119.743471" y="280.415244" style="fill: #8b008b; stroke: #8b008b; stroke-linejoin: miter"/>
     <use xlink:href="#mc2e2b65dc3" x="123.02281" y="290.345098" style="fill: #8b008b; stroke: #8b008b; stroke-linejoin: miter"/>
     <use xlink:href="#mc2e2b65dc3" x="126.302149" y="279.348453" style="fill: #8b008b; stroke: #8b008b; stroke-linejoin: miter"/>
     <use xlink:href="#mc2e2b65dc3" x="129.581488" y="287.672818" style="fill: #8b008b; stroke: #8b008b; stroke-linejoin: miter"/>
     <use xlink:href="#mc2e2b65dc3" x="132.860826" y="292.908507" style="fill: #8b008b; stroke: #8b008b; stroke-linejoin: miter"/>
     <use xlink:href="#mc2e2b65dc3" x="136.140165" y="287.686868" style="fill: #8b008b; stroke: #8b008b; stroke-linejoin: miter"/>
     <use xlink:href="#mc2e2b65dc3" x="139.419504" y="288.800495" style="fill: #8b008b; stroke: #8b008b; stroke-linejoin: miter"/>
     <use xlink:href="#mc2e2b65dc3" x="142.698843" y="266.637537" style="fill: #8b008b; stroke: #8b008b; stroke-linejoin: miter"/>
     <use xlink:href="#mc2e2b65dc3" x="145.978182" y="294.318082" style="fill: #8b008b; stroke: #8b008b; stroke-linejoin: miter"/>
     <use xlink:href="#mc2e2b65dc3" x="149.257521" y="286.44493" style="fill: #8b008b; stroke: #8b008b; stroke-linejoin: miter"/>
     <use xlink:href="#mc2e2b65dc3" x="152.53686" y="293.575782" style="fill: #8b008b; stroke: #8b008b; stroke-linejoin: miter"/>
     <use xlink:href="#mc2e2b65dc3" x="155.816198" y="285.878749" style="fill: #8b008b; stroke: #8b008b; stroke-linejoin: miter"/>
     <use xlink:href="#mc2e2b65dc3" x="159.095537" y="290.484191" style="fill: #8b008b; stroke: #8b008b; stroke-linejoin: miter"/>
     <use xlink:href="#mc2e2b65dc3" x="162.374876" y="283.21778" style="fill: #8b008b; stroke: #8b008b; stroke-linejoin: miter"/>
     <use xlink:href="#mc2e2b65dc3" x="165.654215" y="295.27671" style="fill: #8b008b; stroke: #8b008b; stroke-linejoin: miter"/>
     <use xlink:href="#mc2e2b65dc3" x="168.933554" y="293.780622" style="fill: #8b008b; stroke: #8b008b; stroke-linejoin: miter"/>
     <use xlink:href="#mc2e2b65dc3" x="172.212893" y="287.718063" style="fill: #8b008b; stroke: #8b008b; stroke-linejoin: miter"/>
     <use xlink:href="#mc2e2b65dc3" x="175.492231" y="293.670779" style="fill: #8b008b; stroke: #8b008b; stroke-linejoin: miter"/>
     <use xlink:href="#mc2e2b65dc3" x="178.77157" y="290.409607" style="fill: #8b008b; stroke: #8b008b; stroke-linejoin: miter"/>
     <use xlink:href="#mc2e2b65dc3" x="182.050909" y="293.307582" style="fill: #8b008b; stroke: #8b008b; stroke-linejoin: miter"/>
     <use xlink:href="#mc2e2b65dc3" x="185.330248" y="288.335144" style="fill: #8b008b; stroke: #8b008b; stroke-linejoin: miter"/>
     <use xlink:href="#mc2e2b65dc3" x="188.609587" y="292.698543" style="fill: #8b008b; stroke: #8b008b; stroke-linejoin: miter"/>
     <use xlink:href="#mc2e2b65dc3" x="191.888926" y="288.959118" style="fill: #8b008b; stroke: #8b008b; stroke-linejoin: miter"/>
     <use xlink:href="#mc2e2b65dc3" x="195.168264" y="288.578954" style="fill: #8b008b; stroke: #8b008b; stroke-linejoin: miter"/>
     <use xlink:href="#mc2e2b65dc3" x="198.447603" y="292.560157" style="fill: #8b008b; stroke: #8b008b; stroke-linejoin: miter"/>
     <use xlink:href="#mc2e2b65dc3" x="201.726942" y="285.834476" style="fill: #8b008b; stroke: #8b008b; stroke-linejoin: miter"/>
     <use xlink:href="#mc2e2b65dc3" x="205.006281" y="276.127401" style="fill: #8b008b; stroke: #8b008b; stroke-linejoin: miter"/>
     <use xlink:href="#mc2e2b65dc3" x="208.28562" y="289.490746" style="fill: #8b008b; stroke: #8b008b; stroke-linejoin: miter"/>
     <use xlink:href="#mc2e2b65dc3" x="211.564959" y="285.065931" style="fill: #8b008b; stroke: #8b008b; stroke-linejoin: miter"/>
     <use xlink:href="#mc2e2b65dc3" x="214.844298" y="286.883505" style="fill: #8b008b; stroke: #8b008b; stroke-linejoin: miter"/>
     <use xlink:href="#mc2e2b65dc3" x="218.123636" y="283.322851" style="fill: #8b008b; stroke: #8b008b; stroke-linejoin: miter"/>
     <use xlink:href="#mc2e2b65dc3" x="221.402975" y="290.695216" style="fill: #8b008b; stroke: #8b008b; stroke-linejoin: miter"/>
     <use xlink:href="#mc2e2b65dc3" x="224.682314" y="289.367736" style="fill: #8b008b; stroke: #8b008b; stroke-linejoin: miter"/>
     <use xlink:href="#mc2e2b65dc3" x="227.961653" y="280.458368" style="fill: #8b008b; stroke: #8b008b; stroke-linejoin: miter"/>
     <use xlink:href="#mc2e2b65dc3" x="231.240992" y="293.651603" style="fill: #8b008b; stroke: #8b008b; stroke-linejoin: miter"/>
     <use xlink:href="#mc2e2b65dc3" x="234.520331" y="293.557755" style="fill: #8b008b; stroke: #8b008b; stroke-linejoin: miter"/>
     <use xlink:href="#mc2e2b65dc3" x="237.799669" y="288.659988" style="fill: #8b008b; stroke: #8b008b; stroke-linejoin: miter"/>
     <use xlink:href="#mc2e2b65dc3" x="241.079008" y="294.315166" style="fill: #8b008b; stroke: #8b008b; stroke-linejoin: miter"/>
     <use xlink:href="#mc2e2b65dc3" x="244.358347" y="294.502597" style="fill: #8b008b; stroke: #8b008b; stroke-linejoin: miter"/>
     <use xlink:href="#mc2e2b65dc3" x="247.637686" y="288.049447" style="fill: #8b008b; stroke: #8b008b; stroke-linejoin: miter"/>
     <use xlink:href="#mc2e2b65dc3" x="250.917025" y="283.538472" style="fill: #8b008b; stroke: #8b008b; stroke-linejoin: miter"/>
     <use xlink:href="#mc2e2b65dc3" x="254.196364" y="291.975684" style="fill: #8b008b; stroke: #8b008b; stroke-linejoin: miter"/>
     <use xlink:href="#mc2e2b65dc3" x="257.475702" y="279.552674" style="fill: #8b008b; stroke: #8b008b; stroke-linejoin: miter"/>
     <use xlink:href="#mc2e2b65dc3" x="260.755041" y="290.605345" style="fill: #8b008b; stroke: #8b008b; stroke-linejoin: miter"/>
     <use xlink:href="#mc2e2b65dc3" x="264.03438" y="285.539766" style="fill: #8b008b; stroke: #8b008b; stroke-linejoin: miter"/>
     <use xlink:href="#mc2e2b65dc3" x="267.313719" y="288.09964" style="fill: #8b008b; stroke: #8b008b; stroke-linejoin: miter"/>
     <use xlink:href="#mc2e2b65dc3" x="270.593058" y="289.38647" style="fill: #8b008b; stroke: #8b008b; stroke-linejoin: miter"/>
     <use xlink:href="#mc2e2b65dc3" x="273.872397" y="257.438407" style="fill: #8b008b; stroke: #8b008b; stroke-linejoin: miter"/>
     <use xlink:href="#mc2e2b65dc3" x="277.151736" y="230.227897" style="fill: #8b008b; stroke: #8b008b; stroke-linejoin: miter"/>
     <use xlink:href="#mc2e2b65dc3" x="280.431074" y="248.23371" style="fill: #8b008b; stroke: #8b008b; stroke-linejoin: miter"/>
     <use xlink:href="#mc2e2b65dc3" x="283.710413" y="207.125311" style="fill: #8b008b; stroke: #8b008b; stroke-linejoin: miter"/>
     <use xlink:href="#mc2e2b65dc3" x="286.989752" y="246.318311" style="fill: #8b008b; stroke: #8b008b; stroke-linejoin: miter"/>
     <use xlink:href="#mc2e2b65dc3" x="290.269091" y="274.017325" style="fill: #8b008b; stroke: #8b008b; stroke-linejoin: miter"/>
     <use xlink:href="#mc2e2b65dc3" x="293.54843" y="295.110841" style="fill: #8b008b; stroke: #8b008b; stroke-linejoin: miter"/>
     <use xlink:href="#mc2e2b65dc3" x="296.827769" y="284.19364" style="fill: #8b008b; stroke: #8b008b; stroke-linejoin: miter"/>
     <use xlink:href="#mc2e2b65dc3" x="300.107107" y="292.639335" style="fill: #8b008b; stroke: #8b008b; stroke-linejoin: miter"/>
     <use xlink:href="#mc2e2b65dc3" x="303.386446" y="295.072047" style="fill: #8b008b; stroke: #8b008b; stroke-linejoin: miter"/>
     <use xlink:href="#mc2e2b65dc3" x="306.665785" y="290.556919" style="fill: #8b008b; stroke: #8b008b; stroke-linejoin: miter"/>
     <use xlink:href="#mc2e2b65dc3" x="309.945124" y="274.750169" style="fill: #8b008b; stroke: #8b008b; stroke-linejoin: miter"/>
     <use xlink:href="#mc2e2b65dc3" x="313.224463" y="289.533075" style="fill: #8b008b; stroke: #8b008b; stroke-linejoin: miter"/>
     <use xlink:href="#mc2e2b65dc3" x="316.503802" y="284.672954" style="fill: #8b008b; stroke: #8b008b; stroke-linejoin: miter"/>
     <use xlink:href="#mc2e2b65dc3" x="319.78314" y="293.378012" style="fill: #8b008b; stroke: #8b008b; stroke-linejoin: miter"/>
     <use xlink:href="#mc2e2b65dc3" x="323.062479" y="281.916458" style="fill: #8b008b; stroke: #8b008b; stroke-linejoin: miter"/>
     <use xlink:href="#mc2e2b65dc3" x="326.341818" y="295.488" style="fill: #8b008b; stroke: #8b008b; stroke-linejoin: miter"/>
     <use xlink:href="#mc2e2b65dc3" x="329.621157" y="293.960011" style="fill: #8b008b; stroke: #8b008b; stroke-linejoin: miter"/>
     <use xlink:href="#mc2e2b65dc3" x="332.900496" y="295.33627" style="fill: #8b008b; stroke: #8b008b; stroke-linejoin: miter"/>
     <use xlink:href="#mc2e2b65dc3" x="336.179835" y="294.239964" style="fill: #8b008b; stroke: #8b008b; stroke-linejoin: miter"/>
     <use xlink:href="#mc2e2b65dc3" x="339.459174" y="287.839217" style="fill: #8b008b; stroke: #8b008b; stroke-linejoin: miter"/>
     <use xlink:href="#mc2e2b65dc3" x="342.738512" y="286.244597" style="fill: #8b008b; stroke: #8b008b; stroke-linejoin: miter"/>
     <use xlink:href="#mc2e2b65dc3" x="346.017851" y="293.498459" style="fill: #8b008b; stroke: #8b008b; stroke-linejoin: miter"/>
     <use xlink:href="#mc2e2b65dc3" x="349.29719" y="293.139946" style="fill: #8b008b; stroke: #8b008b; stroke-linejoin: miter"/>
     <use xlink:href="#mc2e2b65dc3" x="352.576529" y="290.048355" style="fill: #8b008b; stroke: #8b008b; stroke-linejoin: miter"/>
     <use xlink:href="#mc2e2b65dc3" x="355.855868" y="286.727004" style="fill: #8b008b; stroke: #8b008b; stroke-linejoin: miter"/>
     <use xlink:href="#mc2e2b65dc3" x="359.135207" y="286.081026" style="fill: #8b008b; stroke: #8b008b; stroke-linejoin: miter"/>
     <use xlink:href="#mc2e2b65dc3" x="362.414545" y="280.230288" style="fill: #8b008b; stroke: #8b008b; stroke-linejoin: miter"/>
     <use xlink:href="#mc2e2b65dc3" x="365.693884" y="280.193261" style="fill: #8b008b; stroke: #8b008b; stroke-linejoin: miter"/>
     <use xlink:href="#mc2e2b65dc3" x="368.973223" y="292.087647" style="fill: #8b008b; stroke: #8b008b; stroke-linejoin: miter"/>
     <use xlink:href="#mc2e2b65dc3" x="372.252562" y="290.998675" style="fill: #8b008b; stroke: #8b008b; stroke-linejoin: miter"/>
     <use xlink:href="#mc2e2b65dc3" x="375.531901" y="291.808489" style="fill: #8b008b; stroke: #8b008b; stroke-linejoin: miter"/>
     <use xlink:href="#mc2e2b65dc3" x="378.81124" y="290.291811" style="fill: #8b008b; stroke: #8b008b; stroke-linejoin: miter"/>
     <use xlink:href="#mc2e2b65dc3" x="382.090579" y="281.963028" style="fill: #8b008b; stroke: #8b008b; stroke-linejoin: miter"/>
     <use xlink:href="#mc2e2b65dc3" x="385.369917" y="291.672489" style="fill: #8b008b; stroke: #8b008b; stroke-linejoin: miter"/>
     <use xlink:href="#mc2e2b65dc3" x="388.649256" y="294.784317" style="fill: #8b008b; stroke: #8b008b; stroke-linejoin: miter"/>
     <use xlink:href="#mc2e2b65dc3" x="391.928595" y="293.253412" style="fill: #8b008b; stroke: #8b008b; stroke-linejoin: miter"/>
     <use xlink:href="#mc2e2b65dc3" x="395.207934" y="281.619538" style="fill: #8b008b; stroke: #8b008b; stroke-linejoin: miter"/>
     <use xlink:href="#mc2e2b65dc3" x="398.487273" y="292.233103" style="fill: #8b008b; stroke: #8b008b; stroke-linejoin: miter"/>
    </g>
   </g>
   <g id="line2d_26">
    <path d="M 73.832727 179.548688 
L 77.112066 142.260483 
L 80.391405 177.107581 
L 83.670744 179.57838 
L 86.950083 181.965935 
L 90.229421 158.893836 
L 93.50876 151.812558 
L 96.788099 169.792921 
L 100.067438 203.576851 
L 103.346777 197.123613 
L 106.626116 199.549785 
L 109.905455 200.583261 
L 113.184793 177.726783 
L 116.464132 189.828748 
L 119.743471 198.865279 
L 123.02281 201.990185 
L 126.302149 192.775414 
L 129.581488 186.434758 
L 132.860826 198.406908 
L 136.140165 210.414937 
L 139.419504 195.742228 
L 142.698843 201.393782 
L 145.978182 190.302141 
L 149.257521 206.51203 
L 152.53686 200.055963 
L 155.816198 204.692864 
L 159.095537 203.516584 
L 162.374876 189.989049 
L 165.654215 212.543129 
L 168.933554 201.362323 
L 172.212893 214.841166 
L 175.492231 203.436521 
L 178.77157 205.978546 
L 182.050909 201.497174 
L 185.330248 173.634059 
L 188.609587 196.335891 
L 191.888926 210.315168 
L 195.168264 205.357223 
L 198.447603 207.56804 
L 201.726942 205.694527 
L 205.006281 183.640352 
L 208.28562 205.044573 
L 211.564959 191.368137 
L 214.844298 210.852541 
L 218.123636 203.719126 
L 221.402975 216.592906 
L 224.682314 216.705488 
L 227.961653 172.725536 
L 231.240992 199.702134 
L 234.520331 205.216274 
L 237.799669 207.359577 
L 241.079008 197.485219 
L 244.358347 193.22424 
L 247.637686 207.715351 
L 250.917025 200.382222 
L 254.196364 206.312492 
L 257.475702 202.387934 
L 260.755041 208.760492 
L 264.03438 194.10475 
L 267.313719 128.408192 
L 270.593058 165.879233 
L 273.872397 100.049414 
L 277.151736 169.554767 
L 280.431074 150.346604 
L 283.710413 53.568 
L 286.989752 113.604873 
L 290.269091 182.010384 
L 293.54843 195.648292 
L 296.827769 198.677406 
L 300.107107 201.305148 
L 303.386446 205.905199 
L 306.665785 198.275239 
L 309.945124 175.826495 
L 313.224463 182.42943 
L 316.503802 202.207573 
L 319.78314 207.38273 
L 323.062479 207.480466 
L 326.341818 188.805523 
L 329.621157 200.304192 
L 332.900496 217.461309 
L 336.179835 195.278997 
L 339.459174 199.810032 
L 342.738512 200.538193 
L 346.017851 203.838777 
L 349.29719 196.905076 
L 352.576529 206.463957 
L 355.855868 206.42693 
L 359.135207 186.076068 
L 362.414545 174.789219 
L 365.693884 198.107868 
L 368.973223 209.642415 
L 372.252562 204.131544 
L 375.531901 192.018003 
L 378.81124 206.419684 
L 382.090579 199.293957 
L 385.369917 192.770907 
L 388.649256 199.412106 
L 391.928595 199.517177 
L 395.207934 192.127227 
L 398.487273 204.88436 
" clip-path="url(#p6ff8155f2a)" style="fill: none; stroke: #ffd700; stroke-width: 1.5; stroke-linecap: square"/>
    <defs>
     <path id="m9f4d131f41" d="M 0 -3 
L -0.673542 -0.927051 
L -2.85317 -0.927051 
L -1.089814 0.354102 
L -1.763356 2.427051 
L -0 1.145898 
L 1.763356 2.427051 
L 1.089814 0.354102 
L 2.85317 -0.927051 
L 0.673542 -0.927051 
z
" style="stroke: #ffd700; stroke-linejoin: bevel"/>
    </defs>
    <g clip-path="url(#p6ff8155f2a)">
     <use xlink:href="#m9f4d131f41" x="73.832727" y="179.548688" style="fill: #ffd700; stroke: #ffd700; stroke-linejoin: bevel"/>
     <use xlink:href="#m9f4d131f41" x="77.112066" y="142.260483" style="fill: #ffd700; stroke: #ffd700; stroke-linejoin: bevel"/>
     <use xlink:href="#m9f4d131f41" x="80.391405" y="177.107581" style="fill: #ffd700; stroke: #ffd700; stroke-linejoin: bevel"/>
     <use xlink:href="#m9f4d131f41" x="83.670744" y="179.57838" style="fill: #ffd700; stroke: #ffd700; stroke-linejoin: bevel"/>
     <use xlink:href="#m9f4d131f41" x="86.950083" y="181.965935" style="fill: #ffd700; stroke: #ffd700; stroke-linejoin: bevel"/>
     <use xlink:href="#m9f4d131f41" x="90.229421" y="158.893836" style="fill: #ffd700; stroke: #ffd700; stroke-linejoin: bevel"/>
     <use xlink:href="#m9f4d131f41" x="93.50876" y="151.812558" style="fill: #ffd700; stroke: #ffd700; stroke-linejoin: bevel"/>
     <use xlink:href="#m9f4d131f41" x="96.788099" y="169.792921" style="fill: #ffd700; stroke: #ffd700; stroke-linejoin: bevel"/>
     <use xlink:href="#m9f4d131f41" x="100.067438" y="203.576851" style="fill: #ffd700; stroke: #ffd700; stroke-linejoin: bevel"/>
     <use xlink:href="#m9f4d131f41" x="103.346777" y="197.123613" style="fill: #ffd700; stroke: #ffd700; stroke-linejoin: bevel"/>
     <use xlink:href="#m9f4d131f41" x="106.626116" y="199.549785" style="fill: #ffd700; stroke: #ffd700; stroke-linejoin: bevel"/>
     <use xlink:href="#m9f4d131f41" x="109.905455" y="200.583261" style="fill: #ffd700; stroke: #ffd700; stroke-linejoin: bevel"/>
     <use xlink:href="#m9f4d131f41" x="113.184793" y="177.726783" style="fill: #ffd700; stroke: #ffd700; stroke-linejoin: bevel"/>
     <use xlink:href="#m9f4d131f41" x="116.464132" y="189.828748" style="fill: #ffd700; stroke: #ffd700; stroke-linejoin: bevel"/>
     <use xlink:href="#m9f4d131f41" x="119.743471" y="198.865279" style="fill: #ffd700; stroke: #ffd700; stroke-linejoin: bevel"/>
     <use xlink:href="#m9f4d131f41" x="123.02281" y="201.990185" style="fill: #ffd700; stroke: #ffd700; stroke-linejoin: bevel"/>
     <use xlink:href="#m9f4d131f41" x="126.302149" y="192.775414" style="fill: #ffd700; stroke: #ffd700; stroke-linejoin: bevel"/>
     <use xlink:href="#m9f4d131f41" x="129.581488" y="186.434758" style="fill: #ffd700; stroke: #ffd700; stroke-linejoin: bevel"/>
     <use xlink:href="#m9f4d131f41" x="132.860826" y="198.406908" style="fill: #ffd700; stroke: #ffd700; stroke-linejoin: bevel"/>
     <use xlink:href="#m9f4d131f41" x="136.140165" y="210.414937" style="fill: #ffd700; stroke: #ffd700; stroke-linejoin: bevel"/>
     <use xlink:href="#m9f4d131f41" x="139.419504" y="195.742228" style="fill: #ffd700; stroke: #ffd700; stroke-linejoin: bevel"/>
     <use xlink:href="#m9f4d131f41" x="142.698843" y="201.393782" style="fill: #ffd700; stroke: #ffd700; stroke-linejoin: bevel"/>
     <use xlink:href="#m9f4d131f41" x="145.978182" y="190.302141" style="fill: #ffd700; stroke: #ffd700; stroke-linejoin: bevel"/>
     <use xlink:href="#m9f4d131f41" x="149.257521" y="206.51203" style="fill: #ffd700; stroke: #ffd700; stroke-linejoin: bevel"/>
     <use xlink:href="#m9f4d131f41" x="152.53686" y="200.055963" style="fill: #ffd700; stroke: #ffd700; stroke-linejoin: bevel"/>
     <use xlink:href="#m9f4d131f41" x="155.816198" y="204.692864" style="fill: #ffd700; stroke: #ffd700; stroke-linejoin: bevel"/>
     <use xlink:href="#m9f4d131f41" x="159.095537" y="203.516584" style="fill: #ffd700; stroke: #ffd700; stroke-linejoin: bevel"/>
     <use xlink:href="#m9f4d131f41" x="162.374876" y="189.989049" style="fill: #ffd700; stroke: #ffd700; stroke-linejoin: bevel"/>
     <use xlink:href="#m9f4d131f41" x="165.654215" y="212.543129" style="fill: #ffd700; stroke: #ffd700; stroke-linejoin: bevel"/>
     <use xlink:href="#m9f4d131f41" x="168.933554" y="201.362323" style="fill: #ffd700; stroke: #ffd700; stroke-linejoin: bevel"/>
     <use xlink:href="#m9f4d131f41" x="172.212893" y="214.841166" style="fill: #ffd700; stroke: #ffd700; stroke-linejoin: bevel"/>
     <use xlink:href="#m9f4d131f41" x="175.492231" y="203.436521" style="fill: #ffd700; stroke: #ffd700; stroke-linejoin: bevel"/>
     <use xlink:href="#m9f4d131f41" x="178.77157" y="205.978546" style="fill: #ffd700; stroke: #ffd700; stroke-linejoin: bevel"/>
     <use xlink:href="#m9f4d131f41" x="182.050909" y="201.497174" style="fill: #ffd700; stroke: #ffd700; stroke-linejoin: bevel"/>
     <use xlink:href="#m9f4d131f41" x="185.330248" y="173.634059" style="fill: #ffd700; stroke: #ffd700; stroke-linejoin: bevel"/>
     <use xlink:href="#m9f4d131f41" x="188.609587" y="196.335891" style="fill: #ffd700; stroke: #ffd700; stroke-linejoin: bevel"/>
     <use xlink:href="#m9f4d131f41" x="191.888926" y="210.315168" style="fill: #ffd700; stroke: #ffd700; stroke-linejoin: bevel"/>
     <use xlink:href="#m9f4d131f41" x="195.168264" y="205.357223" style="fill: #ffd700; stroke: #ffd700; stroke-linejoin: bevel"/>
     <use xlink:href="#m9f4d131f41" x="198.447603" y="207.56804" style="fill: #ffd700; stroke: #ffd700; stroke-linejoin: bevel"/>
     <use xlink:href="#m9f4d131f41" x="201.726942" y="205.694527" style="fill: #ffd700; stroke: #ffd700; stroke-linejoin: bevel"/>
     <use xlink:href="#m9f4d131f41" x="205.006281" y="183.640352" style="fill: #ffd700; stroke: #ffd700; stroke-linejoin: bevel"/>
     <use xlink:href="#m9f4d131f41" x="208.28562" y="205.044573" style="fill: #ffd700; stroke: #ffd700; stroke-linejoin: bevel"/>
     <use xlink:href="#m9f4d131f41" x="211.564959" y="191.368137" style="fill: #ffd700; stroke: #ffd700; stroke-linejoin: bevel"/>
     <use xlink:href="#m9f4d131f41" x="214.844298" y="210.852541" style="fill: #ffd700; stroke: #ffd700; stroke-linejoin: bevel"/>
     <use xlink:href="#m9f4d131f41" x="218.123636" y="203.719126" style="fill: #ffd700; stroke: #ffd700; stroke-linejoin: bevel"/>
     <use xlink:href="#m9f4d131f41" x="221.402975" y="216.592906" style="fill: #ffd700; stroke: #ffd700; stroke-linejoin: bevel"/>
     <use xlink:href="#m9f4d131f41" x="224.682314" y="216.705488" style="fill: #ffd700; stroke: #ffd700; stroke-linejoin: bevel"/>
     <use xlink:href="#m9f4d131f41" x="227.961653" y="172.725536" style="fill: #ffd700; stroke: #ffd700; stroke-linejoin: bevel"/>
     <use xlink:href="#m9f4d131f41" x="231.240992" y="199.702134" style="fill: #ffd700; stroke: #ffd700; stroke-linejoin: bevel"/>
     <use xlink:href="#m9f4d131f41" x="234.520331" y="205.216274" style="fill: #ffd700; stroke: #ffd700; stroke-linejoin: bevel"/>
     <use xlink:href="#m9f4d131f41" x="237.799669" y="207.359577" style="fill: #ffd700; stroke: #ffd700; stroke-linejoin: bevel"/>
     <use xlink:href="#m9f4d131f41" x="241.079008" y="197.485219" style="fill: #ffd700; stroke: #ffd700; stroke-linejoin: bevel"/>
     <use xlink:href="#m9f4d131f41" x="244.358347" y="193.22424" style="fill: #ffd700; stroke: #ffd700; stroke-linejoin: bevel"/>
     <use xlink:href="#m9f4d131f41" x="247.637686" y="207.715351" style="fill: #ffd700; stroke: #ffd700; stroke-linejoin: bevel"/>
     <use xlink:href="#m9f4d131f41" x="250.917025" y="200.382222" style="fill: #ffd700; stroke: #ffd700; stroke-linejoin: bevel"/>
     <use xlink:href="#m9f4d131f41" x="254.196364" y="206.312492" style="fill: #ffd700; stroke: #ffd700; stroke-linejoin: bevel"/>
     <use xlink:href="#m9f4d131f41" x="257.475702" y="202.387934" style="fill: #ffd700; stroke: #ffd700; stroke-linejoin: bevel"/>
     <use xlink:href="#m9f4d131f41" x="260.755041" y="208.760492" style="fill: #ffd700; stroke: #ffd700; stroke-linejoin: bevel"/>
     <use xlink:href="#m9f4d131f41" x="264.03438" y="194.10475" style="fill: #ffd700; stroke: #ffd700; stroke-linejoin: bevel"/>
     <use xlink:href="#m9f4d131f41" x="267.313719" y="128.408192" style="fill: #ffd700; stroke: #ffd700; stroke-linejoin: bevel"/>
     <use xlink:href="#m9f4d131f41" x="270.593058" y="165.879233" style="fill: #ffd700; stroke: #ffd700; stroke-linejoin: bevel"/>
     <use xlink:href="#m9f4d131f41" x="273.872397" y="100.049414" style="fill: #ffd700; stroke: #ffd700; stroke-linejoin: bevel"/>
     <use xlink:href="#m9f4d131f41" x="277.151736" y="169.554767" style="fill: #ffd700; stroke: #ffd700; stroke-linejoin: bevel"/>
     <use xlink:href="#m9f4d131f41" x="280.431074" y="150.346604" style="fill: #ffd700; stroke: #ffd700; stroke-linejoin: bevel"/>
     <use xlink:href="#m9f4d131f41" x="283.710413" y="53.568" style="fill: #ffd700; stroke: #ffd700; stroke-linejoin: bevel"/>
     <use xlink:href="#m9f4d131f41" x="286.989752" y="113.604873" style="fill: #ffd700; stroke: #ffd700; stroke-linejoin: bevel"/>
     <use xlink:href="#m9f4d131f41" x="290.269091" y="182.010384" style="fill: #ffd700; stroke: #ffd700; stroke-linejoin: bevel"/>
     <use xlink:href="#m9f4d131f41" x="293.54843" y="195.648292" style="fill: #ffd700; stroke: #ffd700; stroke-linejoin: bevel"/>
     <use xlink:href="#m9f4d131f41" x="296.827769" y="198.677406" style="fill: #ffd700; stroke: #ffd700; stroke-linejoin: bevel"/>
     <use xlink:href="#m9f4d131f41" x="300.107107" y="201.305148" style="fill: #ffd700; stroke: #ffd700; stroke-linejoin: bevel"/>
     <use xlink:href="#m9f4d131f41" x="303.386446" y="205.905199" style="fill: #ffd700; stroke: #ffd700; stroke-linejoin: bevel"/>
     <use xlink:href="#m9f4d131f41" x="306.665785" y="198.275239" style="fill: #ffd700; stroke: #ffd700; stroke-linejoin: bevel"/>
     <use xlink:href="#m9f4d131f41" x="309.945124" y="175.826495" style="fill: #ffd700; stroke: #ffd700; stroke-linejoin: bevel"/>
     <use xlink:href="#m9f4d131f41" x="313.224463" y="182.42943" style="fill: #ffd700; stroke: #ffd700; stroke-linejoin: bevel"/>
     <use xlink:href="#m9f4d131f41" x="316.503802" y="202.207573" style="fill: #ffd700; stroke: #ffd700; stroke-linejoin: bevel"/>
     <use xlink:href="#m9f4d131f41" x="319.78314" y="207.38273" style="fill: #ffd700; stroke: #ffd700; stroke-linejoin: bevel"/>
     <use xlink:href="#m9f4d131f41" x="323.062479" y="207.480466" style="fill: #ffd700; stroke: #ffd700; stroke-linejoin: bevel"/>
     <use xlink:href="#m9f4d131f41" x="326.341818" y="188.805523" style="fill: #ffd700; stroke: #ffd700; stroke-linejoin: bevel"/>
     <use xlink:href="#m9f4d131f41" x="329.621157" y="200.304192" style="fill: #ffd700; stroke: #ffd700; stroke-linejoin: bevel"/>
     <use xlink:href="#m9f4d131f41" x="332.900496" y="217.461309" style="fill: #ffd700; stroke: #ffd700; stroke-linejoin: bevel"/>
     <use xlink:href="#m9f4d131f41" x="336.179835" y="195.278997" style="fill: #ffd700; stroke: #ffd700; stroke-linejoin: bevel"/>
     <use xlink:href="#m9f4d131f41" x="339.459174" y="199.810032" style="fill: #ffd700; stroke: #ffd700; stroke-linejoin: bevel"/>
     <use xlink:href="#m9f4d131f41" x="342.738512" y="200.538193" style="fill: #ffd700; stroke: #ffd700; stroke-linejoin: bevel"/>
     <use xlink:href="#m9f4d131f41" x="346.017851" y="203.838777" style="fill: #ffd700; stroke: #ffd700; stroke-linejoin: bevel"/>
     <use xlink:href="#m9f4d131f41" x="349.29719" y="196.905076" style="fill: #ffd700; stroke: #ffd700; stroke-linejoin: bevel"/>
     <use xlink:href="#m9f4d131f41" x="352.576529" y="206.463957" style="fill: #ffd700; stroke: #ffd700; stroke-linejoin: bevel"/>
     <use xlink:href="#m9f4d131f41" x="355.855868" y="206.42693" style="fill: #ffd700; stroke: #ffd700; stroke-linejoin: bevel"/>
     <use xlink:href="#m9f4d131f41" x="359.135207" y="186.076068" style="fill: #ffd700; stroke: #ffd700; stroke-linejoin: bevel"/>
     <use xlink:href="#m9f4d131f41" x="362.414545" y="174.789219" style="fill: #ffd700; stroke: #ffd700; stroke-linejoin: bevel"/>
     <use xlink:href="#m9f4d131f41" x="365.693884" y="198.107868" style="fill: #ffd700; stroke: #ffd700; stroke-linejoin: bevel"/>
     <use xlink:href="#m9f4d131f41" x="368.973223" y="209.642415" style="fill: #ffd700; stroke: #ffd700; stroke-linejoin: bevel"/>
     <use xlink:href="#m9f4d131f41" x="372.252562" y="204.131544" style="fill: #ffd700; stroke: #ffd700; stroke-linejoin: bevel"/>
     <use xlink:href="#m9f4d131f41" x="375.531901" y="192.018003" style="fill: #ffd700; stroke: #ffd700; stroke-linejoin: bevel"/>
     <use xlink:href="#m9f4d131f41" x="378.81124" y="206.419684" style="fill: #ffd700; stroke: #ffd700; stroke-linejoin: bevel"/>
     <use xlink:href="#m9f4d131f41" x="382.090579" y="199.293957" style="fill: #ffd700; stroke: #ffd700; stroke-linejoin: bevel"/>
     <use xlink:href="#m9f4d131f41" x="385.369917" y="192.770907" style="fill: #ffd700; stroke: #ffd700; stroke-linejoin: bevel"/>
     <use xlink:href="#m9f4d131f41" x="388.649256" y="199.412106" style="fill: #ffd700; stroke: #ffd700; stroke-linejoin: bevel"/>
     <use xlink:href="#m9f4d131f41" x="391.928595" y="199.517177" style="fill: #ffd700; stroke: #ffd700; stroke-linejoin: bevel"/>
     <use xlink:href="#m9f4d131f41" x="395.207934" y="192.127227" style="fill: #ffd700; stroke: #ffd700; stroke-linejoin: bevel"/>
     <use xlink:href="#m9f4d131f41" x="398.487273" y="204.88436" style="fill: #ffd700; stroke: #ffd700; stroke-linejoin: bevel"/>
    </g>
   </g>
   <g id="patch_3">
    <path d="M 57.6 307.584 
L 57.6 41.472 
" style="fill: none; stroke: #000000; stroke-width: 0.8; stroke-linejoin: miter; stroke-linecap: square"/>
   </g>
   <g id="patch_4">
    <path d="M 414.72 307.584 
L 414.72 41.472 
" style="fill: none; stroke: #000000; stroke-width: 0.8; stroke-linejoin: miter; stroke-linecap: square"/>
   </g>
   <g id="patch_5">
    <path d="M 57.6 307.584 
L 414.72 307.584 
" style="fill: none; stroke: #000000; stroke-width: 0.8; stroke-linejoin: miter; stroke-linecap: square"/>
   </g>
   <g id="patch_6">
    <path d="M 57.6 41.472 
L 414.72 41.472 
" style="fill: none; stroke: #000000; stroke-width: 0.8; stroke-linejoin: miter; stroke-linecap: square"/>
   </g>
   <g id="text_16">
    <!-- Get client NsPerOp -->
    <g transform="translate(179.468437 35.472) scale(0.12 -0.12)">
     <defs>
      <path id="DejaVuSans-47" d="M 3809 666 
L 3809 1919 
L 2778 1919 
L 2778 2438 
L 4434 2438 
L 4434 434 
Q 4069 175 3628 42 
Q 3188 -91 2688 -91 
Q 1594 -91 976 548 
Q 359 1188 359 2328 
Q 359 3472 976 4111 
Q 1594 4750 2688 4750 
Q 3144 4750 3555 4637 
Q 3966 4525 4313 4306 
L 4313 3634 
Q 3963 3931 3569 4081 
Q 3175 4231 2741 4231 
Q 1884 4231 1454 3753 
Q 1025 3275 1025 2328 
Q 1025 1384 1454 906 
Q 1884 428 2741 428 
Q 3075 428 3337 486 
Q 3600 544 3809 666 
z
" transform="scale(0.015625)"/>
      <path id="DejaVuSans-74" d="M 1172 4494 
L 1172 3500 
L 2356 3500 
L 2356 3053 
L 1172 3053 
L 1172 1153 
Q 1172 725 1289 603 
Q 1406 481 1766 481 
L 2356 481 
L 2356 0 
L 1766 0 
Q 1100 0 847 248 
Q 594 497 594 1153 
L 594 3053 
L 172 3053 
L 172 3500 
L 594 3500 
L 594 4494 
L 1172 4494 
z
" transform="scale(0.015625)"/>
      <path id="DejaVuSans-63" d="M 3122 3366 
L 3122 2828 
Q 2878 2963 2633 3030 
Q 2388 3097 2138 3097 
Q 1578 3097 1268 2742 
Q 959 2388 959 1747 
Q 959 1106 1268 751 
Q 1578 397 2138 397 
Q 2388 397 2633 464 
Q 2878 531 3122 666 
L 3122 134 
Q 2881 22 2623 -34 
Q 2366 -91 2075 -91 
Q 1284 -91 818 406 
Q 353 903 353 1747 
Q 353 2603 823 3093 
Q 1294 3584 2113 3584 
Q 2378 3584 2631 3529 
Q 2884 3475 3122 3366 
z
" transform="scale(0.015625)"/>
      <path id="DejaVuSans-6c" d="M 603 4863 
L 1178 4863 
L 1178 0 
L 603 0 
L 603 4863 
z
" transform="scale(0.015625)"/>
      <path id="DejaVuSans-69" d="M 603 3500 
L 1178 3500 
L 1178 0 
L 603 0 
L 603 3500 
z
M 603 4863 
L 1178 4863 
L 1178 4134 
L 603 4134 
L 603 4863 
z
" transform="scale(0.015625)"/>
      <path id="DejaVuSans-6e" d="M 3513 2113 
L 3513 0 
L 2938 0 
L 2938 2094 
Q 2938 2591 2744 2837 
Q 2550 3084 2163 3084 
Q 1697 3084 1428 2787 
Q 1159 2491 1159 1978 
L 1159 0 
L 581 0 
L 581 3500 
L 1159 3500 
L 1159 2956 
Q 1366 3272 1645 3428 
Q 1925 3584 2291 3584 
Q 2894 3584 3203 3211 
Q 3513 2838 3513 2113 
z
" transform="scale(0.015625)"/>
     </defs>
     <use xlink:href="#DejaVuSans-47"/>
     <use xlink:href="#DejaVuSans-65" x="77.490234"/>
     <use xlink:href="#DejaVuSans-74" x="139.013672"/>
     <use xlink:href="#DejaVuSans-20" x="178.222656"/>
     <use xlink:href="#DejaVuSans-63" x="210.009766"/>
     <use xlink:href="#DejaVuSans-6c" x="264.990234"/>
     <use xlink:href="#DejaVuSans-69" x="292.773438"/>
     <use xlink:href="#DejaVuSans-65" x="320.556641"/>
     <use xlink:href="#DejaVuSans-6e" x="382.080078"/>
     <use xlink:href="#DejaVuSans-74" x="445.458984"/>
     <use xlink:href="#DejaVuSans-20" x="484.667969"/>
     <use xlink:href="#DejaVuSans-4e" x="516.455078"/>
     <use xlink:href="#DejaVuSans-73" x="591.259766"/>
     <use xlink:href="#DejaVuSans-50" x="643.359375"/>
     <use xlink:href="#DejaVuSans-65" x="700.037109"/>
     <use xlink:href="#DejaVuSans-72" x="761.560547"/>
     <use xlink:href="#DejaVuSans-4f" x="802.673828"/>
     <use xlink:href="#DejaVuSans-70" x="881.384766"/>
    </g>
   </g>
   <g id="legend_1">
    <g id="patch_7">
     <path d="M 349.57625 78.82825 
L 407.72 78.82825 
Q 409.72 78.82825 409.72 76.82825 
L 409.72 48.472 
Q 409.72 46.472 407.72 46.472 
L 349.57625 46.472 
Q 347.57625 46.472 347.57625 48.472 
L 347.57625 76.82825 
Q 347.57625 78.82825 349.57625 78.82825 
z
" style="fill: #ffffff; opacity: 0.8; stroke: #cccccc; stroke-linejoin: miter"/>
    </g>
    <g id="line2d_27">
     <path d="M 351.57625 54.570437 
L 361.57625 54.570437 
L 371.57625 54.570437 
" style="fill: none; stroke: #8b008b; stroke-width: 1.5; stroke-linecap: square"/>
     <g>
      <use xlink:href="#mc2e2b65dc3" x="361.57625" y="54.570437" style="fill: #8b008b; stroke: #8b008b; stroke-linejoin: miter"/>
     </g>
    </g>
    <g id="text_17">
     <!-- gorm -->
     <g transform="translate(379.57625 58.070437) scale(0.1 -0.1)">
      <defs>
       <path id="DejaVuSans-67" d="M 2906 1791 
Q 2906 2416 2648 2759 
Q 2391 3103 1925 3103 
Q 1463 3103 1205 2759 
Q 947 2416 947 1791 
Q 947 1169 1205 825 
Q 1463 481 1925 481 
Q 2391 481 2648 825 
Q 2906 1169 2906 1791 
z
M 3481 434 
Q 3481 -459 3084 -895 
Q 2688 -1331 1869 -1331 
Q 1566 -1331 1297 -1286 
Q 1028 -1241 775 -1147 
L 775 -588 
Q 1028 -725 1275 -790 
Q 1522 -856 1778 -856 
Q 2344 -856 2625 -561 
Q 2906 -266 2906 331 
L 2906 616 
Q 2728 306 2450 153 
Q 2172 0 1784 0 
Q 1141 0 747 490 
Q 353 981 353 1791 
Q 353 2603 747 3093 
Q 1141 3584 1784 3584 
Q 2172 3584 2450 3431 
Q 2728 3278 2906 2969 
L 2906 3500 
L 3481 3500 
L 3481 434 
z
" transform="scale(0.015625)"/>
       <path id="DejaVuSans-6f" d="M 1959 3097 
Q 1497 3097 1228 2736 
Q 959 2375 959 1747 
Q 959 1119 1226 758 
Q 1494 397 1959 397 
Q 2419 397 2687 759 
Q 2956 1122 2956 1747 
Q 2956 2369 2687 2733 
Q 2419 3097 1959 3097 
z
M 1959 3584 
Q 2709 3584 3137 3096 
Q 3566 2609 3566 1747 
Q 3566 888 3137 398 
Q 2709 -91 1959 -91 
Q 1206 -91 779 398 
Q 353 888 353 1747 
Q 353 2609 779 3096 
Q 1206 3584 1959 3584 
z
" transform="scale(0.015625)"/>
       <path id="DejaVuSans-6d" d="M 3328 2828 
Q 3544 3216 3844 3400 
Q 4144 3584 4550 3584 
Q 5097 3584 5394 3201 
Q 5691 2819 5691 2113 
L 5691 0 
L 5113 0 
L 5113 2094 
Q 5113 2597 4934 2840 
Q 4756 3084 4391 3084 
Q 3944 3084 3684 2787 
Q 3425 2491 3425 1978 
L 3425 0 
L 2847 0 
L 2847 2094 
Q 2847 2600 2669 2842 
Q 2491 3084 2119 3084 
Q 1678 3084 1418 2786 
Q 1159 2488 1159 1978 
L 1159 0 
L 581 0 
L 581 3500 
L 1159 3500 
L 1159 2956 
Q 1356 3278 1631 3431 
Q 1906 3584 2284 3584 
Q 2666 3584 2933 3390 
Q 3200 3197 3328 2828 
z
" transform="scale(0.015625)"/>
      </defs>
      <use xlink:href="#DejaVuSans-67"/>
      <use xlink:href="#DejaVuSans-6f" x="63.476562"/>
      <use xlink:href="#DejaVuSans-72" x="124.658203"/>
      <use xlink:href="#DejaVuSans-6d" x="164.021484"/>
     </g>
    </g>
    <g id="line2d_28">
     <path d="M 351.57625 69.248562 
L 361.57625 69.248562 
L 371.57625 69.248562 
" style="fill: none; stroke: #ffd700; stroke-width: 1.5; stroke-linecap: square"/>
     <g>
      <use xlink:href="#m9f4d131f41" x="361.57625" y="69.248562" style="fill: #ffd700; stroke: #ffd700; stroke-linejoin: bevel"/>
     </g>
    </g>
    <g id="text_18">
     <!-- sqlx -->
     <g transform="translate(379.57625 72.748562) scale(0.1 -0.1)">
      <defs>
       <path id="DejaVuSans-71" d="M 947 1747 
Q 947 1113 1208 752 
Q 1469 391 1925 391 
Q 2381 391 2643 752 
Q 2906 1113 2906 1747 
Q 2906 2381 2643 2742 
Q 2381 3103 1925 3103 
Q 1469 3103 1208 2742 
Q 947 2381 947 1747 
z
M 2906 525 
Q 2725 213 2448 61 
Q 2172 -91 1784 -91 
Q 1150 -91 751 415 
Q 353 922 353 1747 
Q 353 2572 751 3078 
Q 1150 3584 1784 3584 
Q 2172 3584 2448 3432 
Q 2725 3281 2906 2969 
L 2906 3500 
L 3481 3500 
L 3481 -1331 
L 2906 -1331 
L 2906 525 
z
" transform="scale(0.015625)"/>
       <path id="DejaVuSans-78" d="M 3513 3500 
L 2247 1797 
L 3578 0 
L 2900 0 
L 1881 1375 
L 863 0 
L 184 0 
L 1544 1831 
L 300 3500 
L 978 3500 
L 1906 2253 
L 2834 3500 
L 3513 3500 
z
" transform="scale(0.015625)"/>
      </defs>
      <use xlink:href="#DejaVuSans-73"/>
      <use xlink:href="#DejaVuSans-71" x="52.099609"/>
      <use xlink:href="#DejaVuSans-6c" x="115.576172"/>
      <use xlink:href="#DejaVuSans-78" x="143.359375"/>
     </g>
    </g>
   </g>
  </g>
 </g>
 <defs>
  <clipPath id="p6ff8155f2a">
   <rect x="57.6" y="41.472" width="357.12" height="266.112"/>
  </clipPath>
 </defs>
</svg>
