<?xml version="1.0" encoding="utf-8" standalone="no"?>
<!DOCTYPE svg PUBLIC "-//W3C//DTD SVG 1.1//EN"
  "http://www.w3.org/Graphics/SVG/1.1/DTD/svg11.dtd">
<svg xmlns:xlink="http://www.w3.org/1999/xlink" width="460.8pt" height="345.6pt" viewBox="0 0 460.8 345.6" xmlns="http://www.w3.org/2000/svg" version="1.1">
 <metadata>
  <rdf:RDF xmlns:dc="http://purl.org/dc/elements/1.1/" xmlns:cc="http://creativecommons.org/ns#" xmlns:rdf="http://www.w3.org/1999/02/22-rdf-syntax-ns#">
   <cc:Work>
    <dc:type rdf:resource="http://purl.org/dc/dcmitype/StillImage"/>
    <dc:date>2024-11-09T15:33:59.961814</dc:date>
    <dc:format>image/svg+xml</dc:format>
    <dc:creator>
     <cc:Agent>
      <dc:title>Matplotlib v3.6.3, https://matplotlib.org/</dc:title>
     </cc:Agent>
    </dc:creator>
   </cc:Work>
  </rdf:RDF>
 </metadata>
 <defs>
  <style type="text/css">*{stroke-linejoin: round; stroke-linecap: butt}</style>
 </defs>
 <g id="figure_1">
  <g id="patch_1">
   <path d="M 0 345.6 
L 460.8 345.6 
L 460.8 0 
L 0 0 
z
" style="fill: #ffffff"/>
  </g>
  <g id="axes_1">
   <g id="patch_2">
    <path d="M 57.6 307.584 
L 414.72 307.584 
L 414.72 41.472 
L 57.6 41.472 
z
" style="fill: #ffffff"/>
   </g>
   <g id="matplotlib.axis_1">
    <g id="xtick_1">
     <g id="line2d_1">
      <path d="M 70.553388 307.584 
L 70.553388 41.472 
" clip-path="url(#pae82325daa)" style="fill: none; stroke: #b0b0b0; stroke-width: 0.8; stroke-linecap: square"/>
     </g>
     <g id="line2d_2">
      <defs>
       <path id="m483d50857e" d="M 0 0 
L 0 3.5 
" style="stroke: #000000; stroke-width: 0.8"/>
      </defs>
      <g>
       <use xlink:href="#m483d50857e" x="70.553388" y="307.584" style="stroke: #000000; stroke-width: 0.8"/>
      </g>
     </g>
     <g id="text_1">
      <!-- 0 -->
      <g transform="translate(67.372138 322.182437) scale(0.1 -0.1)">
       <defs>
        <path id="DejaVuSans-30" d="M 2034 4250 
Q 1547 4250 1301 3770 
Q 1056 3291 1056 2328 
Q 1056 1369 1301 889 
Q 1547 409 2034 409 
Q 2525 409 2770 889 
Q 3016 1369 3016 2328 
Q 3016 3291 2770 3770 
Q 2525 4250 2034 4250 
z
M 2034 4750 
Q 2819 4750 3233 4129 
Q 3647 3509 3647 2328 
Q 3647 1150 3233 529 
Q 2819 -91 2034 -91 
Q 1250 -91 836 529 
Q 422 1150 422 2328 
Q 422 3509 836 4129 
Q 1250 4750 2034 4750 
z
" transform="scale(0.015625)"/>
       </defs>
       <use xlink:href="#DejaVuSans-30"/>
      </g>
     </g>
    </g>
    <g id="xtick_2">
     <g id="line2d_3">
      <path d="M 136.140165 307.584 
L 136.140165 41.472 
" clip-path="url(#pae82325daa)" style="fill: none; stroke: #b0b0b0; stroke-width: 0.8; stroke-linecap: square"/>
     </g>
     <g id="line2d_4">
      <g>
       <use xlink:href="#m483d50857e" x="136.140165" y="307.584" style="stroke: #000000; stroke-width: 0.8"/>
      </g>
     </g>
     <g id="text_2">
      <!-- 20 -->
      <g transform="translate(129.777665 322.182437) scale(0.1 -0.1)">
       <defs>
        <path id="DejaVuSans-32" d="M 1228 531 
L 3431 531 
L 3431 0 
L 469 0 
L 469 531 
Q 828 903 1448 1529 
Q 2069 2156 2228 2338 
Q 2531 2678 2651 2914 
Q 2772 3150 2772 3378 
Q 2772 3750 2511 3984 
Q 2250 4219 1831 4219 
Q 1534 4219 1204 4116 
Q 875 4013 500 3803 
L 500 4441 
Q 881 4594 1212 4672 
Q 1544 4750 1819 4750 
Q 2544 4750 2975 4387 
Q 3406 4025 3406 3419 
Q 3406 3131 3298 2873 
Q 3191 2616 2906 2266 
Q 2828 2175 2409 1742 
Q 1991 1309 1228 531 
z
" transform="scale(0.015625)"/>
       </defs>
       <use xlink:href="#DejaVuSans-32"/>
       <use xlink:href="#DejaVuSans-30" x="63.623047"/>
      </g>
     </g>
    </g>
    <g id="xtick_3">
     <g id="line2d_5">
      <path d="M 201.726942 307.584 
L 201.726942 41.472 
" clip-path="url(#pae82325daa)" style="fill: none; stroke: #b0b0b0; stroke-width: 0.8; stroke-linecap: square"/>
     </g>
     <g id="line2d_6">
      <g>
       <use xlink:href="#m483d50857e" x="201.726942" y="307.584" style="stroke: #000000; stroke-width: 0.8"/>
      </g>
     </g>
     <g id="text_3">
      <!-- 40 -->
      <g transform="translate(195.364442 322.182437) scale(0.1 -0.1)">
       <defs>
        <path id="DejaVuSans-34" d="M 2419 4116 
L 825 1625 
L 2419 1625 
L 2419 4116 
z
M 2253 4666 
L 3047 4666 
L 3047 1625 
L 3713 1625 
L 3713 1100 
L 3047 1100 
L 3047 0 
L 2419 0 
L 2419 1100 
L 313 1100 
L 313 1709 
L 2253 4666 
z
" transform="scale(0.015625)"/>
       </defs>
       <use xlink:href="#DejaVuSans-34"/>
       <use xlink:href="#DejaVuSans-30" x="63.623047"/>
      </g>
     </g>
    </g>
    <g id="xtick_4">
     <g id="line2d_7">
      <path d="M 267.313719 307.584 
L 267.313719 41.472 
" clip-path="url(#pae82325daa)" style="fill: none; stroke: #b0b0b0; stroke-width: 0.8; stroke-linecap: square"/>
     </g>
     <g id="line2d_8">
      <g>
       <use xlink:href="#m483d50857e" x="267.313719" y="307.584" style="stroke: #000000; stroke-width: 0.8"/>
      </g>
     </g>
     <g id="text_4">
      <!-- 60 -->
      <g transform="translate(260.951219 322.182437) scale(0.1 -0.1)">
       <defs>
        <path id="DejaVuSans-36" d="M 2113 2584 
Q 1688 2584 1439 2293 
Q 1191 2003 1191 1497 
Q 1191 994 1439 701 
Q 1688 409 2113 409 
Q 2538 409 2786 701 
Q 3034 994 3034 1497 
Q 3034 2003 2786 2293 
Q 2538 2584 2113 2584 
z
M 3366 4563 
L 3366 3988 
Q 3128 4100 2886 4159 
Q 2644 4219 2406 4219 
Q 1781 4219 1451 3797 
Q 1122 3375 1075 2522 
Q 1259 2794 1537 2939 
Q 1816 3084 2150 3084 
Q 2853 3084 3261 2657 
Q 3669 2231 3669 1497 
Q 3669 778 3244 343 
Q 2819 -91 2113 -91 
Q 1303 -91 875 529 
Q 447 1150 447 2328 
Q 447 3434 972 4092 
Q 1497 4750 2381 4750 
Q 2619 4750 2861 4703 
Q 3103 4656 3366 4563 
z
" transform="scale(0.015625)"/>
       </defs>
       <use xlink:href="#DejaVuSans-36"/>
       <use xlink:href="#DejaVuSans-30" x="63.623047"/>
      </g>
     </g>
    </g>
    <g id="xtick_5">
     <g id="line2d_9">
      <path d="M 332.900496 307.584 
L 332.900496 41.472 
" clip-path="url(#pae82325daa)" style="fill: none; stroke: #b0b0b0; stroke-width: 0.8; stroke-linecap: square"/>
     </g>
     <g id="line2d_10">
      <g>
       <use xlink:href="#m483d50857e" x="332.900496" y="307.584" style="stroke: #000000; stroke-width: 0.8"/>
      </g>
     </g>
     <g id="text_5">
      <!-- 80 -->
      <g transform="translate(326.537996 322.182437) scale(0.1 -0.1)">
       <defs>
        <path id="DejaVuSans-38" d="M 2034 2216 
Q 1584 2216 1326 1975 
Q 1069 1734 1069 1313 
Q 1069 891 1326 650 
Q 1584 409 2034 409 
Q 2484 409 2743 651 
Q 3003 894 3003 1313 
Q 3003 1734 2745 1975 
Q 2488 2216 2034 2216 
z
M 1403 2484 
Q 997 2584 770 2862 
Q 544 3141 544 3541 
Q 544 4100 942 4425 
Q 1341 4750 2034 4750 
Q 2731 4750 3128 4425 
Q 3525 4100 3525 3541 
Q 3525 3141 3298 2862 
Q 3072 2584 2669 2484 
Q 3125 2378 3379 2068 
Q 3634 1759 3634 1313 
Q 3634 634 3220 271 
Q 2806 -91 2034 -91 
Q 1263 -91 848 271 
Q 434 634 434 1313 
Q 434 1759 690 2068 
Q 947 2378 1403 2484 
z
M 1172 3481 
Q 1172 3119 1398 2916 
Q 1625 2713 2034 2713 
Q 2441 2713 2670 2916 
Q 2900 3119 2900 3481 
Q 2900 3844 2670 4047 
Q 2441 4250 2034 4250 
Q 1625 4250 1398 4047 
Q 1172 3844 1172 3481 
z
" transform="scale(0.015625)"/>
       </defs>
       <use xlink:href="#DejaVuSans-38"/>
       <use xlink:href="#DejaVuSans-30" x="63.623047"/>
      </g>
     </g>
    </g>
    <g id="xtick_6">
     <g id="line2d_11">
      <path d="M 398.487273 307.584 
L 398.487273 41.472 
" clip-path="url(#pae82325daa)" style="fill: none; stroke: #b0b0b0; stroke-width: 0.8; stroke-linecap: square"/>
     </g>
     <g id="line2d_12">
      <g>
       <use xlink:href="#m483d50857e" x="398.487273" y="307.584" style="stroke: #000000; stroke-width: 0.8"/>
      </g>
     </g>
     <g id="text_6">
      <!-- 100 -->
      <g transform="translate(388.943523 322.182437) scale(0.1 -0.1)">
       <defs>
        <path id="DejaVuSans-31" d="M 794 531 
L 1825 531 
L 1825 4091 
L 703 3866 
L 703 4441 
L 1819 4666 
L 2450 4666 
L 2450 531 
L 3481 531 
L 3481 0 
L 794 0 
L 794 531 
z
" transform="scale(0.015625)"/>
       </defs>
       <use xlink:href="#DejaVuSans-31"/>
       <use xlink:href="#DejaVuSans-30" x="63.623047"/>
       <use xlink:href="#DejaVuSans-30" x="127.246094"/>
      </g>
     </g>
    </g>
    <g id="text_7">
     <!-- Номер бенчмарка -->
     <g transform="translate(189.251406 336.030875) scale(0.1 -0.1)">
      <defs>
       <path id="DejaVuSans-41d" d="M 628 4666 
L 1259 4666 
L 1259 2753 
L 3553 2753 
L 3553 4666 
L 4184 4666 
L 4184 0 
L 3553 0 
L 3553 2222 
L 1259 2222 
L 1259 0 
L 628 0 
L 628 4666 
z
" transform="scale(0.015625)"/>
       <path id="DejaVuSans-43e" d="M 1959 3097 
Q 1497 3097 1228 2736 
Q 959 2375 959 1747 
Q 959 1119 1226 758 
Q 1494 397 1959 397 
Q 2419 397 2687 759 
Q 2956 1122 2956 1747 
Q 2956 2369 2687 2733 
Q 2419 3097 1959 3097 
z
M 1959 3584 
Q 2709 3584 3137 3096 
Q 3566 2609 3566 1747 
Q 3566 888 3137 398 
Q 2709 -91 1959 -91 
Q 1206 -91 779 398 
Q 353 888 353 1747 
Q 353 2609 779 3096 
Q 1206 3584 1959 3584 
z
" transform="scale(0.015625)"/>
       <path id="DejaVuSans-43c" d="M 581 3500 
L 1422 3500 
L 2416 1156 
L 3413 3500 
L 4247 3500 
L 4247 0 
L 3669 0 
L 3669 2950 
L 2703 672 
L 2128 672 
L 1159 2950 
L 1159 0 
L 581 0 
L 581 3500 
z
" transform="scale(0.015625)"/>
       <path id="DejaVuSans-435" d="M 3597 1894 
L 3597 1613 
L 953 1613 
Q 991 1019 1311 708 
Q 1631 397 2203 397 
Q 2534 397 2845 478 
Q 3156 559 3463 722 
L 3463 178 
Q 3153 47 2828 -22 
Q 2503 -91 2169 -91 
Q 1331 -91 842 396 
Q 353 884 353 1716 
Q 353 2575 817 3079 
Q 1281 3584 2069 3584 
Q 2775 3584 3186 3129 
Q 3597 2675 3597 1894 
z
M 3022 2063 
Q 3016 2534 2758 2815 
Q 2500 3097 2075 3097 
Q 1594 3097 1305 2825 
Q 1016 2553 972 2059 
L 3022 2063 
z
" transform="scale(0.015625)"/>
       <path id="DejaVuSans-440" d="M 1159 525 
L 1159 -1331 
L 581 -1331 
L 581 3500 
L 1159 3500 
L 1159 2969 
Q 1341 3281 1617 3432 
Q 1894 3584 2278 3584 
Q 2916 3584 3314 3078 
Q 3713 2572 3713 1747 
Q 3713 922 3314 415 
Q 2916 -91 2278 -91 
Q 1894 -91 1617 61 
Q 1341 213 1159 525 
z
M 3116 1747 
Q 3116 2381 2855 2742 
Q 2594 3103 2138 3103 
Q 1681 3103 1420 2742 
Q 1159 2381 1159 1747 
Q 1159 1113 1420 752 
Q 1681 391 2138 391 
Q 2594 391 2855 752 
Q 3116 1113 3116 1747 
z
" transform="scale(0.015625)"/>
       <path id="DejaVuSans-20" transform="scale(0.015625)"/>
       <path id="DejaVuSans-431" d="M 1991 3584 
Q 2741 3584 3169 3096 
Q 3597 2609 3597 1747 
Q 3597 888 3169 398 
Q 2741 -91 1991 -91 
Q 1238 -91 822 384 
Q 406 859 384 1747 
L 366 2463 
Q 350 2834 350 2963 
Q 350 3463 531 3831 
Q 816 4409 1308 4659 
Q 1800 4909 2625 4916 
Q 3006 4919 3175 4972 
L 3334 4516 
Q 3181 4453 3041 4450 
L 2259 4397 
Q 1866 4369 1628 4231 
Q 1006 3866 947 3388 
L 925 3213 
Q 1331 3584 1991 3584 
z
M 1991 3097 
Q 1528 3097 1259 2736 
Q 991 2375 991 1747 
Q 991 1119 1258 758 
Q 1525 397 1991 397 
Q 2450 397 2719 759 
Q 2988 1122 2988 1747 
Q 2988 2369 2719 2733 
Q 2450 3097 1991 3097 
z
" transform="scale(0.015625)"/>
       <path id="DejaVuSans-43d" d="M 581 3500 
L 1159 3500 
L 1159 2072 
L 3025 2072 
L 3025 3500 
L 3603 3500 
L 3603 0 
L 3025 0 
L 3025 1613 
L 1159 1613 
L 1159 0 
L 581 0 
L 581 3500 
z
" transform="scale(0.015625)"/>
       <path id="DejaVuSans-447" d="M 2625 0 
L 2625 1472 
L 1553 1472 
Q 1075 1472 756 1769 
Q 469 2038 469 2613 
L 469 3500 
L 1044 3500 
L 1044 2666 
Q 1044 2300 1206 2116 
Q 1372 1931 1697 1931 
L 2625 1931 
L 2625 3500 
L 3200 3500 
L 3200 0 
L 2625 0 
z
" transform="scale(0.015625)"/>
       <path id="DejaVuSans-430" d="M 2194 1759 
Q 1497 1759 1228 1600 
Q 959 1441 959 1056 
Q 959 750 1161 570 
Q 1363 391 1709 391 
Q 2188 391 2477 730 
Q 2766 1069 2766 1631 
L 2766 1759 
L 2194 1759 
z
M 3341 1997 
L 3341 0 
L 2766 0 
L 2766 531 
Q 2569 213 2275 61 
Q 1981 -91 1556 -91 
Q 1019 -91 701 211 
Q 384 513 384 1019 
Q 384 1609 779 1909 
Q 1175 2209 1959 2209 
L 2766 2209 
L 2766 2266 
Q 2766 2663 2505 2880 
Q 2244 3097 1772 3097 
Q 1472 3097 1187 3025 
Q 903 2953 641 2809 
L 641 3341 
Q 956 3463 1253 3523 
Q 1550 3584 1831 3584 
Q 2591 3584 2966 3190 
Q 3341 2797 3341 1997 
z
" transform="scale(0.015625)"/>
       <path id="DejaVuSans-43a" d="M 581 3500 
L 1153 3500 
L 1153 1856 
L 2775 3500 
L 3481 3500 
L 2144 2147 
L 3653 0 
L 3009 0 
L 1769 1766 
L 1153 1141 
L 1153 0 
L 581 0 
L 581 3500 
z
" transform="scale(0.015625)"/>
      </defs>
      <use xlink:href="#DejaVuSans-41d"/>
      <use xlink:href="#DejaVuSans-43e" x="75.195312"/>
      <use xlink:href="#DejaVuSans-43c" x="136.376953"/>
      <use xlink:href="#DejaVuSans-435" x="211.816406"/>
      <use xlink:href="#DejaVuSans-440" x="273.339844"/>
      <use xlink:href="#DejaVuSans-20" x="336.816406"/>
      <use xlink:href="#DejaVuSans-431" x="368.603516"/>
      <use xlink:href="#DejaVuSans-435" x="430.273438"/>
      <use xlink:href="#DejaVuSans-43d" x="491.796875"/>
      <use xlink:href="#DejaVuSans-447" x="557.177734"/>
      <use xlink:href="#DejaVuSans-43c" x="616.259766"/>
      <use xlink:href="#DejaVuSans-430" x="691.699219"/>
      <use xlink:href="#DejaVuSans-440" x="752.978516"/>
      <use xlink:href="#DejaVuSans-43a" x="816.455078"/>
      <use xlink:href="#DejaVuSans-430" x="876.855469"/>
     </g>
    </g>
   </g>
   <g id="matplotlib.axis_2">
    <g id="ytick_1">
     <g id="line2d_13">
      <path d="M 57.6 295.752452 
L 414.72 295.752452 
" clip-path="url(#pae82325daa)" style="fill: none; stroke: #b0b0b0; stroke-width: 0.8; stroke-linecap: square"/>
     </g>
     <g id="line2d_14">
      <defs>
       <path id="mcb1bfa5552" d="M 0 0 
L -3.5 0 
" style="stroke: #000000; stroke-width: 0.8"/>
      </defs>
      <g>
       <use xlink:href="#mcb1bfa5552" x="57.6" y="295.752452" style="stroke: #000000; stroke-width: 0.8"/>
      </g>
     </g>
     <g id="text_8">
      <!-- 1.0 -->
      <g transform="translate(34.696875 299.551671) scale(0.1 -0.1)">
       <defs>
        <path id="DejaVuSans-2e" d="M 684 794 
L 1344 794 
L 1344 0 
L 684 0 
L 684 794 
z
" transform="scale(0.015625)"/>
       </defs>
       <use xlink:href="#DejaVuSans-31"/>
       <use xlink:href="#DejaVuSans-2e" x="63.623047"/>
       <use xlink:href="#DejaVuSans-30" x="95.410156"/>
      </g>
     </g>
    </g>
    <g id="ytick_2">
     <g id="line2d_15">
      <path d="M 57.6 236.985337 
L 414.72 236.985337 
" clip-path="url(#pae82325daa)" style="fill: none; stroke: #b0b0b0; stroke-width: 0.8; stroke-linecap: square"/>
     </g>
     <g id="line2d_16">
      <g>
       <use xlink:href="#mcb1bfa5552" x="57.6" y="236.985337" style="stroke: #000000; stroke-width: 0.8"/>
      </g>
     </g>
     <g id="text_9">
      <!-- 1.5 -->
      <g transform="translate(34.696875 240.784556) scale(0.1 -0.1)">
       <defs>
        <path id="DejaVuSans-35" d="M 691 4666 
L 3169 4666 
L 3169 4134 
L 1269 4134 
L 1269 2991 
Q 1406 3038 1543 3061 
Q 1681 3084 1819 3084 
Q 2600 3084 3056 2656 
Q 3513 2228 3513 1497 
Q 3513 744 3044 326 
Q 2575 -91 1722 -91 
Q 1428 -91 1123 -41 
Q 819 9 494 109 
L 494 744 
Q 775 591 1075 516 
Q 1375 441 1709 441 
Q 2250 441 2565 725 
Q 2881 1009 2881 1497 
Q 2881 1984 2565 2268 
Q 2250 2553 1709 2553 
Q 1456 2553 1204 2497 
Q 953 2441 691 2322 
L 691 4666 
z
" transform="scale(0.015625)"/>
       </defs>
       <use xlink:href="#DejaVuSans-31"/>
       <use xlink:href="#DejaVuSans-2e" x="63.623047"/>
       <use xlink:href="#DejaVuSans-35" x="95.410156"/>
      </g>
     </g>
    </g>
    <g id="ytick_3">
     <g id="line2d_17">
      <path d="M 57.6 178.218222 
L 414.72 178.218222 
" clip-path="url(#pae82325daa)" style="fill: none; stroke: #b0b0b0; stroke-width: 0.8; stroke-linecap: square"/>
     </g>
     <g id="line2d_18">
      <g>
       <use xlink:href="#mcb1bfa5552" x="57.6" y="178.218222" style="stroke: #000000; stroke-width: 0.8"/>
      </g>
     </g>
     <g id="text_10">
      <!-- 2.0 -->
      <g transform="translate(34.696875 182.017441) scale(0.1 -0.1)">
       <use xlink:href="#DejaVuSans-32"/>
       <use xlink:href="#DejaVuSans-2e" x="63.623047"/>
       <use xlink:href="#DejaVuSans-30" x="95.410156"/>
      </g>
     </g>
    </g>
    <g id="ytick_4">
     <g id="line2d_19">
      <path d="M 57.6 119.451107 
L 414.72 119.451107 
" clip-path="url(#pae82325daa)" style="fill: none; stroke: #b0b0b0; stroke-width: 0.8; stroke-linecap: square"/>
     </g>
     <g id="line2d_20">
      <g>
       <use xlink:href="#mcb1bfa5552" x="57.6" y="119.451107" style="stroke: #000000; stroke-width: 0.8"/>
      </g>
     </g>
     <g id="text_11">
      <!-- 2.5 -->
      <g transform="translate(34.696875 123.250326) scale(0.1 -0.1)">
       <use xlink:href="#DejaVuSans-32"/>
       <use xlink:href="#DejaVuSans-2e" x="63.623047"/>
       <use xlink:href="#DejaVuSans-35" x="95.410156"/>
      </g>
     </g>
    </g>
    <g id="ytick_5">
     <g id="line2d_21">
      <path d="M 57.6 60.683992 
L 414.72 60.683992 
" clip-path="url(#pae82325daa)" style="fill: none; stroke: #b0b0b0; stroke-width: 0.8; stroke-linecap: square"/>
     </g>
     <g id="line2d_22">
      <g>
       <use xlink:href="#mcb1bfa5552" x="57.6" y="60.683992" style="stroke: #000000; stroke-width: 0.8"/>
      </g>
     </g>
     <g id="text_12">
      <!-- 3.0 -->
      <g transform="translate(34.696875 64.483211) scale(0.1 -0.1)">
       <defs>
        <path id="DejaVuSans-33" d="M 2597 2516 
Q 3050 2419 3304 2112 
Q 3559 1806 3559 1356 
Q 3559 666 3084 287 
Q 2609 -91 1734 -91 
Q 1441 -91 1130 -33 
Q 819 25 488 141 
L 488 750 
Q 750 597 1062 519 
Q 1375 441 1716 441 
Q 2309 441 2620 675 
Q 2931 909 2931 1356 
Q 2931 1769 2642 2001 
Q 2353 2234 1838 2234 
L 1294 2234 
L 1294 2753 
L 1863 2753 
Q 2328 2753 2575 2939 
Q 2822 3125 2822 3475 
Q 2822 3834 2567 4026 
Q 2313 4219 1838 4219 
Q 1578 4219 1281 4162 
Q 984 4106 628 3988 
L 628 4550 
Q 988 4650 1302 4700 
Q 1616 4750 1894 4750 
Q 2613 4750 3031 4423 
Q 3450 4097 3450 3541 
Q 3450 3153 3228 2886 
Q 3006 2619 2597 2516 
z
" transform="scale(0.015625)"/>
       </defs>
       <use xlink:href="#DejaVuSans-33"/>
       <use xlink:href="#DejaVuSans-2e" x="63.623047"/>
       <use xlink:href="#DejaVuSans-30" x="95.410156"/>
      </g>
     </g>
    </g>
    <g id="text_13">
     <!-- NsPerOp -->
     <g transform="translate(28.617187 195.949094) rotate(-90) scale(0.1 -0.1)">
      <defs>
       <path id="DejaVuSans-4e" d="M 628 4666 
L 1478 4666 
L 3547 763 
L 3547 4666 
L 4159 4666 
L 4159 0 
L 3309 0 
L 1241 3903 
L 1241 0 
L 628 0 
L 628 4666 
z
" transform="scale(0.015625)"/>
       <path id="DejaVuSans-73" d="M 2834 3397 
L 2834 2853 
Q 2591 2978 2328 3040 
Q 2066 3103 1784 3103 
Q 1356 3103 1142 2972 
Q 928 2841 928 2578 
Q 928 2378 1081 2264 
Q 1234 2150 1697 2047 
L 1894 2003 
Q 2506 1872 2764 1633 
Q 3022 1394 3022 966 
Q 3022 478 2636 193 
Q 2250 -91 1575 -91 
Q 1294 -91 989 -36 
Q 684 19 347 128 
L 347 722 
Q 666 556 975 473 
Q 1284 391 1588 391 
Q 1994 391 2212 530 
Q 2431 669 2431 922 
Q 2431 1156 2273 1281 
Q 2116 1406 1581 1522 
L 1381 1569 
Q 847 1681 609 1914 
Q 372 2147 372 2553 
Q 372 3047 722 3315 
Q 1072 3584 1716 3584 
Q 2034 3584 2315 3537 
Q 2597 3491 2834 3397 
z
" transform="scale(0.015625)"/>
       <path id="DejaVuSans-50" d="M 1259 4147 
L 1259 2394 
L 2053 2394 
Q 2494 2394 2734 2622 
Q 2975 2850 2975 3272 
Q 2975 3691 2734 3919 
Q 2494 4147 2053 4147 
L 1259 4147 
z
M 628 4666 
L 2053 4666 
Q 2838 4666 3239 4311 
Q 3641 3956 3641 3272 
Q 3641 2581 3239 2228 
Q 2838 1875 2053 1875 
L 1259 1875 
L 1259 0 
L 628 0 
L 628 4666 
z
" transform="scale(0.015625)"/>
       <path id="DejaVuSans-65" d="M 3597 1894 
L 3597 1613 
L 953 1613 
Q 991 1019 1311 708 
Q 1631 397 2203 397 
Q 2534 397 2845 478 
Q 3156 559 3463 722 
L 3463 178 
Q 3153 47 2828 -22 
Q 2503 -91 2169 -91 
Q 1331 -91 842 396 
Q 353 884 353 1716 
Q 353 2575 817 3079 
Q 1281 3584 2069 3584 
Q 2775 3584 3186 3129 
Q 3597 2675 3597 1894 
z
M 3022 2063 
Q 3016 2534 2758 2815 
Q 2500 3097 2075 3097 
Q 1594 3097 1305 2825 
Q 1016 2553 972 2059 
L 3022 2063 
z
" transform="scale(0.015625)"/>
       <path id="DejaVuSans-72" d="M 2631 2963 
Q 2534 3019 2420 3045 
Q 2306 3072 2169 3072 
Q 1681 3072 1420 2755 
Q 1159 2438 1159 1844 
L 1159 0 
L 581 0 
L 581 3500 
L 1159 3500 
L 1159 2956 
Q 1341 3275 1631 3429 
Q 1922 3584 2338 3584 
Q 2397 3584 2469 3576 
Q 2541 3569 2628 3553 
L 2631 2963 
z
" transform="scale(0.015625)"/>
       <path id="DejaVuSans-4f" d="M 2522 4238 
Q 1834 4238 1429 3725 
Q 1025 3213 1025 2328 
Q 1025 1447 1429 934 
Q 1834 422 2522 422 
Q 3209 422 3611 934 
Q 4013 1447 4013 2328 
Q 4013 3213 3611 3725 
Q 3209 4238 2522 4238 
z
M 2522 4750 
Q 3503 4750 4090 4092 
Q 4678 3434 4678 2328 
Q 4678 1225 4090 567 
Q 3503 -91 2522 -91 
Q 1538 -91 948 565 
Q 359 1222 359 2328 
Q 359 3434 948 4092 
Q 1538 4750 2522 4750 
z
" transform="scale(0.015625)"/>
       <path id="DejaVuSans-70" d="M 1159 525 
L 1159 -1331 
L 581 -1331 
L 581 3500 
L 1159 3500 
L 1159 2969 
Q 1341 3281 1617 3432 
Q 1894 3584 2278 3584 
Q 2916 3584 3314 3078 
Q 3713 2572 3713 1747 
Q 3713 922 3314 415 
Q 2916 -91 2278 -91 
Q 1894 -91 1617 61 
Q 1341 213 1159 525 
z
M 3116 1747 
Q 3116 2381 2855 2742 
Q 2594 3103 2138 3103 
Q 1681 3103 1420 2742 
Q 1159 2381 1159 1747 
Q 1159 1113 1420 752 
Q 1681 391 2138 391 
Q 2594 391 2855 752 
Q 3116 1113 3116 1747 
z
" transform="scale(0.015625)"/>
      </defs>
      <use xlink:href="#DejaVuSans-4e"/>
      <use xlink:href="#DejaVuSans-73" x="74.804688"/>
      <use xlink:href="#DejaVuSans-50" x="126.904297"/>
      <use xlink:href="#DejaVuSans-65" x="183.582031"/>
      <use xlink:href="#DejaVuSans-72" x="245.105469"/>
      <use xlink:href="#DejaVuSans-4f" x="286.21875"/>
      <use xlink:href="#DejaVuSans-70" x="364.929688"/>
     </g>
    </g>
    <g id="text_14">
     <!-- 1e6 -->
     <g transform="translate(57.6 38.472) scale(0.1 -0.1)">
      <use xlink:href="#DejaVuSans-31"/>
      <use xlink:href="#DejaVuSans-65" x="63.623047"/>
      <use xlink:href="#DejaVuSans-36" x="125.146484"/>
     </g>
    </g>
   </g>
   <g id="line2d_23">
    <path d="M 73.832727 269.367545 
L 77.112066 282.0871 
L 80.391405 269.474149 
L 83.670744 274.239692 
L 86.950083 266.43201 
L 90.229421 276.719194 
L 93.50876 271.641245 
L 96.788099 229.325749 
L 100.067438 289.455321 
L 103.346777 293.343823 
L 106.626116 269.031397 
L 109.905455 290.732448 
L 113.184793 281.655161 
L 116.464132 291.187305 
L 119.743471 275.432194 
L 123.02281 288.63928 
L 126.302149 274.013321 
L 129.581488 285.085045 
L 132.860826 292.048713 
L 136.140165 285.103733 
L 139.419504 286.5849 
L 142.698843 257.107315 
L 145.978182 293.923502 
L 149.257521 283.451907 
L 152.53686 292.936214 
L 155.816198 282.698865 
L 159.095537 288.824279 
L 162.374876 279.159675 
L 165.654215 295.198513 
L 168.933554 293.208659 
L 172.212893 285.145223 
L 175.492231 293.062564 
L 178.77157 288.72508 
L 182.050909 292.579498 
L 185.330248 285.965964 
L 188.609587 291.769452 
L 191.888926 286.795874 
L 195.168264 286.290241 
L 198.447603 291.585393 
L 201.726942 282.639981 
L 205.006281 269.729198 
L 208.28562 287.502959 
L 211.564959 281.617786 
L 214.844298 284.03523 
L 218.123636 279.299423 
L 221.402975 289.104951 
L 224.682314 287.339352 
L 227.961653 275.489551 
L 231.240992 293.037059 
L 234.520331 292.912237 
L 237.799669 286.39802 
L 241.079008 293.919623 
L 244.358347 294.168913 
L 247.637686 285.585976 
L 250.917025 279.586206 
L 254.196364 290.808022 
L 257.475702 274.284942 
L 260.755041 288.985419 
L 264.03438 282.248004 
L 267.313719 285.652736 
L 270.593058 287.364269 
L 273.872397 256.625542 
L 277.151736 267.448211 
L 280.431074 256.136365 
L 283.710413 295.488 
L 286.989752 230.081964 
L 290.269091 266.922716 
L 293.54843 294.977901 
L 296.827769 280.457605 
L 300.107107 291.690704 
L 303.386446 294.926304 
L 306.665785 288.92101 
L 309.945124 267.897427 
L 313.224463 287.559258 
L 316.503802 281.095111 
L 319.78314 292.673173 
L 323.062479 277.428866 
L 326.341818 295.479538 
L 329.621157 293.447253 
L 332.900496 295.277731 
L 336.179835 293.819602 
L 339.459174 285.306362 
L 342.738512 283.185457 
L 346.017851 292.833372 
L 349.29719 292.356536 
L 352.576529 288.2446 
L 355.855868 283.827076 
L 359.135207 282.967901 
L 362.414545 275.186195 
L 365.693884 275.136948 
L 368.973223 290.956938 
L 372.252562 289.508564 
L 375.531901 290.585647 
L 378.81124 288.568407 
L 382.090579 277.490806 
L 385.369917 290.404762 
L 388.649256 294.543612 
L 391.928595 292.507449 
L 395.207934 277.033951 
L 398.487273 291.150399 
" clip-path="url(#pae82325daa)" style="fill: none; stroke: #8b008b; stroke-width: 1.5; stroke-linecap: square"/>
    <defs>
     <path id="m7f4cea33d2" d="M 0 -3 
L -3 3 
L 3 3 
z
" style="stroke: #8b008b; stroke-linejoin: miter"/>
    </defs>
    <g clip-path="url(#pae82325daa)">
     <use xlink:href="#m7f4cea33d2" x="73.832727" y="269.367545" style="fill: #8b008b; stroke: #8b008b; stroke-linejoin: miter"/>
     <use xlink:href="#m7f4cea33d2" x="77.112066" y="282.0871" style="fill: #8b008b; stroke: #8b008b; stroke-linejoin: miter"/>
     <use xlink:href="#m7f4cea33d2" x="80.391405" y="269.474149" style="fill: #8b008b; stroke: #8b008b; stroke-linejoin: miter"/>
     <use xlink:href="#m7f4cea33d2" x="83.670744" y="274.239692" style="fill: #8b008b; stroke: #8b008b; stroke-linejoin: miter"/>
     <use xlink:href="#m7f4cea33d2" x="86.950083" y="266.43201" style="fill: #8b008b; stroke: #8b008b; stroke-linejoin: miter"/>
     <use xlink:href="#m7f4cea33d2" x="90.229421" y="276.719194" style="fill: #8b008b; stroke: #8b008b; stroke-linejoin: miter"/>
     <use xlink:href="#m7f4cea33d2" x="93.50876" y="271.641245" style="fill: #8b008b; stroke: #8b008b; stroke-linejoin: miter"/>
     <use xlink:href="#m7f4cea33d2" x="96.788099" y="229.325749" style="fill: #8b008b; stroke: #8b008b; stroke-linejoin: miter"/>
     <use xlink:href="#m7f4cea33d2" x="100.067438" y="289.455321" style="fill: #8b008b; stroke: #8b008b; stroke-linejoin: miter"/>
     <use xlink:href="#m7f4cea33d2" x="103.346777" y="293.343823" style="fill: #8b008b; stroke: #8b008b; stroke-linejoin: miter"/>
     <use xlink:href="#m7f4cea33d2" x="106.626116" y="269.031397" style="fill: #8b008b; stroke: #8b008b; stroke-linejoin: miter"/>
     <use xlink:href="#m7f4cea33d2" x="109.905455" y="290.732448" style="fill: #8b008b; stroke: #8b008b; stroke-linejoin: miter"/>
     <use xlink:href="#m7f4cea33d2" x="113.184793" y="281.655161" style="fill: #8b008b; stroke: #8b008b; stroke-linejoin: miter"/>
     <use xlink:href="#m7f4cea33d2" x="116.464132" y="291.187305" style="fill: #8b008b; stroke: #8b008b; stroke-linejoin: miter"/>
     <use xlink:href="#m7f4cea33d2" x="119.743471" y="275.432194" style="fill: #8b008b; stroke: #8b008b; stroke-linejoin: miter"/>
     <use xlink:href="#m7f4cea33d2" x="123.02281" y="288.63928" style="fill: #8b008b; stroke: #8b008b; stroke-linejoin: miter"/>
     <use xlink:href="#m7f4cea33d2" x="126.302149" y="274.013321" style="fill: #8b008b; stroke: #8b008b; stroke-linejoin: miter"/>
     <use xlink:href="#m7f4cea33d2" x="129.581488" y="285.085045" style="fill: #8b008b; stroke: #8b008b; stroke-linejoin: miter"/>
     <use xlink:href="#m7f4cea33d2" x="132.860826" y="292.048713" style="fill: #8b008b; stroke: #8b008b; stroke-linejoin: miter"/>
     <use xlink:href="#m7f4cea33d2" x="136.140165" y="285.103733" style="fill: #8b008b; stroke: #8b008b; stroke-linejoin: miter"/>
     <use xlink:href="#m7f4cea33d2" x="139.419504" y="286.5849" style="fill: #8b008b; stroke: #8b008b; stroke-linejoin: miter"/>
     <use xlink:href="#m7f4cea33d2" x="142.698843" y="257.107315" style="fill: #8b008b; stroke: #8b008b; stroke-linejoin: miter"/>
     <use xlink:href="#m7f4cea33d2" x="145.978182" y="293.923502" style="fill: #8b008b; stroke: #8b008b; stroke-linejoin: miter"/>
     <use xlink:href="#m7f4cea33d2" x="149.257521" y="283.451907" style="fill: #8b008b; stroke: #8b008b; stroke-linejoin: miter"/>
     <use xlink:href="#m7f4cea33d2" x="152.53686" y="292.936214" style="fill: #8b008b; stroke: #8b008b; stroke-linejoin: miter"/>
     <use xlink:href="#m7f4cea33d2" x="155.816198" y="282.698865" style="fill: #8b008b; stroke: #8b008b; stroke-linejoin: miter"/>
     <use xlink:href="#m7f4cea33d2" x="159.095537" y="288.824279" style="fill: #8b008b; stroke: #8b008b; stroke-linejoin: miter"/>
     <use xlink:href="#m7f4cea33d2" x="162.374876" y="279.159675" style="fill: #8b008b; stroke: #8b008b; stroke-linejoin: miter"/>
     <use xlink:href="#m7f4cea33d2" x="165.654215" y="295.198513" style="fill: #8b008b; stroke: #8b008b; stroke-linejoin: miter"/>
     <use xlink:href="#m7f4cea33d2" x="168.933554" y="293.208659" style="fill: #8b008b; stroke: #8b008b; stroke-linejoin: miter"/>
     <use xlink:href="#m7f4cea33d2" x="172.212893" y="285.145223" style="fill: #8b008b; stroke: #8b008b; stroke-linejoin: miter"/>
     <use xlink:href="#m7f4cea33d2" x="175.492231" y="293.062564" style="fill: #8b008b; stroke: #8b008b; stroke-linejoin: miter"/>
     <use xlink:href="#m7f4cea33d2" x="178.77157" y="288.72508" style="fill: #8b008b; stroke: #8b008b; stroke-linejoin: miter"/>
     <use xlink:href="#m7f4cea33d2" x="182.050909" y="292.579498" style="fill: #8b008b; stroke: #8b008b; stroke-linejoin: miter"/>
     <use xlink:href="#m7f4cea33d2" x="185.330248" y="285.965964" style="fill: #8b008b; stroke: #8b008b; stroke-linejoin: miter"/>
     <use xlink:href="#m7f4cea33d2" x="188.609587" y="291.769452" style="fill: #8b008b; stroke: #8b008b; stroke-linejoin: miter"/>
     <use xlink:href="#m7f4cea33d2" x="191.888926" y="286.795874" style="fill: #8b008b; stroke: #8b008b; stroke-linejoin: miter"/>
     <use xlink:href="#m7f4cea33d2" x="195.168264" y="286.290241" style="fill: #8b008b; stroke: #8b008b; stroke-linejoin: miter"/>
     <use xlink:href="#m7f4cea33d2" x="198.447603" y="291.585393" style="fill: #8b008b; stroke: #8b008b; stroke-linejoin: miter"/>
     <use xlink:href="#m7f4cea33d2" x="201.726942" y="282.639981" style="fill: #8b008b; stroke: #8b008b; stroke-linejoin: miter"/>
     <use xlink:href="#m7f4cea33d2" x="205.006281" y="269.729198" style="fill: #8b008b; stroke: #8b008b; stroke-linejoin: miter"/>
     <use xlink:href="#m7f4cea33d2" x="208.28562" y="287.502959" style="fill: #8b008b; stroke: #8b008b; stroke-linejoin: miter"/>
     <use xlink:href="#m7f4cea33d2" x="211.564959" y="281.617786" style="fill: #8b008b; stroke: #8b008b; stroke-linejoin: miter"/>
     <use xlink:href="#m7f4cea33d2" x="214.844298" y="284.03523" style="fill: #8b008b; stroke: #8b008b; stroke-linejoin: miter"/>
     <use xlink:href="#m7f4cea33d2" x="218.123636" y="279.299423" style="fill: #8b008b; stroke: #8b008b; stroke-linejoin: miter"/>
     <use xlink:href="#m7f4cea33d2" x="221.402975" y="289.104951" style="fill: #8b008b; stroke: #8b008b; stroke-linejoin: miter"/>
     <use xlink:href="#m7f4cea33d2" x="224.682314" y="287.339352" style="fill: #8b008b; stroke: #8b008b; stroke-linejoin: miter"/>
     <use xlink:href="#m7f4cea33d2" x="227.961653" y="275.489551" style="fill: #8b008b; stroke: #8b008b; stroke-linejoin: miter"/>
     <use xlink:href="#m7f4cea33d2" x="231.240992" y="293.037059" style="fill: #8b008b; stroke: #8b008b; stroke-linejoin: miter"/>
     <use xlink:href="#m7f4cea33d2" x="234.520331" y="292.912237" style="fill: #8b008b; stroke: #8b008b; stroke-linejoin: miter"/>
     <use xlink:href="#m7f4cea33d2" x="237.799669" y="286.39802" style="fill: #8b008b; stroke: #8b008b; stroke-linejoin: miter"/>
     <use xlink:href="#m7f4cea33d2" x="241.079008" y="293.919623" style="fill: #8b008b; stroke: #8b008b; stroke-linejoin: miter"/>
     <use xlink:href="#m7f4cea33d2" x="244.358347" y="294.168913" style="fill: #8b008b; stroke: #8b008b; stroke-linejoin: miter"/>
     <use xlink:href="#m7f4cea33d2" x="247.637686" y="285.585976" style="fill: #8b008b; stroke: #8b008b; stroke-linejoin: miter"/>
     <use xlink:href="#m7f4cea33d2" x="250.917025" y="279.586206" style="fill: #8b008b; stroke: #8b008b; stroke-linejoin: miter"/>
     <use xlink:href="#m7f4cea33d2" x="254.196364" y="290.808022" style="fill: #8b008b; stroke: #8b008b; stroke-linejoin: miter"/>
     <use xlink:href="#m7f4cea33d2" x="257.475702" y="274.284942" style="fill: #8b008b; stroke: #8b008b; stroke-linejoin: miter"/>
     <use xlink:href="#m7f4cea33d2" x="260.755041" y="288.985419" style="fill: #8b008b; stroke: #8b008b; stroke-linejoin: miter"/>
     <use xlink:href="#m7f4cea33d2" x="264.03438" y="282.248004" style="fill: #8b008b; stroke: #8b008b; stroke-linejoin: miter"/>
     <use xlink:href="#m7f4cea33d2" x="267.313719" y="285.652736" style="fill: #8b008b; stroke: #8b008b; stroke-linejoin: miter"/>
     <use xlink:href="#m7f4cea33d2" x="270.593058" y="287.364269" style="fill: #8b008b; stroke: #8b008b; stroke-linejoin: miter"/>
     <use xlink:href="#m7f4cea33d2" x="273.872397" y="256.625542" style="fill: #8b008b; stroke: #8b008b; stroke-linejoin: miter"/>
     <use xlink:href="#m7f4cea33d2" x="277.151736" y="267.448211" style="fill: #8b008b; stroke: #8b008b; stroke-linejoin: miter"/>
     <use xlink:href="#m7f4cea33d2" x="280.431074" y="256.136365" style="fill: #8b008b; stroke: #8b008b; stroke-linejoin: miter"/>
     <use xlink:href="#m7f4cea33d2" x="283.710413" y="295.488" style="fill: #8b008b; stroke: #8b008b; stroke-linejoin: miter"/>
     <use xlink:href="#m7f4cea33d2" x="286.989752" y="230.081964" style="fill: #8b008b; stroke: #8b008b; stroke-linejoin: miter"/>
     <use xlink:href="#m7f4cea33d2" x="290.269091" y="266.922716" style="fill: #8b008b; stroke: #8b008b; stroke-linejoin: miter"/>
     <use xlink:href="#m7f4cea33d2" x="293.54843" y="294.977901" style="fill: #8b008b; stroke: #8b008b; stroke-linejoin: miter"/>
     <use xlink:href="#m7f4cea33d2" x="296.827769" y="280.457605" style="fill: #8b008b; stroke: #8b008b; stroke-linejoin: miter"/>
     <use xlink:href="#m7f4cea33d2" x="300.107107" y="291.690704" style="fill: #8b008b; stroke: #8b008b; stroke-linejoin: miter"/>
     <use xlink:href="#m7f4cea33d2" x="303.386446" y="294.926304" style="fill: #8b008b; stroke: #8b008b; stroke-linejoin: miter"/>
     <use xlink:href="#m7f4cea33d2" x="306.665785" y="288.92101" style="fill: #8b008b; stroke: #8b008b; stroke-linejoin: miter"/>
     <use xlink:href="#m7f4cea33d2" x="309.945124" y="267.897427" style="fill: #8b008b; stroke: #8b008b; stroke-linejoin: miter"/>
     <use xlink:href="#m7f4cea33d2" x="313.224463" y="287.559258" style="fill: #8b008b; stroke: #8b008b; stroke-linejoin: miter"/>
     <use xlink:href="#m7f4cea33d2" x="316.503802" y="281.095111" style="fill: #8b008b; stroke: #8b008b; stroke-linejoin: miter"/>
     <use xlink:href="#m7f4cea33d2" x="319.78314" y="292.673173" style="fill: #8b008b; stroke: #8b008b; stroke-linejoin: miter"/>
     <use xlink:href="#m7f4cea33d2" x="323.062479" y="277.428866" style="fill: #8b008b; stroke: #8b008b; stroke-linejoin: miter"/>
     <use xlink:href="#m7f4cea33d2" x="326.341818" y="295.479538" style="fill: #8b008b; stroke: #8b008b; stroke-linejoin: miter"/>
     <use xlink:href="#m7f4cea33d2" x="329.621157" y="293.447253" style="fill: #8b008b; stroke: #8b008b; stroke-linejoin: miter"/>
     <use xlink:href="#m7f4cea33d2" x="332.900496" y="295.277731" style="fill: #8b008b; stroke: #8b008b; stroke-linejoin: miter"/>
     <use xlink:href="#m7f4cea33d2" x="336.179835" y="293.819602" style="fill: #8b008b; stroke: #8b008b; stroke-linejoin: miter"/>
     <use xlink:href="#m7f4cea33d2" x="339.459174" y="285.306362" style="fill: #8b008b; stroke: #8b008b; stroke-linejoin: miter"/>
     <use xlink:href="#m7f4cea33d2" x="342.738512" y="283.185457" style="fill: #8b008b; stroke: #8b008b; stroke-linejoin: miter"/>
     <use xlink:href="#m7f4cea33d2" x="346.017851" y="292.833372" style="fill: #8b008b; stroke: #8b008b; stroke-linejoin: miter"/>
     <use xlink:href="#m7f4cea33d2" x="349.29719" y="292.356536" style="fill: #8b008b; stroke: #8b008b; stroke-linejoin: miter"/>
     <use xlink:href="#m7f4cea33d2" x="352.576529" y="288.2446" style="fill: #8b008b; stroke: #8b008b; stroke-linejoin: miter"/>
     <use xlink:href="#m7f4cea33d2" x="355.855868" y="283.827076" style="fill: #8b008b; stroke: #8b008b; stroke-linejoin: miter"/>
     <use xlink:href="#m7f4cea33d2" x="359.135207" y="282.967901" style="fill: #8b008b; stroke: #8b008b; stroke-linejoin: miter"/>
     <use xlink:href="#m7f4cea33d2" x="362.414545" y="275.186195" style="fill: #8b008b; stroke: #8b008b; stroke-linejoin: miter"/>
     <use xlink:href="#m7f4cea33d2" x="365.693884" y="275.136948" style="fill: #8b008b; stroke: #8b008b; stroke-linejoin: miter"/>
     <use xlink:href="#m7f4cea33d2" x="368.973223" y="290.956938" style="fill: #8b008b; stroke: #8b008b; stroke-linejoin: miter"/>
     <use xlink:href="#m7f4cea33d2" x="372.252562" y="289.508564" style="fill: #8b008b; stroke: #8b008b; stroke-linejoin: miter"/>
     <use xlink:href="#m7f4cea33d2" x="375.531901" y="290.585647" style="fill: #8b008b; stroke: #8b008b; stroke-linejoin: miter"/>
     <use xlink:href="#m7f4cea33d2" x="378.81124" y="288.568407" style="fill: #8b008b; stroke: #8b008b; stroke-linejoin: miter"/>
     <use xlink:href="#m7f4cea33d2" x="382.090579" y="277.490806" style="fill: #8b008b; stroke: #8b008b; stroke-linejoin: miter"/>
     <use xlink:href="#m7f4cea33d2" x="385.369917" y="290.404762" style="fill: #8b008b; stroke: #8b008b; stroke-linejoin: miter"/>
     <use xlink:href="#m7f4cea33d2" x="388.649256" y="294.543612" style="fill: #8b008b; stroke: #8b008b; stroke-linejoin: miter"/>
     <use xlink:href="#m7f4cea33d2" x="391.928595" y="292.507449" style="fill: #8b008b; stroke: #8b008b; stroke-linejoin: miter"/>
     <use xlink:href="#m7f4cea33d2" x="395.207934" y="277.033951" style="fill: #8b008b; stroke: #8b008b; stroke-linejoin: miter"/>
     <use xlink:href="#m7f4cea33d2" x="398.487273" y="291.150399" style="fill: #8b008b; stroke: #8b008b; stroke-linejoin: miter"/>
    </g>
   </g>
   <g id="line2d_24">
    <path d="M 73.832727 141.275803 
L 77.112066 91.68106 
L 80.391405 138.029038 
L 83.670744 141.315295 
L 86.950083 144.490835 
L 90.229421 113.804058 
L 93.50876 104.385687 
L 96.788099 128.300259 
L 100.067438 173.234183 
L 103.346777 164.651129 
L 106.626116 167.878031 
L 109.905455 169.252594 
L 113.184793 138.8526 
L 116.464132 154.948678 
L 119.743471 166.967611 
L 123.02281 171.123856 
L 126.302149 158.867857 
L 129.581488 150.434541 
L 132.860826 166.357961 
L 136.140165 182.329099 
L 139.419504 162.813833 
L 142.698843 170.330618 
L 145.978182 155.578309 
L 149.257521 177.138083 
L 152.53686 168.551267 
L 155.816198 174.718523 
L 159.095537 173.154025 
L 162.374876 155.161885 
L 165.654215 185.159676 
L 168.933554 170.288775 
L 172.212893 188.216154 
L 175.492231 173.047539 
L 178.77157 176.428528 
L 182.050909 170.468133 
L 185.330248 133.40912 
L 188.609587 163.603428 
L 191.888926 182.196403 
L 195.168264 175.602145 
L 198.447603 178.542617 
L 201.726942 176.050773 
L 205.006281 146.717873 
L 208.28562 175.186309 
L 211.564959 156.996124 
L 214.844298 182.911129 
L 218.123636 173.423413 
L 221.402975 190.546035 
L 224.682314 190.695774 
L 227.961653 132.20075 
L 231.240992 168.08066 
L 234.520331 175.414678 
L 237.799669 178.265353 
L 241.079008 165.132079 
L 244.358347 159.464813 
L 247.637686 178.738546 
L 250.917025 168.985203 
L 254.196364 176.87269 
L 257.475702 171.652878 
L 260.755041 180.128624 
L 264.03438 160.635924 
L 267.313719 132.024096 
L 270.593058 123.094904 
L 273.872397 153.072949 
L 277.151736 139.736928 
L 280.431074 125.942758 
L 283.710413 114.75773 
L 286.989752 53.568 
L 290.269091 144.549954 
L 293.54843 162.688895 
L 296.827769 166.717733 
L 300.107107 170.212731 
L 303.386446 176.330975 
L 306.665785 166.182835 
L 309.945124 136.325144 
L 313.224463 145.107302 
L 316.503802 171.41299 
L 319.78314 178.296147 
L 323.062479 178.42614 
L 326.341818 153.587749 
L 329.621157 168.881421 
L 332.900496 191.701044 
L 336.179835 162.197719 
L 339.459174 168.224169 
L 342.738512 169.192651 
L 346.017851 173.582555 
L 349.29719 164.360466 
L 352.576529 177.074144 
L 355.855868 177.024897 
L 359.135207 149.957469 
L 362.414545 134.945527 
L 365.693884 165.960225 
L 368.973223 181.301615 
L 372.252562 173.971946 
L 375.531901 157.860471 
L 378.81124 177.015259 
L 382.090579 167.537769 
L 385.369917 158.861863 
L 388.649256 167.694912 
L 391.928595 167.834661 
L 395.207934 158.005743 
L 398.487273 174.97322 
" clip-path="url(#pae82325daa)" style="fill: none; stroke: #ffd700; stroke-width: 1.5; stroke-linecap: square"/>
    <defs>
     <path id="mb8b1ffdd14" d="M 0 -3 
L -0.673542 -0.927051 
L -2.85317 -0.927051 
L -1.089814 0.354102 
L -1.763356 2.427051 
L -0 1.145898 
L 1.763356 2.427051 
L 1.089814 0.354102 
L 2.85317 -0.927051 
L 0.673542 -0.927051 
z
" style="stroke: #ffd700; stroke-linejoin: bevel"/>
    </defs>
    <g clip-path="url(#pae82325daa)">
     <use xlink:href="#mb8b1ffdd14" x="73.832727" y="141.275803" style="fill: #ffd700; stroke: #ffd700; stroke-linejoin: bevel"/>
     <use xlink:href="#mb8b1ffdd14" x="77.112066" y="91.68106" style="fill: #ffd700; stroke: #ffd700; stroke-linejoin: bevel"/>
     <use xlink:href="#mb8b1ffdd14" x="80.391405" y="138.029038" style="fill: #ffd700; stroke: #ffd700; stroke-linejoin: bevel"/>
     <use xlink:href="#mb8b1ffdd14" x="83.670744" y="141.315295" style="fill: #ffd700; stroke: #ffd700; stroke-linejoin: bevel"/>
     <use xlink:href="#mb8b1ffdd14" x="86.950083" y="144.490835" style="fill: #ffd700; stroke: #ffd700; stroke-linejoin: bevel"/>
     <use xlink:href="#mb8b1ffdd14" x="90.229421" y="113.804058" style="fill: #ffd700; stroke: #ffd700; stroke-linejoin: bevel"/>
     <use xlink:href="#mb8b1ffdd14" x="93.50876" y="104.385687" style="fill: #ffd700; stroke: #ffd700; stroke-linejoin: bevel"/>
     <use xlink:href="#mb8b1ffdd14" x="96.788099" y="128.300259" style="fill: #ffd700; stroke: #ffd700; stroke-linejoin: bevel"/>
     <use xlink:href="#mb8b1ffdd14" x="100.067438" y="173.234183" style="fill: #ffd700; stroke: #ffd700; stroke-linejoin: bevel"/>
     <use xlink:href="#mb8b1ffdd14" x="103.346777" y="164.651129" style="fill: #ffd700; stroke: #ffd700; stroke-linejoin: bevel"/>
     <use xlink:href="#mb8b1ffdd14" x="106.626116" y="167.878031" style="fill: #ffd700; stroke: #ffd700; stroke-linejoin: bevel"/>
     <use xlink:href="#mb8b1ffdd14" x="109.905455" y="169.252594" style="fill: #ffd700; stroke: #ffd700; stroke-linejoin: bevel"/>
     <use xlink:href="#mb8b1ffdd14" x="113.184793" y="138.8526" style="fill: #ffd700; stroke: #ffd700; stroke-linejoin: bevel"/>
     <use xlink:href="#mb8b1ffdd14" x="116.464132" y="154.948678" style="fill: #ffd700; stroke: #ffd700; stroke-linejoin: bevel"/>
     <use xlink:href="#mb8b1ffdd14" x="119.743471" y="166.967611" style="fill: #ffd700; stroke: #ffd700; stroke-linejoin: bevel"/>
     <use xlink:href="#mb8b1ffdd14" x="123.02281" y="171.123856" style="fill: #ffd700; stroke: #ffd700; stroke-linejoin: bevel"/>
     <use xlink:href="#mb8b1ffdd14" x="126.302149" y="158.867857" style="fill: #ffd700; stroke: #ffd700; stroke-linejoin: bevel"/>
     <use xlink:href="#mb8b1ffdd14" x="129.581488" y="150.434541" style="fill: #ffd700; stroke: #ffd700; stroke-linejoin: bevel"/>
     <use xlink:href="#mb8b1ffdd14" x="132.860826" y="166.357961" style="fill: #ffd700; stroke: #ffd700; stroke-linejoin: bevel"/>
     <use xlink:href="#mb8b1ffdd14" x="136.140165" y="182.329099" style="fill: #ffd700; stroke: #ffd700; stroke-linejoin: bevel"/>
     <use xlink:href="#mb8b1ffdd14" x="139.419504" y="162.813833" style="fill: #ffd700; stroke: #ffd700; stroke-linejoin: bevel"/>
     <use xlink:href="#mb8b1ffdd14" x="142.698843" y="170.330618" style="fill: #ffd700; stroke: #ffd700; stroke-linejoin: bevel"/>
     <use xlink:href="#mb8b1ffdd14" x="145.978182" y="155.578309" style="fill: #ffd700; stroke: #ffd700; stroke-linejoin: bevel"/>
     <use xlink:href="#mb8b1ffdd14" x="149.257521" y="177.138083" style="fill: #ffd700; stroke: #ffd700; stroke-linejoin: bevel"/>
     <use xlink:href="#mb8b1ffdd14" x="152.53686" y="168.551267" style="fill: #ffd700; stroke: #ffd700; stroke-linejoin: bevel"/>
     <use xlink:href="#mb8b1ffdd14" x="155.816198" y="174.718523" style="fill: #ffd700; stroke: #ffd700; stroke-linejoin: bevel"/>
     <use xlink:href="#mb8b1ffdd14" x="159.095537" y="173.154025" style="fill: #ffd700; stroke: #ffd700; stroke-linejoin: bevel"/>
     <use xlink:href="#mb8b1ffdd14" x="162.374876" y="155.161885" style="fill: #ffd700; stroke: #ffd700; stroke-linejoin: bevel"/>
     <use xlink:href="#mb8b1ffdd14" x="165.654215" y="185.159676" style="fill: #ffd700; stroke: #ffd700; stroke-linejoin: bevel"/>
     <use xlink:href="#mb8b1ffdd14" x="168.933554" y="170.288775" style="fill: #ffd700; stroke: #ffd700; stroke-linejoin: bevel"/>
     <use xlink:href="#mb8b1ffdd14" x="172.212893" y="188.216154" style="fill: #ffd700; stroke: #ffd700; stroke-linejoin: bevel"/>
     <use xlink:href="#mb8b1ffdd14" x="175.492231" y="173.047539" style="fill: #ffd700; stroke: #ffd700; stroke-linejoin: bevel"/>
     <use xlink:href="#mb8b1ffdd14" x="178.77157" y="176.428528" style="fill: #ffd700; stroke: #ffd700; stroke-linejoin: bevel"/>
     <use xlink:href="#mb8b1ffdd14" x="182.050909" y="170.468133" style="fill: #ffd700; stroke: #ffd700; stroke-linejoin: bevel"/>
     <use xlink:href="#mb8b1ffdd14" x="185.330248" y="133.40912" style="fill: #ffd700; stroke: #ffd700; stroke-linejoin: bevel"/>
     <use xlink:href="#mb8b1ffdd14" x="188.609587" y="163.603428" style="fill: #ffd700; stroke: #ffd700; stroke-linejoin: bevel"/>
     <use xlink:href="#mb8b1ffdd14" x="191.888926" y="182.196403" style="fill: #ffd700; stroke: #ffd700; stroke-linejoin: bevel"/>
     <use xlink:href="#mb8b1ffdd14" x="195.168264" y="175.602145" style="fill: #ffd700; stroke: #ffd700; stroke-linejoin: bevel"/>
     <use xlink:href="#mb8b1ffdd14" x="198.447603" y="178.542617" style="fill: #ffd700; stroke: #ffd700; stroke-linejoin: bevel"/>
     <use xlink:href="#mb8b1ffdd14" x="201.726942" y="176.050773" style="fill: #ffd700; stroke: #ffd700; stroke-linejoin: bevel"/>
     <use xlink:href="#mb8b1ffdd14" x="205.006281" y="146.717873" style="fill: #ffd700; stroke: #ffd700; stroke-linejoin: bevel"/>
     <use xlink:href="#mb8b1ffdd14" x="208.28562" y="175.186309" style="fill: #ffd700; stroke: #ffd700; stroke-linejoin: bevel"/>
     <use xlink:href="#mb8b1ffdd14" x="211.564959" y="156.996124" style="fill: #ffd700; stroke: #ffd700; stroke-linejoin: bevel"/>
     <use xlink:href="#mb8b1ffdd14" x="214.844298" y="182.911129" style="fill: #ffd700; stroke: #ffd700; stroke-linejoin: bevel"/>
     <use xlink:href="#mb8b1ffdd14" x="218.123636" y="173.423413" style="fill: #ffd700; stroke: #ffd700; stroke-linejoin: bevel"/>
     <use xlink:href="#mb8b1ffdd14" x="221.402975" y="190.546035" style="fill: #ffd700; stroke: #ffd700; stroke-linejoin: bevel"/>
     <use xlink:href="#mb8b1ffdd14" x="224.682314" y="190.695774" style="fill: #ffd700; stroke: #ffd700; stroke-linejoin: bevel"/>
     <use xlink:href="#mb8b1ffdd14" x="227.961653" y="132.20075" style="fill: #ffd700; stroke: #ffd700; stroke-linejoin: bevel"/>
     <use xlink:href="#mb8b1ffdd14" x="231.240992" y="168.08066" style="fill: #ffd700; stroke: #ffd700; stroke-linejoin: bevel"/>
     <use xlink:href="#mb8b1ffdd14" x="234.520331" y="175.414678" style="fill: #ffd700; stroke: #ffd700; stroke-linejoin: bevel"/>
     <use xlink:href="#mb8b1ffdd14" x="237.799669" y="178.265353" style="fill: #ffd700; stroke: #ffd700; stroke-linejoin: bevel"/>
     <use xlink:href="#mb8b1ffdd14" x="241.079008" y="165.132079" style="fill: #ffd700; stroke: #ffd700; stroke-linejoin: bevel"/>
     <use xlink:href="#mb8b1ffdd14" x="244.358347" y="159.464813" style="fill: #ffd700; stroke: #ffd700; stroke-linejoin: bevel"/>
     <use xlink:href="#mb8b1ffdd14" x="247.637686" y="178.738546" style="fill: #ffd700; stroke: #ffd700; stroke-linejoin: bevel"/>
     <use xlink:href="#mb8b1ffdd14" x="250.917025" y="168.985203" style="fill: #ffd700; stroke: #ffd700; stroke-linejoin: bevel"/>
     <use xlink:href="#mb8b1ffdd14" x="254.196364" y="176.87269" style="fill: #ffd700; stroke: #ffd700; stroke-linejoin: bevel"/>
     <use xlink:href="#mb8b1ffdd14" x="257.475702" y="171.652878" style="fill: #ffd700; stroke: #ffd700; stroke-linejoin: bevel"/>
     <use xlink:href="#mb8b1ffdd14" x="260.755041" y="180.128624" style="fill: #ffd700; stroke: #ffd700; stroke-linejoin: bevel"/>
     <use xlink:href="#mb8b1ffdd14" x="264.03438" y="160.635924" style="fill: #ffd700; stroke: #ffd700; stroke-linejoin: bevel"/>
     <use xlink:href="#mb8b1ffdd14" x="267.313719" y="132.024096" style="fill: #ffd700; stroke: #ffd700; stroke-linejoin: bevel"/>
     <use xlink:href="#mb8b1ffdd14" x="270.593058" y="123.094904" style="fill: #ffd700; stroke: #ffd700; stroke-linejoin: bevel"/>
     <use xlink:href="#mb8b1ffdd14" x="273.872397" y="153.072949" style="fill: #ffd700; stroke: #ffd700; stroke-linejoin: bevel"/>
     <use xlink:href="#mb8b1ffdd14" x="277.151736" y="139.736928" style="fill: #ffd700; stroke: #ffd700; stroke-linejoin: bevel"/>
     <use xlink:href="#mb8b1ffdd14" x="280.431074" y="125.942758" style="fill: #ffd700; stroke: #ffd700; stroke-linejoin: bevel"/>
     <use xlink:href="#mb8b1ffdd14" x="283.710413" y="114.75773" style="fill: #ffd700; stroke: #ffd700; stroke-linejoin: bevel"/>
     <use xlink:href="#mb8b1ffdd14" x="286.989752" y="53.568" style="fill: #ffd700; stroke: #ffd700; stroke-linejoin: bevel"/>
     <use xlink:href="#mb8b1ffdd14" x="290.269091" y="144.549954" style="fill: #ffd700; stroke: #ffd700; stroke-linejoin: bevel"/>
     <use xlink:href="#mb8b1ffdd14" x="293.54843" y="162.688895" style="fill: #ffd700; stroke: #ffd700; stroke-linejoin: bevel"/>
     <use xlink:href="#mb8b1ffdd14" x="296.827769" y="166.717733" style="fill: #ffd700; stroke: #ffd700; stroke-linejoin: bevel"/>
     <use xlink:href="#mb8b1ffdd14" x="300.107107" y="170.212731" style="fill: #ffd700; stroke: #ffd700; stroke-linejoin: bevel"/>
     <use xlink:href="#mb8b1ffdd14" x="303.386446" y="176.330975" style="fill: #ffd700; stroke: #ffd700; stroke-linejoin: bevel"/>
     <use xlink:href="#mb8b1ffdd14" x="306.665785" y="166.182835" style="fill: #ffd700; stroke: #ffd700; stroke-linejoin: bevel"/>
     <use xlink:href="#mb8b1ffdd14" x="309.945124" y="136.325144" style="fill: #ffd700; stroke: #ffd700; stroke-linejoin: bevel"/>
     <use xlink:href="#mb8b1ffdd14" x="313.224463" y="145.107302" style="fill: #ffd700; stroke: #ffd700; stroke-linejoin: bevel"/>
     <use xlink:href="#mb8b1ffdd14" x="316.503802" y="171.41299" style="fill: #ffd700; stroke: #ffd700; stroke-linejoin: bevel"/>
     <use xlink:href="#mb8b1ffdd14" x="319.78314" y="178.296147" style="fill: #ffd700; stroke: #ffd700; stroke-linejoin: bevel"/>
     <use xlink:href="#mb8b1ffdd14" x="323.062479" y="178.42614" style="fill: #ffd700; stroke: #ffd700; stroke-linejoin: bevel"/>
     <use xlink:href="#mb8b1ffdd14" x="326.341818" y="153.587749" style="fill: #ffd700; stroke: #ffd700; stroke-linejoin: bevel"/>
     <use xlink:href="#mb8b1ffdd14" x="329.621157" y="168.881421" style="fill: #ffd700; stroke: #ffd700; stroke-linejoin: bevel"/>
     <use xlink:href="#mb8b1ffdd14" x="332.900496" y="191.701044" style="fill: #ffd700; stroke: #ffd700; stroke-linejoin: bevel"/>
     <use xlink:href="#mb8b1ffdd14" x="336.179835" y="162.197719" style="fill: #ffd700; stroke: #ffd700; stroke-linejoin: bevel"/>
     <use xlink:href="#mb8b1ffdd14" x="339.459174" y="168.224169" style="fill: #ffd700; stroke: #ffd700; stroke-linejoin: bevel"/>
     <use xlink:href="#mb8b1ffdd14" x="342.738512" y="169.192651" style="fill: #ffd700; stroke: #ffd700; stroke-linejoin: bevel"/>
     <use xlink:href="#mb8b1ffdd14" x="346.017851" y="173.582555" style="fill: #ffd700; stroke: #ffd700; stroke-linejoin: bevel"/>
     <use xlink:href="#mb8b1ffdd14" x="349.29719" y="164.360466" style="fill: #ffd700; stroke: #ffd700; stroke-linejoin: bevel"/>
     <use xlink:href="#mb8b1ffdd14" x="352.576529" y="177.074144" style="fill: #ffd700; stroke: #ffd700; stroke-linejoin: bevel"/>
     <use xlink:href="#mb8b1ffdd14" x="355.855868" y="177.024897" style="fill: #ffd700; stroke: #ffd700; stroke-linejoin: bevel"/>
     <use xlink:href="#mb8b1ffdd14" x="359.135207" y="149.957469" style="fill: #ffd700; stroke: #ffd700; stroke-linejoin: bevel"/>
     <use xlink:href="#mb8b1ffdd14" x="362.414545" y="134.945527" style="fill: #ffd700; stroke: #ffd700; stroke-linejoin: bevel"/>
     <use xlink:href="#mb8b1ffdd14" x="365.693884" y="165.960225" style="fill: #ffd700; stroke: #ffd700; stroke-linejoin: bevel"/>
     <use xlink:href="#mb8b1ffdd14" x="368.973223" y="181.301615" style="fill: #ffd700; stroke: #ffd700; stroke-linejoin: bevel"/>
     <use xlink:href="#mb8b1ffdd14" x="372.252562" y="173.971946" style="fill: #ffd700; stroke: #ffd700; stroke-linejoin: bevel"/>
     <use xlink:href="#mb8b1ffdd14" x="375.531901" y="157.860471" style="fill: #ffd700; stroke: #ffd700; stroke-linejoin: bevel"/>
     <use xlink:href="#mb8b1ffdd14" x="378.81124" y="177.015259" style="fill: #ffd700; stroke: #ffd700; stroke-linejoin: bevel"/>
     <use xlink:href="#mb8b1ffdd14" x="382.090579" y="167.537769" style="fill: #ffd700; stroke: #ffd700; stroke-linejoin: bevel"/>
     <use xlink:href="#mb8b1ffdd14" x="385.369917" y="158.861863" style="fill: #ffd700; stroke: #ffd700; stroke-linejoin: bevel"/>
     <use xlink:href="#mb8b1ffdd14" x="388.649256" y="167.694912" style="fill: #ffd700; stroke: #ffd700; stroke-linejoin: bevel"/>
     <use xlink:href="#mb8b1ffdd14" x="391.928595" y="167.834661" style="fill: #ffd700; stroke: #ffd700; stroke-linejoin: bevel"/>
     <use xlink:href="#mb8b1ffdd14" x="395.207934" y="158.005743" style="fill: #ffd700; stroke: #ffd700; stroke-linejoin: bevel"/>
     <use xlink:href="#mb8b1ffdd14" x="398.487273" y="174.97322" style="fill: #ffd700; stroke: #ffd700; stroke-linejoin: bevel"/>
    </g>
   </g>
   <g id="patch_3">
    <path d="M 57.6 307.584 
L 57.6 41.472 
" style="fill: none; stroke: #000000; stroke-width: 0.8; stroke-linejoin: miter; stroke-linecap: square"/>
   </g>
   <g id="patch_4">
    <path d="M 414.72 307.584 
L 414.72 41.472 
" style="fill: none; stroke: #000000; stroke-width: 0.8; stroke-linejoin: miter; stroke-linecap: square"/>
   </g>
   <g id="patch_5">
    <path d="M 57.6 307.584 
L 414.72 307.584 
" style="fill: none; stroke: #000000; stroke-width: 0.8; stroke-linejoin: miter; stroke-linecap: square"/>
   </g>
   <g id="patch_6">
    <path d="M 57.6 41.472 
L 414.72 41.472 
" style="fill: none; stroke: #000000; stroke-width: 0.8; stroke-linejoin: miter; stroke-linecap: square"/>
   </g>
   <g id="text_15">
    <!-- Get home NsPerOp -->
    <g transform="translate(178.937813 35.472) scale(0.12 -0.12)">
     <defs>
      <path id="DejaVuSans-47" d="M 3809 666 
L 3809 1919 
L 2778 1919 
L 2778 2438 
L 4434 2438 
L 4434 434 
Q 4069 175 3628 42 
Q 3188 -91 2688 -91 
Q 1594 -91 976 548 
Q 359 1188 359 2328 
Q 359 3472 976 4111 
Q 1594 4750 2688 4750 
Q 3144 4750 3555 4637 
Q 3966 4525 4313 4306 
L 4313 3634 
Q 3963 3931 3569 4081 
Q 3175 4231 2741 4231 
Q 1884 4231 1454 3753 
Q 1025 3275 1025 2328 
Q 1025 1384 1454 906 
Q 1884 428 2741 428 
Q 3075 428 3337 486 
Q 3600 544 3809 666 
z
" transform="scale(0.015625)"/>
      <path id="DejaVuSans-74" d="M 1172 4494 
L 1172 3500 
L 2356 3500 
L 2356 3053 
L 1172 3053 
L 1172 1153 
Q 1172 725 1289 603 
Q 1406 481 1766 481 
L 2356 481 
L 2356 0 
L 1766 0 
Q 1100 0 847 248 
Q 594 497 594 1153 
L 594 3053 
L 172 3053 
L 172 3500 
L 594 3500 
L 594 4494 
L 1172 4494 
z
" transform="scale(0.015625)"/>
      <path id="DejaVuSans-68" d="M 3513 2113 
L 3513 0 
L 2938 0 
L 2938 2094 
Q 2938 2591 2744 2837 
Q 2550 3084 2163 3084 
Q 1697 3084 1428 2787 
Q 1159 2491 1159 1978 
L 1159 0 
L 581 0 
L 581 4863 
L 1159 4863 
L 1159 2956 
Q 1366 3272 1645 3428 
Q 1925 3584 2291 3584 
Q 2894 3584 3203 3211 
Q 3513 2838 3513 2113 
z
" transform="scale(0.015625)"/>
      <path id="DejaVuSans-6f" d="M 1959 3097 
Q 1497 3097 1228 2736 
Q 959 2375 959 1747 
Q 959 1119 1226 758 
Q 1494 397 1959 397 
Q 2419 397 2687 759 
Q 2956 1122 2956 1747 
Q 2956 2369 2687 2733 
Q 2419 3097 1959 3097 
z
M 1959 3584 
Q 2709 3584 3137 3096 
Q 3566 2609 3566 1747 
Q 3566 888 3137 398 
Q 2709 -91 1959 -91 
Q 1206 -91 779 398 
Q 353 888 353 1747 
Q 353 2609 779 3096 
Q 1206 3584 1959 3584 
z
" transform="scale(0.015625)"/>
      <path id="DejaVuSans-6d" d="M 3328 2828 
Q 3544 3216 3844 3400 
Q 4144 3584 4550 3584 
Q 5097 3584 5394 3201 
Q 5691 2819 5691 2113 
L 5691 0 
L 5113 0 
L 5113 2094 
Q 5113 2597 4934 2840 
Q 4756 3084 4391 3084 
Q 3944 3084 3684 2787 
Q 3425 2491 3425 1978 
L 3425 0 
L 2847 0 
L 2847 2094 
Q 2847 2600 2669 2842 
Q 2491 3084 2119 3084 
Q 1678 3084 1418 2786 
Q 1159 2488 1159 1978 
L 1159 0 
L 581 0 
L 581 3500 
L 1159 3500 
L 1159 2956 
Q 1356 3278 1631 3431 
Q 1906 3584 2284 3584 
Q 2666 3584 2933 3390 
Q 3200 3197 3328 2828 
z
" transform="scale(0.015625)"/>
     </defs>
     <use xlink:href="#DejaVuSans-47"/>
     <use xlink:href="#DejaVuSans-65" x="77.490234"/>
     <use xlink:href="#DejaVuSans-74" x="139.013672"/>
     <use xlink:href="#DejaVuSans-20" x="178.222656"/>
     <use xlink:href="#DejaVuSans-68" x="210.009766"/>
     <use xlink:href="#DejaVuSans-6f" x="273.388672"/>
     <use xlink:href="#DejaVuSans-6d" x="334.570312"/>
     <use xlink:href="#DejaVuSans-65" x="431.982422"/>
     <use xlink:href="#DejaVuSans-20" x="493.505859"/>
     <use xlink:href="#DejaVuSans-4e" x="525.292969"/>
     <use xlink:href="#DejaVuSans-73" x="600.097656"/>
     <use xlink:href="#DejaVuSans-50" x="652.197266"/>
     <use xlink:href="#DejaVuSans-65" x="708.875"/>
     <use xlink:href="#DejaVuSans-72" x="770.398438"/>
     <use xlink:href="#DejaVuSans-4f" x="811.511719"/>
     <use xlink:href="#DejaVuSans-70" x="890.222656"/>
    </g>
   </g>
   <g id="legend_1">
    <g id="patch_7">
     <path d="M 349.57625 78.82825 
L 407.72 78.82825 
Q 409.72 78.82825 409.72 76.82825 
L 409.72 48.472 
Q 409.72 46.472 407.72 46.472 
L 349.57625 46.472 
Q 347.57625 46.472 347.57625 48.472 
L 347.57625 76.82825 
Q 347.57625 78.82825 349.57625 78.82825 
z
" style="fill: #ffffff; opacity: 0.8; stroke: #cccccc; stroke-linejoin: miter"/>
    </g>
    <g id="line2d_25">
     <path d="M 351.57625 54.570437 
L 361.57625 54.570437 
L 371.57625 54.570437 
" style="fill: none; stroke: #8b008b; stroke-width: 1.5; stroke-linecap: square"/>
     <g>
      <use xlink:href="#m7f4cea33d2" x="361.57625" y="54.570437" style="fill: #8b008b; stroke: #8b008b; stroke-linejoin: miter"/>
     </g>
    </g>
    <g id="text_16">
     <!-- gorm -->
     <g transform="translate(379.57625 58.070437) scale(0.1 -0.1)">
      <defs>
       <path id="DejaVuSans-67" d="M 2906 1791 
Q 2906 2416 2648 2759 
Q 2391 3103 1925 3103 
Q 1463 3103 1205 2759 
Q 947 2416 947 1791 
Q 947 1169 1205 825 
Q 1463 481 1925 481 
Q 2391 481 2648 825 
Q 2906 1169 2906 1791 
z
M 3481 434 
Q 3481 -459 3084 -895 
Q 2688 -1331 1869 -1331 
Q 1566 -1331 1297 -1286 
Q 1028 -1241 775 -1147 
L 775 -588 
Q 1028 -725 1275 -790 
Q 1522 -856 1778 -856 
Q 2344 -856 2625 -561 
Q 2906 -266 2906 331 
L 2906 616 
Q 2728 306 2450 153 
Q 2172 0 1784 0 
Q 1141 0 747 490 
Q 353 981 353 1791 
Q 353 2603 747 3093 
Q 1141 3584 1784 3584 
Q 2172 3584 2450 3431 
Q 2728 3278 2906 2969 
L 2906 3500 
L 3481 3500 
L 3481 434 
z
" transform="scale(0.015625)"/>
      </defs>
      <use xlink:href="#DejaVuSans-67"/>
      <use xlink:href="#DejaVuSans-6f" x="63.476562"/>
      <use xlink:href="#DejaVuSans-72" x="124.658203"/>
      <use xlink:href="#DejaVuSans-6d" x="164.021484"/>
     </g>
    </g>
    <g id="line2d_26">
     <path d="M 351.57625 69.248562 
L 361.57625 69.248562 
L 371.57625 69.248562 
" style="fill: none; stroke: #ffd700; stroke-width: 1.5; stroke-linecap: square"/>
     <g>
      <use xlink:href="#mb8b1ffdd14" x="361.57625" y="69.248562" style="fill: #ffd700; stroke: #ffd700; stroke-linejoin: bevel"/>
     </g>
    </g>
    <g id="text_17">
     <!-- sqlx -->
     <g transform="translate(379.57625 72.748562) scale(0.1 -0.1)">
      <defs>
       <path id="DejaVuSans-71" d="M 947 1747 
Q 947 1113 1208 752 
Q 1469 391 1925 391 
Q 2381 391 2643 752 
Q 2906 1113 2906 1747 
Q 2906 2381 2643 2742 
Q 2381 3103 1925 3103 
Q 1469 3103 1208 2742 
Q 947 2381 947 1747 
z
M 2906 525 
Q 2725 213 2448 61 
Q 2172 -91 1784 -91 
Q 1150 -91 751 415 
Q 353 922 353 1747 
Q 353 2572 751 3078 
Q 1150 3584 1784 3584 
Q 2172 3584 2448 3432 
Q 2725 3281 2906 2969 
L 2906 3500 
L 3481 3500 
L 3481 -1331 
L 2906 -1331 
L 2906 525 
z
" transform="scale(0.015625)"/>
       <path id="DejaVuSans-6c" d="M 603 4863 
L 1178 4863 
L 1178 0 
L 603 0 
L 603 4863 
z
" transform="scale(0.015625)"/>
       <path id="DejaVuSans-78" d="M 3513 3500 
L 2247 1797 
L 3578 0 
L 2900 0 
L 1881 1375 
L 863 0 
L 184 0 
L 1544 1831 
L 300 3500 
L 978 3500 
L 1906 2253 
L 2834 3500 
L 3513 3500 
z
" transform="scale(0.015625)"/>
      </defs>
      <use xlink:href="#DejaVuSans-73"/>
      <use xlink:href="#DejaVuSans-71" x="52.099609"/>
      <use xlink:href="#DejaVuSans-6c" x="115.576172"/>
      <use xlink:href="#DejaVuSans-78" x="143.359375"/>
     </g>
    </g>
   </g>
  </g>
 </g>
 <defs>
  <clipPath id="pae82325daa">
   <rect x="57.6" y="41.472" width="357.12" height="266.112"/>
  </clipPath>
 </defs>
</svg>
