<?xml version="1.0" encoding="utf-8" standalone="no"?>
<!DOCTYPE svg PUBLIC "-//W3C//DTD SVG 1.1//EN"
  "http://www.w3.org/Graphics/SVG/1.1/DTD/svg11.dtd">
<svg xmlns:xlink="http://www.w3.org/1999/xlink" width="460.8pt" height="345.6pt" viewBox="0 0 460.8 345.6" xmlns="http://www.w3.org/2000/svg" version="1.1">
 <metadata>
  <rdf:RDF xmlns:dc="http://purl.org/dc/elements/1.1/" xmlns:cc="http://creativecommons.org/ns#" xmlns:rdf="http://www.w3.org/1999/02/22-rdf-syntax-ns#">
   <cc:Work>
    <dc:type rdf:resource="http://purl.org/dc/dcmitype/StillImage"/>
    <dc:date>2024-11-09T15:34:24.679586</dc:date>
    <dc:format>image/svg+xml</dc:format>
    <dc:creator>
     <cc:Agent>
      <dc:title>Matplotlib v3.6.3, https://matplotlib.org/</dc:title>
     </cc:Agent>
    </dc:creator>
   </cc:Work>
  </rdf:RDF>
 </metadata>
 <defs>
  <style type="text/css">*{stroke-linejoin: round; stroke-linecap: butt}</style>
 </defs>
 <g id="figure_1">
  <g id="patch_1">
   <path d="M 0 345.6 
L 460.8 345.6 
L 460.8 0 
L 0 0 
z
" style="fill: #ffffff"/>
  </g>
  <g id="axes_1">
   <g id="patch_2">
    <path d="M 57.6 307.584 
L 414.72 307.584 
L 414.72 41.472 
L 57.6 41.472 
z
" style="fill: #ffffff"/>
   </g>
   <g id="matplotlib.axis_1">
    <g id="xtick_1">
     <g id="line2d_1">
      <path d="M 70.553388 307.584 
L 70.553388 41.472 
" clip-path="url(#p5822468283)" style="fill: none; stroke: #b0b0b0; stroke-width: 0.8; stroke-linecap: square"/>
     </g>
     <g id="line2d_2">
      <defs>
       <path id="mb3fe7f2f8f" d="M 0 0 
L 0 3.5 
" style="stroke: #000000; stroke-width: 0.8"/>
      </defs>
      <g>
       <use xlink:href="#mb3fe7f2f8f" x="70.553388" y="307.584" style="stroke: #000000; stroke-width: 0.8"/>
      </g>
     </g>
     <g id="text_1">
      <!-- 0 -->
      <g transform="translate(67.372138 322.182437) scale(0.1 -0.1)">
       <defs>
        <path id="DejaVuSans-30" d="M 2034 4250 
Q 1547 4250 1301 3770 
Q 1056 3291 1056 2328 
Q 1056 1369 1301 889 
Q 1547 409 2034 409 
Q 2525 409 2770 889 
Q 3016 1369 3016 2328 
Q 3016 3291 2770 3770 
Q 2525 4250 2034 4250 
z
M 2034 4750 
Q 2819 4750 3233 4129 
Q 3647 3509 3647 2328 
Q 3647 1150 3233 529 
Q 2819 -91 2034 -91 
Q 1250 -91 836 529 
Q 422 1150 422 2328 
Q 422 3509 836 4129 
Q 1250 4750 2034 4750 
z
" transform="scale(0.015625)"/>
       </defs>
       <use xlink:href="#DejaVuSans-30"/>
      </g>
     </g>
    </g>
    <g id="xtick_2">
     <g id="line2d_3">
      <path d="M 136.140165 307.584 
L 136.140165 41.472 
" clip-path="url(#p5822468283)" style="fill: none; stroke: #b0b0b0; stroke-width: 0.8; stroke-linecap: square"/>
     </g>
     <g id="line2d_4">
      <g>
       <use xlink:href="#mb3fe7f2f8f" x="136.140165" y="307.584" style="stroke: #000000; stroke-width: 0.8"/>
      </g>
     </g>
     <g id="text_2">
      <!-- 20 -->
      <g transform="translate(129.777665 322.182437) scale(0.1 -0.1)">
       <defs>
        <path id="DejaVuSans-32" d="M 1228 531 
L 3431 531 
L 3431 0 
L 469 0 
L 469 531 
Q 828 903 1448 1529 
Q 2069 2156 2228 2338 
Q 2531 2678 2651 2914 
Q 2772 3150 2772 3378 
Q 2772 3750 2511 3984 
Q 2250 4219 1831 4219 
Q 1534 4219 1204 4116 
Q 875 4013 500 3803 
L 500 4441 
Q 881 4594 1212 4672 
Q 1544 4750 1819 4750 
Q 2544 4750 2975 4387 
Q 3406 4025 3406 3419 
Q 3406 3131 3298 2873 
Q 3191 2616 2906 2266 
Q 2828 2175 2409 1742 
Q 1991 1309 1228 531 
z
" transform="scale(0.015625)"/>
       </defs>
       <use xlink:href="#DejaVuSans-32"/>
       <use xlink:href="#DejaVuSans-30" x="63.623047"/>
      </g>
     </g>
    </g>
    <g id="xtick_3">
     <g id="line2d_5">
      <path d="M 201.726942 307.584 
L 201.726942 41.472 
" clip-path="url(#p5822468283)" style="fill: none; stroke: #b0b0b0; stroke-width: 0.8; stroke-linecap: square"/>
     </g>
     <g id="line2d_6">
      <g>
       <use xlink:href="#mb3fe7f2f8f" x="201.726942" y="307.584" style="stroke: #000000; stroke-width: 0.8"/>
      </g>
     </g>
     <g id="text_3">
      <!-- 40 -->
      <g transform="translate(195.364442 322.182437) scale(0.1 -0.1)">
       <defs>
        <path id="DejaVuSans-34" d="M 2419 4116 
L 825 1625 
L 2419 1625 
L 2419 4116 
z
M 2253 4666 
L 3047 4666 
L 3047 1625 
L 3713 1625 
L 3713 1100 
L 3047 1100 
L 3047 0 
L 2419 0 
L 2419 1100 
L 313 1100 
L 313 1709 
L 2253 4666 
z
" transform="scale(0.015625)"/>
       </defs>
       <use xlink:href="#DejaVuSans-34"/>
       <use xlink:href="#DejaVuSans-30" x="63.623047"/>
      </g>
     </g>
    </g>
    <g id="xtick_4">
     <g id="line2d_7">
      <path d="M 267.313719 307.584 
L 267.313719 41.472 
" clip-path="url(#p5822468283)" style="fill: none; stroke: #b0b0b0; stroke-width: 0.8; stroke-linecap: square"/>
     </g>
     <g id="line2d_8">
      <g>
       <use xlink:href="#mb3fe7f2f8f" x="267.313719" y="307.584" style="stroke: #000000; stroke-width: 0.8"/>
      </g>
     </g>
     <g id="text_4">
      <!-- 60 -->
      <g transform="translate(260.951219 322.182437) scale(0.1 -0.1)">
       <defs>
        <path id="DejaVuSans-36" d="M 2113 2584 
Q 1688 2584 1439 2293 
Q 1191 2003 1191 1497 
Q 1191 994 1439 701 
Q 1688 409 2113 409 
Q 2538 409 2786 701 
Q 3034 994 3034 1497 
Q 3034 2003 2786 2293 
Q 2538 2584 2113 2584 
z
M 3366 4563 
L 3366 3988 
Q 3128 4100 2886 4159 
Q 2644 4219 2406 4219 
Q 1781 4219 1451 3797 
Q 1122 3375 1075 2522 
Q 1259 2794 1537 2939 
Q 1816 3084 2150 3084 
Q 2853 3084 3261 2657 
Q 3669 2231 3669 1497 
Q 3669 778 3244 343 
Q 2819 -91 2113 -91 
Q 1303 -91 875 529 
Q 447 1150 447 2328 
Q 447 3434 972 4092 
Q 1497 4750 2381 4750 
Q 2619 4750 2861 4703 
Q 3103 4656 3366 4563 
z
" transform="scale(0.015625)"/>
       </defs>
       <use xlink:href="#DejaVuSans-36"/>
       <use xlink:href="#DejaVuSans-30" x="63.623047"/>
      </g>
     </g>
    </g>
    <g id="xtick_5">
     <g id="line2d_9">
      <path d="M 332.900496 307.584 
L 332.900496 41.472 
" clip-path="url(#p5822468283)" style="fill: none; stroke: #b0b0b0; stroke-width: 0.8; stroke-linecap: square"/>
     </g>
     <g id="line2d_10">
      <g>
       <use xlink:href="#mb3fe7f2f8f" x="332.900496" y="307.584" style="stroke: #000000; stroke-width: 0.8"/>
      </g>
     </g>
     <g id="text_5">
      <!-- 80 -->
      <g transform="translate(326.537996 322.182437) scale(0.1 -0.1)">
       <defs>
        <path id="DejaVuSans-38" d="M 2034 2216 
Q 1584 2216 1326 1975 
Q 1069 1734 1069 1313 
Q 1069 891 1326 650 
Q 1584 409 2034 409 
Q 2484 409 2743 651 
Q 3003 894 3003 1313 
Q 3003 1734 2745 1975 
Q 2488 2216 2034 2216 
z
M 1403 2484 
Q 997 2584 770 2862 
Q 544 3141 544 3541 
Q 544 4100 942 4425 
Q 1341 4750 2034 4750 
Q 2731 4750 3128 4425 
Q 3525 4100 3525 3541 
Q 3525 3141 3298 2862 
Q 3072 2584 2669 2484 
Q 3125 2378 3379 2068 
Q 3634 1759 3634 1313 
Q 3634 634 3220 271 
Q 2806 -91 2034 -91 
Q 1263 -91 848 271 
Q 434 634 434 1313 
Q 434 1759 690 2068 
Q 947 2378 1403 2484 
z
M 1172 3481 
Q 1172 3119 1398 2916 
Q 1625 2713 2034 2713 
Q 2441 2713 2670 2916 
Q 2900 3119 2900 3481 
Q 2900 3844 2670 4047 
Q 2441 4250 2034 4250 
Q 1625 4250 1398 4047 
Q 1172 3844 1172 3481 
z
" transform="scale(0.015625)"/>
       </defs>
       <use xlink:href="#DejaVuSans-38"/>
       <use xlink:href="#DejaVuSans-30" x="63.623047"/>
      </g>
     </g>
    </g>
    <g id="xtick_6">
     <g id="line2d_11">
      <path d="M 398.487273 307.584 
L 398.487273 41.472 
" clip-path="url(#p5822468283)" style="fill: none; stroke: #b0b0b0; stroke-width: 0.8; stroke-linecap: square"/>
     </g>
     <g id="line2d_12">
      <g>
       <use xlink:href="#mb3fe7f2f8f" x="398.487273" y="307.584" style="stroke: #000000; stroke-width: 0.8"/>
      </g>
     </g>
     <g id="text_6">
      <!-- 100 -->
      <g transform="translate(388.943523 322.182437) scale(0.1 -0.1)">
       <defs>
        <path id="DejaVuSans-31" d="M 794 531 
L 1825 531 
L 1825 4091 
L 703 3866 
L 703 4441 
L 1819 4666 
L 2450 4666 
L 2450 531 
L 3481 531 
L 3481 0 
L 794 0 
L 794 531 
z
" transform="scale(0.015625)"/>
       </defs>
       <use xlink:href="#DejaVuSans-31"/>
       <use xlink:href="#DejaVuSans-30" x="63.623047"/>
       <use xlink:href="#DejaVuSans-30" x="127.246094"/>
      </g>
     </g>
    </g>
    <g id="text_7">
     <!-- Номер бенчмарка -->
     <g transform="translate(189.251406 336.030875) scale(0.1 -0.1)">
      <defs>
       <path id="DejaVuSans-41d" d="M 628 4666 
L 1259 4666 
L 1259 2753 
L 3553 2753 
L 3553 4666 
L 4184 4666 
L 4184 0 
L 3553 0 
L 3553 2222 
L 1259 2222 
L 1259 0 
L 628 0 
L 628 4666 
z
" transform="scale(0.015625)"/>
       <path id="DejaVuSans-43e" d="M 1959 3097 
Q 1497 3097 1228 2736 
Q 959 2375 959 1747 
Q 959 1119 1226 758 
Q 1494 397 1959 397 
Q 2419 397 2687 759 
Q 2956 1122 2956 1747 
Q 2956 2369 2687 2733 
Q 2419 3097 1959 3097 
z
M 1959 3584 
Q 2709 3584 3137 3096 
Q 3566 2609 3566 1747 
Q 3566 888 3137 398 
Q 2709 -91 1959 -91 
Q 1206 -91 779 398 
Q 353 888 353 1747 
Q 353 2609 779 3096 
Q 1206 3584 1959 3584 
z
" transform="scale(0.015625)"/>
       <path id="DejaVuSans-43c" d="M 581 3500 
L 1422 3500 
L 2416 1156 
L 3413 3500 
L 4247 3500 
L 4247 0 
L 3669 0 
L 3669 2950 
L 2703 672 
L 2128 672 
L 1159 2950 
L 1159 0 
L 581 0 
L 581 3500 
z
" transform="scale(0.015625)"/>
       <path id="DejaVuSans-435" d="M 3597 1894 
L 3597 1613 
L 953 1613 
Q 991 1019 1311 708 
Q 1631 397 2203 397 
Q 2534 397 2845 478 
Q 3156 559 3463 722 
L 3463 178 
Q 3153 47 2828 -22 
Q 2503 -91 2169 -91 
Q 1331 -91 842 396 
Q 353 884 353 1716 
Q 353 2575 817 3079 
Q 1281 3584 2069 3584 
Q 2775 3584 3186 3129 
Q 3597 2675 3597 1894 
z
M 3022 2063 
Q 3016 2534 2758 2815 
Q 2500 3097 2075 3097 
Q 1594 3097 1305 2825 
Q 1016 2553 972 2059 
L 3022 2063 
z
" transform="scale(0.015625)"/>
       <path id="DejaVuSans-440" d="M 1159 525 
L 1159 -1331 
L 581 -1331 
L 581 3500 
L 1159 3500 
L 1159 2969 
Q 1341 3281 1617 3432 
Q 1894 3584 2278 3584 
Q 2916 3584 3314 3078 
Q 3713 2572 3713 1747 
Q 3713 922 3314 415 
Q 2916 -91 2278 -91 
Q 1894 -91 1617 61 
Q 1341 213 1159 525 
z
M 3116 1747 
Q 3116 2381 2855 2742 
Q 2594 3103 2138 3103 
Q 1681 3103 1420 2742 
Q 1159 2381 1159 1747 
Q 1159 1113 1420 752 
Q 1681 391 2138 391 
Q 2594 391 2855 752 
Q 3116 1113 3116 1747 
z
" transform="scale(0.015625)"/>
       <path id="DejaVuSans-20" transform="scale(0.015625)"/>
       <path id="DejaVuSans-431" d="M 1991 3584 
Q 2741 3584 3169 3096 
Q 3597 2609 3597 1747 
Q 3597 888 3169 398 
Q 2741 -91 1991 -91 
Q 1238 -91 822 384 
Q 406 859 384 1747 
L 366 2463 
Q 350 2834 350 2963 
Q 350 3463 531 3831 
Q 816 4409 1308 4659 
Q 1800 4909 2625 4916 
Q 3006 4919 3175 4972 
L 3334 4516 
Q 3181 4453 3041 4450 
L 2259 4397 
Q 1866 4369 1628 4231 
Q 1006 3866 947 3388 
L 925 3213 
Q 1331 3584 1991 3584 
z
M 1991 3097 
Q 1528 3097 1259 2736 
Q 991 2375 991 1747 
Q 991 1119 1258 758 
Q 1525 397 1991 397 
Q 2450 397 2719 759 
Q 2988 1122 2988 1747 
Q 2988 2369 2719 2733 
Q 2450 3097 1991 3097 
z
" transform="scale(0.015625)"/>
       <path id="DejaVuSans-43d" d="M 581 3500 
L 1159 3500 
L 1159 2072 
L 3025 2072 
L 3025 3500 
L 3603 3500 
L 3603 0 
L 3025 0 
L 3025 1613 
L 1159 1613 
L 1159 0 
L 581 0 
L 581 3500 
z
" transform="scale(0.015625)"/>
       <path id="DejaVuSans-447" d="M 2625 0 
L 2625 1472 
L 1553 1472 
Q 1075 1472 756 1769 
Q 469 2038 469 2613 
L 469 3500 
L 1044 3500 
L 1044 2666 
Q 1044 2300 1206 2116 
Q 1372 1931 1697 1931 
L 2625 1931 
L 2625 3500 
L 3200 3500 
L 3200 0 
L 2625 0 
z
" transform="scale(0.015625)"/>
       <path id="DejaVuSans-430" d="M 2194 1759 
Q 1497 1759 1228 1600 
Q 959 1441 959 1056 
Q 959 750 1161 570 
Q 1363 391 1709 391 
Q 2188 391 2477 730 
Q 2766 1069 2766 1631 
L 2766 1759 
L 2194 1759 
z
M 3341 1997 
L 3341 0 
L 2766 0 
L 2766 531 
Q 2569 213 2275 61 
Q 1981 -91 1556 -91 
Q 1019 -91 701 211 
Q 384 513 384 1019 
Q 384 1609 779 1909 
Q 1175 2209 1959 2209 
L 2766 2209 
L 2766 2266 
Q 2766 2663 2505 2880 
Q 2244 3097 1772 3097 
Q 1472 3097 1187 3025 
Q 903 2953 641 2809 
L 641 3341 
Q 956 3463 1253 3523 
Q 1550 3584 1831 3584 
Q 2591 3584 2966 3190 
Q 3341 2797 3341 1997 
z
" transform="scale(0.015625)"/>
       <path id="DejaVuSans-43a" d="M 581 3500 
L 1153 3500 
L 1153 1856 
L 2775 3500 
L 3481 3500 
L 2144 2147 
L 3653 0 
L 3009 0 
L 1769 1766 
L 1153 1141 
L 1153 0 
L 581 0 
L 581 3500 
z
" transform="scale(0.015625)"/>
      </defs>
      <use xlink:href="#DejaVuSans-41d"/>
      <use xlink:href="#DejaVuSans-43e" x="75.195312"/>
      <use xlink:href="#DejaVuSans-43c" x="136.376953"/>
      <use xlink:href="#DejaVuSans-435" x="211.816406"/>
      <use xlink:href="#DejaVuSans-440" x="273.339844"/>
      <use xlink:href="#DejaVuSans-20" x="336.816406"/>
      <use xlink:href="#DejaVuSans-431" x="368.603516"/>
      <use xlink:href="#DejaVuSans-435" x="430.273438"/>
      <use xlink:href="#DejaVuSans-43d" x="491.796875"/>
      <use xlink:href="#DejaVuSans-447" x="557.177734"/>
      <use xlink:href="#DejaVuSans-43c" x="616.259766"/>
      <use xlink:href="#DejaVuSans-430" x="691.699219"/>
      <use xlink:href="#DejaVuSans-440" x="752.978516"/>
      <use xlink:href="#DejaVuSans-43a" x="816.455078"/>
      <use xlink:href="#DejaVuSans-430" x="876.855469"/>
     </g>
    </g>
   </g>
   <g id="matplotlib.axis_2">
    <g id="ytick_1">
     <g id="line2d_13">
      <path d="M 57.6 299.790624 
L 414.72 299.790624 
" clip-path="url(#p5822468283)" style="fill: none; stroke: #b0b0b0; stroke-width: 0.8; stroke-linecap: square"/>
     </g>
     <g id="line2d_14">
      <defs>
       <path id="m99fe14cf4a" d="M 0 0 
L -3.5 0 
" style="stroke: #000000; stroke-width: 0.8"/>
      </defs>
      <g>
       <use xlink:href="#m99fe14cf4a" x="57.6" y="299.790624" style="stroke: #000000; stroke-width: 0.8"/>
      </g>
     </g>
     <g id="text_8">
      <!-- 2.50 -->
      <g transform="translate(28.334375 303.589843) scale(0.1 -0.1)">
       <defs>
        <path id="DejaVuSans-2e" d="M 684 794 
L 1344 794 
L 1344 0 
L 684 0 
L 684 794 
z
" transform="scale(0.015625)"/>
        <path id="DejaVuSans-35" d="M 691 4666 
L 3169 4666 
L 3169 4134 
L 1269 4134 
L 1269 2991 
Q 1406 3038 1543 3061 
Q 1681 3084 1819 3084 
Q 2600 3084 3056 2656 
Q 3513 2228 3513 1497 
Q 3513 744 3044 326 
Q 2575 -91 1722 -91 
Q 1428 -91 1123 -41 
Q 819 9 494 109 
L 494 744 
Q 775 591 1075 516 
Q 1375 441 1709 441 
Q 2250 441 2565 725 
Q 2881 1009 2881 1497 
Q 2881 1984 2565 2268 
Q 2250 2553 1709 2553 
Q 1456 2553 1204 2497 
Q 953 2441 691 2322 
L 691 4666 
z
" transform="scale(0.015625)"/>
       </defs>
       <use xlink:href="#DejaVuSans-32"/>
       <use xlink:href="#DejaVuSans-2e" x="63.623047"/>
       <use xlink:href="#DejaVuSans-35" x="95.410156"/>
       <use xlink:href="#DejaVuSans-30" x="159.033203"/>
      </g>
     </g>
    </g>
    <g id="ytick_2">
     <g id="line2d_15">
      <path d="M 57.6 263.590315 
L 414.72 263.590315 
" clip-path="url(#p5822468283)" style="fill: none; stroke: #b0b0b0; stroke-width: 0.8; stroke-linecap: square"/>
     </g>
     <g id="line2d_16">
      <g>
       <use xlink:href="#m99fe14cf4a" x="57.6" y="263.590315" style="stroke: #000000; stroke-width: 0.8"/>
      </g>
     </g>
     <g id="text_9">
      <!-- 2.75 -->
      <g transform="translate(28.334375 267.389534) scale(0.1 -0.1)">
       <defs>
        <path id="DejaVuSans-37" d="M 525 4666 
L 3525 4666 
L 3525 4397 
L 1831 0 
L 1172 0 
L 2766 4134 
L 525 4134 
L 525 4666 
z
" transform="scale(0.015625)"/>
       </defs>
       <use xlink:href="#DejaVuSans-32"/>
       <use xlink:href="#DejaVuSans-2e" x="63.623047"/>
       <use xlink:href="#DejaVuSans-37" x="95.410156"/>
       <use xlink:href="#DejaVuSans-35" x="159.033203"/>
      </g>
     </g>
    </g>
    <g id="ytick_3">
     <g id="line2d_17">
      <path d="M 57.6 227.390007 
L 414.72 227.390007 
" clip-path="url(#p5822468283)" style="fill: none; stroke: #b0b0b0; stroke-width: 0.8; stroke-linecap: square"/>
     </g>
     <g id="line2d_18">
      <g>
       <use xlink:href="#m99fe14cf4a" x="57.6" y="227.390007" style="stroke: #000000; stroke-width: 0.8"/>
      </g>
     </g>
     <g id="text_10">
      <!-- 3.00 -->
      <g transform="translate(28.334375 231.189226) scale(0.1 -0.1)">
       <defs>
        <path id="DejaVuSans-33" d="M 2597 2516 
Q 3050 2419 3304 2112 
Q 3559 1806 3559 1356 
Q 3559 666 3084 287 
Q 2609 -91 1734 -91 
Q 1441 -91 1130 -33 
Q 819 25 488 141 
L 488 750 
Q 750 597 1062 519 
Q 1375 441 1716 441 
Q 2309 441 2620 675 
Q 2931 909 2931 1356 
Q 2931 1769 2642 2001 
Q 2353 2234 1838 2234 
L 1294 2234 
L 1294 2753 
L 1863 2753 
Q 2328 2753 2575 2939 
Q 2822 3125 2822 3475 
Q 2822 3834 2567 4026 
Q 2313 4219 1838 4219 
Q 1578 4219 1281 4162 
Q 984 4106 628 3988 
L 628 4550 
Q 988 4650 1302 4700 
Q 1616 4750 1894 4750 
Q 2613 4750 3031 4423 
Q 3450 4097 3450 3541 
Q 3450 3153 3228 2886 
Q 3006 2619 2597 2516 
z
" transform="scale(0.015625)"/>
       </defs>
       <use xlink:href="#DejaVuSans-33"/>
       <use xlink:href="#DejaVuSans-2e" x="63.623047"/>
       <use xlink:href="#DejaVuSans-30" x="95.410156"/>
       <use xlink:href="#DejaVuSans-30" x="159.033203"/>
      </g>
     </g>
    </g>
    <g id="ytick_4">
     <g id="line2d_19">
      <path d="M 57.6 191.189699 
L 414.72 191.189699 
" clip-path="url(#p5822468283)" style="fill: none; stroke: #b0b0b0; stroke-width: 0.8; stroke-linecap: square"/>
     </g>
     <g id="line2d_20">
      <g>
       <use xlink:href="#m99fe14cf4a" x="57.6" y="191.189699" style="stroke: #000000; stroke-width: 0.8"/>
      </g>
     </g>
     <g id="text_11">
      <!-- 3.25 -->
      <g transform="translate(28.334375 194.988917) scale(0.1 -0.1)">
       <use xlink:href="#DejaVuSans-33"/>
       <use xlink:href="#DejaVuSans-2e" x="63.623047"/>
       <use xlink:href="#DejaVuSans-32" x="95.410156"/>
       <use xlink:href="#DejaVuSans-35" x="159.033203"/>
      </g>
     </g>
    </g>
    <g id="ytick_5">
     <g id="line2d_21">
      <path d="M 57.6 154.98939 
L 414.72 154.98939 
" clip-path="url(#p5822468283)" style="fill: none; stroke: #b0b0b0; stroke-width: 0.8; stroke-linecap: square"/>
     </g>
     <g id="line2d_22">
      <g>
       <use xlink:href="#m99fe14cf4a" x="57.6" y="154.98939" style="stroke: #000000; stroke-width: 0.8"/>
      </g>
     </g>
     <g id="text_12">
      <!-- 3.50 -->
      <g transform="translate(28.334375 158.788609) scale(0.1 -0.1)">
       <use xlink:href="#DejaVuSans-33"/>
       <use xlink:href="#DejaVuSans-2e" x="63.623047"/>
       <use xlink:href="#DejaVuSans-35" x="95.410156"/>
       <use xlink:href="#DejaVuSans-30" x="159.033203"/>
      </g>
     </g>
    </g>
    <g id="ytick_6">
     <g id="line2d_23">
      <path d="M 57.6 118.789082 
L 414.72 118.789082 
" clip-path="url(#p5822468283)" style="fill: none; stroke: #b0b0b0; stroke-width: 0.8; stroke-linecap: square"/>
     </g>
     <g id="line2d_24">
      <g>
       <use xlink:href="#m99fe14cf4a" x="57.6" y="118.789082" style="stroke: #000000; stroke-width: 0.8"/>
      </g>
     </g>
     <g id="text_13">
      <!-- 3.75 -->
      <g transform="translate(28.334375 122.588301) scale(0.1 -0.1)">
       <use xlink:href="#DejaVuSans-33"/>
       <use xlink:href="#DejaVuSans-2e" x="63.623047"/>
       <use xlink:href="#DejaVuSans-37" x="95.410156"/>
       <use xlink:href="#DejaVuSans-35" x="159.033203"/>
      </g>
     </g>
    </g>
    <g id="ytick_7">
     <g id="line2d_25">
      <path d="M 57.6 82.588774 
L 414.72 82.588774 
" clip-path="url(#p5822468283)" style="fill: none; stroke: #b0b0b0; stroke-width: 0.8; stroke-linecap: square"/>
     </g>
     <g id="line2d_26">
      <g>
       <use xlink:href="#m99fe14cf4a" x="57.6" y="82.588774" style="stroke: #000000; stroke-width: 0.8"/>
      </g>
     </g>
     <g id="text_14">
      <!-- 4.00 -->
      <g transform="translate(28.334375 86.387992) scale(0.1 -0.1)">
       <use xlink:href="#DejaVuSans-34"/>
       <use xlink:href="#DejaVuSans-2e" x="63.623047"/>
       <use xlink:href="#DejaVuSans-30" x="95.410156"/>
       <use xlink:href="#DejaVuSans-30" x="159.033203"/>
      </g>
     </g>
    </g>
    <g id="ytick_8">
     <g id="line2d_27">
      <path d="M 57.6 46.388465 
L 414.72 46.388465 
" clip-path="url(#p5822468283)" style="fill: none; stroke: #b0b0b0; stroke-width: 0.8; stroke-linecap: square"/>
     </g>
     <g id="line2d_28">
      <g>
       <use xlink:href="#m99fe14cf4a" x="57.6" y="46.388465" style="stroke: #000000; stroke-width: 0.8"/>
      </g>
     </g>
     <g id="text_15">
      <!-- 4.25 -->
      <g transform="translate(28.334375 50.187684) scale(0.1 -0.1)">
       <use xlink:href="#DejaVuSans-34"/>
       <use xlink:href="#DejaVuSans-2e" x="63.623047"/>
       <use xlink:href="#DejaVuSans-32" x="95.410156"/>
       <use xlink:href="#DejaVuSans-35" x="159.033203"/>
      </g>
     </g>
    </g>
    <g id="text_16">
     <!-- Значение -->
     <g transform="translate(22.254687 199.691281) rotate(-90) scale(0.1 -0.1)">
      <defs>
       <path id="DejaVuSans-417" d="M 1828 4750 
Q 2597 4750 3084 4423 
Q 3572 4097 3572 3541 
Q 3572 3153 3350 2886 
Q 3128 2619 2719 2516 
Q 3172 2419 3426 2112 
Q 3681 1806 3681 1356 
Q 3681 638 3126 273 
Q 2572 -91 1828 -91 
Q 1447 -91 1003 12 
Q 559 116 422 203 
L 422 853 
Q 900 575 1164 508 
Q 1428 441 1816 441 
Q 2403 441 2728 666 
Q 3053 891 3053 1356 
Q 3053 1769 2764 2001 
Q 2475 2234 1866 2234 
L 1228 2234 
L 1228 2753 
L 1891 2753 
Q 2450 2753 2697 2939 
Q 2944 3125 2944 3475 
Q 2944 3834 2689 4026 
Q 2434 4219 1816 4219 
Q 1397 4219 1253 4181 
Q 1109 4144 469 3903 
L 469 4519 
Q 822 4644 1190 4697 
Q 1559 4750 1828 4750 
z
" transform="scale(0.015625)"/>
       <path id="DejaVuSans-438" d="M 3578 3500 
L 3578 0 
L 3006 0 
L 3006 2809 
L 1319 0 
L 581 0 
L 581 3500 
L 1153 3500 
L 1153 697 
L 2838 3500 
L 3578 3500 
z
" transform="scale(0.015625)"/>
      </defs>
      <use xlink:href="#DejaVuSans-417"/>
      <use xlink:href="#DejaVuSans-43d" x="64.111328"/>
      <use xlink:href="#DejaVuSans-430" x="129.492188"/>
      <use xlink:href="#DejaVuSans-447" x="190.771484"/>
      <use xlink:href="#DejaVuSans-435" x="249.853516"/>
      <use xlink:href="#DejaVuSans-43d" x="311.376953"/>
      <use xlink:href="#DejaVuSans-438" x="376.757812"/>
      <use xlink:href="#DejaVuSans-435" x="441.748047"/>
     </g>
    </g>
    <g id="text_17">
     <!-- 1e6 -->
     <g transform="translate(57.6 38.472) scale(0.1 -0.1)">
      <defs>
       <path id="DejaVuSans-65" d="M 3597 1894 
L 3597 1613 
L 953 1613 
Q 991 1019 1311 708 
Q 1631 397 2203 397 
Q 2534 397 2845 478 
Q 3156 559 3463 722 
L 3463 178 
Q 3153 47 2828 -22 
Q 2503 -91 2169 -91 
Q 1331 -91 842 396 
Q 353 884 353 1716 
Q 353 2575 817 3079 
Q 1281 3584 2069 3584 
Q 2775 3584 3186 3129 
Q 3597 2675 3597 1894 
z
M 3022 2063 
Q 3016 2534 2758 2815 
Q 2500 3097 2075 3097 
Q 1594 3097 1305 2825 
Q 1016 2553 972 2059 
L 3022 2063 
z
" transform="scale(0.015625)"/>
      </defs>
      <use xlink:href="#DejaVuSans-31"/>
      <use xlink:href="#DejaVuSans-65" x="63.623047"/>
      <use xlink:href="#DejaVuSans-36" x="125.146484"/>
     </g>
    </g>
   </g>
   <g id="line2d_29">
    <path d="M 73.832727 124.995263 
L 77.112066 93.487962 
L 80.391405 119.535243 
L 83.670744 107.845584 
L 86.950083 98.337935 
L 90.229421 117.271131 
L 93.50876 108.733216 
L 96.788099 160.888303 
L 100.067438 145.122924 
L 103.346777 124.314842 
L 106.626116 102.820836 
L 109.905455 134.367957 
L 113.184793 139.070667 
L 116.464132 127.750106 
L 119.743471 121.23463 
L 123.02281 156.539198 
L 126.302149 138.861719 
L 129.581488 144.878355 
L 132.860826 101.665757 
L 136.140165 126.53812 
L 139.419504 120.369153 
L 142.698843 110.984296 
L 145.978182 117.084482 
L 149.257521 99.94407 
L 152.53686 117.450829 
L 155.816198 97.392238 
L 159.095537 146.184027 
L 162.374876 101.833437 
L 165.654215 130.692178 
L 168.933554 164.058726 
L 172.212893 144.325359 
L 175.492231 141.209671 
L 178.77157 128.558242 
L 182.050909 143.460316 
L 185.330248 131.351458 
L 188.609587 132.75936 
L 191.888926 123.257648 
L 195.168264 138.517671 
L 198.447603 135.890832 
L 201.726942 168.515998 
L 205.006281 111.930427 
L 208.28562 133.107028 
L 211.564959 115.439395 
L 214.844298 124.355531 
L 218.123636 134.684782 
L 221.402975 139.365482 
L 224.682314 161.291719 
L 227.961653 144.538506 
L 231.240992 116.064068 
L 234.520331 149.552394 
L 237.799669 140.020418 
L 241.079008 155.019075 
L 244.358347 142.088324 
L 247.637686 147.749618 
L 250.917025 114.558135 
L 254.196364 107.485029 
L 257.475702 148.462764 
L 260.755041 137.480749 
L 264.03438 152.142019 
L 267.313719 130.570979 
L 270.593058 153.724986 
L 273.872397 125.804267 
L 277.151736 125.909103 
L 280.431074 139.882712 
L 283.710413 137.94252 
L 286.989752 124.778061 
L 290.269091 139.582539 
L 293.54843 99.612186 
L 296.827769 112.355708 
L 300.107107 138.243562 
L 303.386446 126.239395 
L 306.665785 152.788122 
L 309.945124 140.257458 
L 313.224463 132.479459 
L 316.503802 120.736803 
L 319.78314 133.26935 
L 323.062479 153.245404 
L 326.341818 143.16217 
L 329.621157 128.51263 
L 332.900496 146.595987 
L 336.179835 159.464183 
L 339.459174 122.576648 
L 342.738512 136.310755 
L 346.017851 141.334055 
L 349.29719 143.170134 
L 352.576529 148.107133 
L 355.855868 55.688614 
L 359.135207 90.705462 
L 362.414545 77.911259 
L 365.693884 131.451371 
L 368.973223 118.842224 
L 372.252562 103.094221 
L 375.531901 156.516754 
L 378.81124 110.546996 
L 382.090579 53.568 
L 385.369917 115.707133 
L 388.649256 132.07807 
L 391.928595 147.633343 
L 395.207934 138.794676 
L 398.487273 135.612524 
" clip-path="url(#p5822468283)" style="fill: none; stroke: #8b008b; stroke-width: 1.5; stroke-linecap: square"/>
    <defs>
     <path id="m1d6e7ef3c1" d="M 0 -3 
L -3 3 
L 3 3 
z
" style="stroke: #8b008b; stroke-linejoin: miter"/>
    </defs>
    <g clip-path="url(#p5822468283)">
     <use xlink:href="#m1d6e7ef3c1" x="73.832727" y="124.995263" style="fill: #8b008b; stroke: #8b008b; stroke-linejoin: miter"/>
     <use xlink:href="#m1d6e7ef3c1" x="77.112066" y="93.487962" style="fill: #8b008b; stroke: #8b008b; stroke-linejoin: miter"/>
     <use xlink:href="#m1d6e7ef3c1" x="80.391405" y="119.535243" style="fill: #8b008b; stroke: #8b008b; stroke-linejoin: miter"/>
     <use xlink:href="#m1d6e7ef3c1" x="83.670744" y="107.845584" style="fill: #8b008b; stroke: #8b008b; stroke-linejoin: miter"/>
     <use xlink:href="#m1d6e7ef3c1" x="86.950083" y="98.337935" style="fill: #8b008b; stroke: #8b008b; stroke-linejoin: miter"/>
     <use xlink:href="#m1d6e7ef3c1" x="90.229421" y="117.271131" style="fill: #8b008b; stroke: #8b008b; stroke-linejoin: miter"/>
     <use xlink:href="#m1d6e7ef3c1" x="93.50876" y="108.733216" style="fill: #8b008b; stroke: #8b008b; stroke-linejoin: miter"/>
     <use xlink:href="#m1d6e7ef3c1" x="96.788099" y="160.888303" style="fill: #8b008b; stroke: #8b008b; stroke-linejoin: miter"/>
     <use xlink:href="#m1d6e7ef3c1" x="100.067438" y="145.122924" style="fill: #8b008b; stroke: #8b008b; stroke-linejoin: miter"/>
     <use xlink:href="#m1d6e7ef3c1" x="103.346777" y="124.314842" style="fill: #8b008b; stroke: #8b008b; stroke-linejoin: miter"/>
     <use xlink:href="#m1d6e7ef3c1" x="106.626116" y="102.820836" style="fill: #8b008b; stroke: #8b008b; stroke-linejoin: miter"/>
     <use xlink:href="#m1d6e7ef3c1" x="109.905455" y="134.367957" style="fill: #8b008b; stroke: #8b008b; stroke-linejoin: miter"/>
     <use xlink:href="#m1d6e7ef3c1" x="113.184793" y="139.070667" style="fill: #8b008b; stroke: #8b008b; stroke-linejoin: miter"/>
     <use xlink:href="#m1d6e7ef3c1" x="116.464132" y="127.750106" style="fill: #8b008b; stroke: #8b008b; stroke-linejoin: miter"/>
     <use xlink:href="#m1d6e7ef3c1" x="119.743471" y="121.23463" style="fill: #8b008b; stroke: #8b008b; stroke-linejoin: miter"/>
     <use xlink:href="#m1d6e7ef3c1" x="123.02281" y="156.539198" style="fill: #8b008b; stroke: #8b008b; stroke-linejoin: miter"/>
     <use xlink:href="#m1d6e7ef3c1" x="126.302149" y="138.861719" style="fill: #8b008b; stroke: #8b008b; stroke-linejoin: miter"/>
     <use xlink:href="#m1d6e7ef3c1" x="129.581488" y="144.878355" style="fill: #8b008b; stroke: #8b008b; stroke-linejoin: miter"/>
     <use xlink:href="#m1d6e7ef3c1" x="132.860826" y="101.665757" style="fill: #8b008b; stroke: #8b008b; stroke-linejoin: miter"/>
     <use xlink:href="#m1d6e7ef3c1" x="136.140165" y="126.53812" style="fill: #8b008b; stroke: #8b008b; stroke-linejoin: miter"/>
     <use xlink:href="#m1d6e7ef3c1" x="139.419504" y="120.369153" style="fill: #8b008b; stroke: #8b008b; stroke-linejoin: miter"/>
     <use xlink:href="#m1d6e7ef3c1" x="142.698843" y="110.984296" style="fill: #8b008b; stroke: #8b008b; stroke-linejoin: miter"/>
     <use xlink:href="#m1d6e7ef3c1" x="145.978182" y="117.084482" style="fill: #8b008b; stroke: #8b008b; stroke-linejoin: miter"/>
     <use xlink:href="#m1d6e7ef3c1" x="149.257521" y="99.94407" style="fill: #8b008b; stroke: #8b008b; stroke-linejoin: miter"/>
     <use xlink:href="#m1d6e7ef3c1" x="152.53686" y="117.450829" style="fill: #8b008b; stroke: #8b008b; stroke-linejoin: miter"/>
     <use xlink:href="#m1d6e7ef3c1" x="155.816198" y="97.392238" style="fill: #8b008b; stroke: #8b008b; stroke-linejoin: miter"/>
     <use xlink:href="#m1d6e7ef3c1" x="159.095537" y="146.184027" style="fill: #8b008b; stroke: #8b008b; stroke-linejoin: miter"/>
     <use xlink:href="#m1d6e7ef3c1" x="162.374876" y="101.833437" style="fill: #8b008b; stroke: #8b008b; stroke-linejoin: miter"/>
     <use xlink:href="#m1d6e7ef3c1" x="165.654215" y="130.692178" style="fill: #8b008b; stroke: #8b008b; stroke-linejoin: miter"/>
     <use xlink:href="#m1d6e7ef3c1" x="168.933554" y="164.058726" style="fill: #8b008b; stroke: #8b008b; stroke-linejoin: miter"/>
     <use xlink:href="#m1d6e7ef3c1" x="172.212893" y="144.325359" style="fill: #8b008b; stroke: #8b008b; stroke-linejoin: miter"/>
     <use xlink:href="#m1d6e7ef3c1" x="175.492231" y="141.209671" style="fill: #8b008b; stroke: #8b008b; stroke-linejoin: miter"/>
     <use xlink:href="#m1d6e7ef3c1" x="178.77157" y="128.558242" style="fill: #8b008b; stroke: #8b008b; stroke-linejoin: miter"/>
     <use xlink:href="#m1d6e7ef3c1" x="182.050909" y="143.460316" style="fill: #8b008b; stroke: #8b008b; stroke-linejoin: miter"/>
     <use xlink:href="#m1d6e7ef3c1" x="185.330248" y="131.351458" style="fill: #8b008b; stroke: #8b008b; stroke-linejoin: miter"/>
     <use xlink:href="#m1d6e7ef3c1" x="188.609587" y="132.75936" style="fill: #8b008b; stroke: #8b008b; stroke-linejoin: miter"/>
     <use xlink:href="#m1d6e7ef3c1" x="191.888926" y="123.257648" style="fill: #8b008b; stroke: #8b008b; stroke-linejoin: miter"/>
     <use xlink:href="#m1d6e7ef3c1" x="195.168264" y="138.517671" style="fill: #8b008b; stroke: #8b008b; stroke-linejoin: miter"/>
     <use xlink:href="#m1d6e7ef3c1" x="198.447603" y="135.890832" style="fill: #8b008b; stroke: #8b008b; stroke-linejoin: miter"/>
     <use xlink:href="#m1d6e7ef3c1" x="201.726942" y="168.515998" style="fill: #8b008b; stroke: #8b008b; stroke-linejoin: miter"/>
     <use xlink:href="#m1d6e7ef3c1" x="205.006281" y="111.930427" style="fill: #8b008b; stroke: #8b008b; stroke-linejoin: miter"/>
     <use xlink:href="#m1d6e7ef3c1" x="208.28562" y="133.107028" style="fill: #8b008b; stroke: #8b008b; stroke-linejoin: miter"/>
     <use xlink:href="#m1d6e7ef3c1" x="211.564959" y="115.439395" style="fill: #8b008b; stroke: #8b008b; stroke-linejoin: miter"/>
     <use xlink:href="#m1d6e7ef3c1" x="214.844298" y="124.355531" style="fill: #8b008b; stroke: #8b008b; stroke-linejoin: miter"/>
     <use xlink:href="#m1d6e7ef3c1" x="218.123636" y="134.684782" style="fill: #8b008b; stroke: #8b008b; stroke-linejoin: miter"/>
     <use xlink:href="#m1d6e7ef3c1" x="221.402975" y="139.365482" style="fill: #8b008b; stroke: #8b008b; stroke-linejoin: miter"/>
     <use xlink:href="#m1d6e7ef3c1" x="224.682314" y="161.291719" style="fill: #8b008b; stroke: #8b008b; stroke-linejoin: miter"/>
     <use xlink:href="#m1d6e7ef3c1" x="227.961653" y="144.538506" style="fill: #8b008b; stroke: #8b008b; stroke-linejoin: miter"/>
     <use xlink:href="#m1d6e7ef3c1" x="231.240992" y="116.064068" style="fill: #8b008b; stroke: #8b008b; stroke-linejoin: miter"/>
     <use xlink:href="#m1d6e7ef3c1" x="234.520331" y="149.552394" style="fill: #8b008b; stroke: #8b008b; stroke-linejoin: miter"/>
     <use xlink:href="#m1d6e7ef3c1" x="237.799669" y="140.020418" style="fill: #8b008b; stroke: #8b008b; stroke-linejoin: miter"/>
     <use xlink:href="#m1d6e7ef3c1" x="241.079008" y="155.019075" style="fill: #8b008b; stroke: #8b008b; stroke-linejoin: miter"/>
     <use xlink:href="#m1d6e7ef3c1" x="244.358347" y="142.088324" style="fill: #8b008b; stroke: #8b008b; stroke-linejoin: miter"/>
     <use xlink:href="#m1d6e7ef3c1" x="247.637686" y="147.749618" style="fill: #8b008b; stroke: #8b008b; stroke-linejoin: miter"/>
     <use xlink:href="#m1d6e7ef3c1" x="250.917025" y="114.558135" style="fill: #8b008b; stroke: #8b008b; stroke-linejoin: miter"/>
     <use xlink:href="#m1d6e7ef3c1" x="254.196364" y="107.485029" style="fill: #8b008b; stroke: #8b008b; stroke-linejoin: miter"/>
     <use xlink:href="#m1d6e7ef3c1" x="257.475702" y="148.462764" style="fill: #8b008b; stroke: #8b008b; stroke-linejoin: miter"/>
     <use xlink:href="#m1d6e7ef3c1" x="260.755041" y="137.480749" style="fill: #8b008b; stroke: #8b008b; stroke-linejoin: miter"/>
     <use xlink:href="#m1d6e7ef3c1" x="264.03438" y="152.142019" style="fill: #8b008b; stroke: #8b008b; stroke-linejoin: miter"/>
     <use xlink:href="#m1d6e7ef3c1" x="267.313719" y="130.570979" style="fill: #8b008b; stroke: #8b008b; stroke-linejoin: miter"/>
     <use xlink:href="#m1d6e7ef3c1" x="270.593058" y="153.724986" style="fill: #8b008b; stroke: #8b008b; stroke-linejoin: miter"/>
     <use xlink:href="#m1d6e7ef3c1" x="273.872397" y="125.804267" style="fill: #8b008b; stroke: #8b008b; stroke-linejoin: miter"/>
     <use xlink:href="#m1d6e7ef3c1" x="277.151736" y="125.909103" style="fill: #8b008b; stroke: #8b008b; stroke-linejoin: miter"/>
     <use xlink:href="#m1d6e7ef3c1" x="280.431074" y="139.882712" style="fill: #8b008b; stroke: #8b008b; stroke-linejoin: miter"/>
     <use xlink:href="#m1d6e7ef3c1" x="283.710413" y="137.94252" style="fill: #8b008b; stroke: #8b008b; stroke-linejoin: miter"/>
     <use xlink:href="#m1d6e7ef3c1" x="286.989752" y="124.778061" style="fill: #8b008b; stroke: #8b008b; stroke-linejoin: miter"/>
     <use xlink:href="#m1d6e7ef3c1" x="290.269091" y="139.582539" style="fill: #8b008b; stroke: #8b008b; stroke-linejoin: miter"/>
     <use xlink:href="#m1d6e7ef3c1" x="293.54843" y="99.612186" style="fill: #8b008b; stroke: #8b008b; stroke-linejoin: miter"/>
     <use xlink:href="#m1d6e7ef3c1" x="296.827769" y="112.355708" style="fill: #8b008b; stroke: #8b008b; stroke-linejoin: miter"/>
     <use xlink:href="#m1d6e7ef3c1" x="300.107107" y="138.243562" style="fill: #8b008b; stroke: #8b008b; stroke-linejoin: miter"/>
     <use xlink:href="#m1d6e7ef3c1" x="303.386446" y="126.239395" style="fill: #8b008b; stroke: #8b008b; stroke-linejoin: miter"/>
     <use xlink:href="#m1d6e7ef3c1" x="306.665785" y="152.788122" style="fill: #8b008b; stroke: #8b008b; stroke-linejoin: miter"/>
     <use xlink:href="#m1d6e7ef3c1" x="309.945124" y="140.257458" style="fill: #8b008b; stroke: #8b008b; stroke-linejoin: miter"/>
     <use xlink:href="#m1d6e7ef3c1" x="313.224463" y="132.479459" style="fill: #8b008b; stroke: #8b008b; stroke-linejoin: miter"/>
     <use xlink:href="#m1d6e7ef3c1" x="316.503802" y="120.736803" style="fill: #8b008b; stroke: #8b008b; stroke-linejoin: miter"/>
     <use xlink:href="#m1d6e7ef3c1" x="319.78314" y="133.26935" style="fill: #8b008b; stroke: #8b008b; stroke-linejoin: miter"/>
     <use xlink:href="#m1d6e7ef3c1" x="323.062479" y="153.245404" style="fill: #8b008b; stroke: #8b008b; stroke-linejoin: miter"/>
     <use xlink:href="#m1d6e7ef3c1" x="326.341818" y="143.16217" style="fill: #8b008b; stroke: #8b008b; stroke-linejoin: miter"/>
     <use xlink:href="#m1d6e7ef3c1" x="329.621157" y="128.51263" style="fill: #8b008b; stroke: #8b008b; stroke-linejoin: miter"/>
     <use xlink:href="#m1d6e7ef3c1" x="332.900496" y="146.595987" style="fill: #8b008b; stroke: #8b008b; stroke-linejoin: miter"/>
     <use xlink:href="#m1d6e7ef3c1" x="336.179835" y="159.464183" style="fill: #8b008b; stroke: #8b008b; stroke-linejoin: miter"/>
     <use xlink:href="#m1d6e7ef3c1" x="339.459174" y="122.576648" style="fill: #8b008b; stroke: #8b008b; stroke-linejoin: miter"/>
     <use xlink:href="#m1d6e7ef3c1" x="342.738512" y="136.310755" style="fill: #8b008b; stroke: #8b008b; stroke-linejoin: miter"/>
     <use xlink:href="#m1d6e7ef3c1" x="346.017851" y="141.334055" style="fill: #8b008b; stroke: #8b008b; stroke-linejoin: miter"/>
     <use xlink:href="#m1d6e7ef3c1" x="349.29719" y="143.170134" style="fill: #8b008b; stroke: #8b008b; stroke-linejoin: miter"/>
     <use xlink:href="#m1d6e7ef3c1" x="352.576529" y="148.107133" style="fill: #8b008b; stroke: #8b008b; stroke-linejoin: miter"/>
     <use xlink:href="#m1d6e7ef3c1" x="355.855868" y="55.688614" style="fill: #8b008b; stroke: #8b008b; stroke-linejoin: miter"/>
     <use xlink:href="#m1d6e7ef3c1" x="359.135207" y="90.705462" style="fill: #8b008b; stroke: #8b008b; stroke-linejoin: miter"/>
     <use xlink:href="#m1d6e7ef3c1" x="362.414545" y="77.911259" style="fill: #8b008b; stroke: #8b008b; stroke-linejoin: miter"/>
     <use xlink:href="#m1d6e7ef3c1" x="365.693884" y="131.451371" style="fill: #8b008b; stroke: #8b008b; stroke-linejoin: miter"/>
     <use xlink:href="#m1d6e7ef3c1" x="368.973223" y="118.842224" style="fill: #8b008b; stroke: #8b008b; stroke-linejoin: miter"/>
     <use xlink:href="#m1d6e7ef3c1" x="372.252562" y="103.094221" style="fill: #8b008b; stroke: #8b008b; stroke-linejoin: miter"/>
     <use xlink:href="#m1d6e7ef3c1" x="375.531901" y="156.516754" style="fill: #8b008b; stroke: #8b008b; stroke-linejoin: miter"/>
     <use xlink:href="#m1d6e7ef3c1" x="378.81124" y="110.546996" style="fill: #8b008b; stroke: #8b008b; stroke-linejoin: miter"/>
     <use xlink:href="#m1d6e7ef3c1" x="382.090579" y="53.568" style="fill: #8b008b; stroke: #8b008b; stroke-linejoin: miter"/>
     <use xlink:href="#m1d6e7ef3c1" x="385.369917" y="115.707133" style="fill: #8b008b; stroke: #8b008b; stroke-linejoin: miter"/>
     <use xlink:href="#m1d6e7ef3c1" x="388.649256" y="132.07807" style="fill: #8b008b; stroke: #8b008b; stroke-linejoin: miter"/>
     <use xlink:href="#m1d6e7ef3c1" x="391.928595" y="147.633343" style="fill: #8b008b; stroke: #8b008b; stroke-linejoin: miter"/>
     <use xlink:href="#m1d6e7ef3c1" x="395.207934" y="138.794676" style="fill: #8b008b; stroke: #8b008b; stroke-linejoin: miter"/>
     <use xlink:href="#m1d6e7ef3c1" x="398.487273" y="135.612524" style="fill: #8b008b; stroke: #8b008b; stroke-linejoin: miter"/>
    </g>
   </g>
   <g id="line2d_30">
    <path d="M 73.832727 222.414058 
L 77.112066 223.295607 
L 80.391405 223.659059 
L 83.670744 216.242339 
L 86.950083 220.897554 
L 90.229421 209.487362 
L 93.50876 186.573001 
L 96.788099 259.490269 
L 100.067438 255.767139 
L 103.346777 232.657876 
L 106.626116 267.438119 
L 109.905455 269.896988 
L 113.184793 254.639427 
L 116.464132 258.923517 
L 119.743471 250.236746 
L 123.02281 259.190096 
L 126.302149 258.116105 
L 129.581488 244.135835 
L 132.860826 257.175186 
L 136.140165 261.752643 
L 139.419504 250.985223 
L 142.698843 266.825175 
L 145.978182 254.094975 
L 149.257521 236.365656 
L 152.53686 252.456838 
L 155.816198 266.057439 
L 159.095537 232.521763 
L 162.374876 273.932599 
L 165.654215 258.181845 
L 168.933554 270.453894 
L 172.212893 245.932384 
L 175.492231 251.352584 
L 178.77157 267.718888 
L 182.050909 257.767858 
L 185.330248 222.504993 
L 188.609587 263.183279 
L 191.888926 249.926147 
L 195.168264 258.495484 
L 198.447603 269.997915 
L 201.726942 281.963275 
L 205.006281 284.12342 
L 208.28562 260.150852 
L 211.564959 264.40989 
L 214.844298 242.555475 
L 218.123636 283.805436 
L 221.402975 261.921192 
L 224.682314 268.421898 
L 227.961653 269.808515 
L 231.240992 252.868508 
L 234.520331 259.345612 
L 237.799669 250.454672 
L 241.079008 256.312316 
L 244.358347 270.925367 
L 247.637686 238.190731 
L 250.917025 219.355566 
L 254.196364 239.351603 
L 257.475702 228.136457 
L 260.755041 266.191525 
L 264.03438 237.982073 
L 267.313719 267.826476 
L 270.593058 269.048888 
L 273.872397 252.097442 
L 277.151736 248.154359 
L 280.431074 232.611974 
L 283.710413 256.464068 
L 286.989752 256.652309 
L 290.269091 258.717609 
L 293.54843 246.878371 
L 296.827769 247.482771 
L 300.107107 268.633742 
L 303.386446 269.440285 
L 306.665785 261.330258 
L 309.945124 265.180523 
L 313.224463 284.530167 
L 316.503802 258.589605 
L 319.78314 280.386245 
L 323.062479 273.989071 
L 326.341818 279.330644 
L 329.621157 265.323007 
L 332.900496 256.886308 
L 336.179835 256.973913 
L 339.459174 277.745215 
L 342.738512 291.562149 
L 346.017851 273.766657 
L 349.29719 294.96353 
L 352.576529 278.886828 
L 355.855868 295.488 
L 359.135207 280.891601 
L 362.414545 264.259587 
L 365.693884 281.994118 
L 368.973223 252.347369 
L 372.252562 289.996558 
L 375.531901 239.231852 
L 378.81124 235.686539 
L 382.090579 253.975369 
L 385.369917 248.91109 
L 388.649256 235.122538 
L 391.928595 236.494529 
L 395.207934 264.997639 
L 398.487273 244.796419 
" clip-path="url(#p5822468283)" style="fill: none; stroke: #ffd700; stroke-width: 1.5; stroke-linecap: square"/>
    <defs>
     <path id="m971b2a0769" d="M 0 -3 
L -0.673542 -0.927051 
L -2.85317 -0.927051 
L -1.089814 0.354102 
L -1.763356 2.427051 
L -0 1.145898 
L 1.763356 2.427051 
L 1.089814 0.354102 
L 2.85317 -0.927051 
L 0.673542 -0.927051 
z
" style="stroke: #ffd700; stroke-linejoin: bevel"/>
    </defs>
    <g clip-path="url(#p5822468283)">
     <use xlink:href="#m971b2a0769" x="73.832727" y="222.414058" style="fill: #ffd700; stroke: #ffd700; stroke-linejoin: bevel"/>
     <use xlink:href="#m971b2a0769" x="77.112066" y="223.295607" style="fill: #ffd700; stroke: #ffd700; stroke-linejoin: bevel"/>
     <use xlink:href="#m971b2a0769" x="80.391405" y="223.659059" style="fill: #ffd700; stroke: #ffd700; stroke-linejoin: bevel"/>
     <use xlink:href="#m971b2a0769" x="83.670744" y="216.242339" style="fill: #ffd700; stroke: #ffd700; stroke-linejoin: bevel"/>
     <use xlink:href="#m971b2a0769" x="86.950083" y="220.897554" style="fill: #ffd700; stroke: #ffd700; stroke-linejoin: bevel"/>
     <use xlink:href="#m971b2a0769" x="90.229421" y="209.487362" style="fill: #ffd700; stroke: #ffd700; stroke-linejoin: bevel"/>
     <use xlink:href="#m971b2a0769" x="93.50876" y="186.573001" style="fill: #ffd700; stroke: #ffd700; stroke-linejoin: bevel"/>
     <use xlink:href="#m971b2a0769" x="96.788099" y="259.490269" style="fill: #ffd700; stroke: #ffd700; stroke-linejoin: bevel"/>
     <use xlink:href="#m971b2a0769" x="100.067438" y="255.767139" style="fill: #ffd700; stroke: #ffd700; stroke-linejoin: bevel"/>
     <use xlink:href="#m971b2a0769" x="103.346777" y="232.657876" style="fill: #ffd700; stroke: #ffd700; stroke-linejoin: bevel"/>
     <use xlink:href="#m971b2a0769" x="106.626116" y="267.438119" style="fill: #ffd700; stroke: #ffd700; stroke-linejoin: bevel"/>
     <use xlink:href="#m971b2a0769" x="109.905455" y="269.896988" style="fill: #ffd700; stroke: #ffd700; stroke-linejoin: bevel"/>
     <use xlink:href="#m971b2a0769" x="113.184793" y="254.639427" style="fill: #ffd700; stroke: #ffd700; stroke-linejoin: bevel"/>
     <use xlink:href="#m971b2a0769" x="116.464132" y="258.923517" style="fill: #ffd700; stroke: #ffd700; stroke-linejoin: bevel"/>
     <use xlink:href="#m971b2a0769" x="119.743471" y="250.236746" style="fill: #ffd700; stroke: #ffd700; stroke-linejoin: bevel"/>
     <use xlink:href="#m971b2a0769" x="123.02281" y="259.190096" style="fill: #ffd700; stroke: #ffd700; stroke-linejoin: bevel"/>
     <use xlink:href="#m971b2a0769" x="126.302149" y="258.116105" style="fill: #ffd700; stroke: #ffd700; stroke-linejoin: bevel"/>
     <use xlink:href="#m971b2a0769" x="129.581488" y="244.135835" style="fill: #ffd700; stroke: #ffd700; stroke-linejoin: bevel"/>
     <use xlink:href="#m971b2a0769" x="132.860826" y="257.175186" style="fill: #ffd700; stroke: #ffd700; stroke-linejoin: bevel"/>
     <use xlink:href="#m971b2a0769" x="136.140165" y="261.752643" style="fill: #ffd700; stroke: #ffd700; stroke-linejoin: bevel"/>
     <use xlink:href="#m971b2a0769" x="139.419504" y="250.985223" style="fill: #ffd700; stroke: #ffd700; stroke-linejoin: bevel"/>
     <use xlink:href="#m971b2a0769" x="142.698843" y="266.825175" style="fill: #ffd700; stroke: #ffd700; stroke-linejoin: bevel"/>
     <use xlink:href="#m971b2a0769" x="145.978182" y="254.094975" style="fill: #ffd700; stroke: #ffd700; stroke-linejoin: bevel"/>
     <use xlink:href="#m971b2a0769" x="149.257521" y="236.365656" style="fill: #ffd700; stroke: #ffd700; stroke-linejoin: bevel"/>
     <use xlink:href="#m971b2a0769" x="152.53686" y="252.456838" style="fill: #ffd700; stroke: #ffd700; stroke-linejoin: bevel"/>
     <use xlink:href="#m971b2a0769" x="155.816198" y="266.057439" style="fill: #ffd700; stroke: #ffd700; stroke-linejoin: bevel"/>
     <use xlink:href="#m971b2a0769" x="159.095537" y="232.521763" style="fill: #ffd700; stroke: #ffd700; stroke-linejoin: bevel"/>
     <use xlink:href="#m971b2a0769" x="162.374876" y="273.932599" style="fill: #ffd700; stroke: #ffd700; stroke-linejoin: bevel"/>
     <use xlink:href="#m971b2a0769" x="165.654215" y="258.181845" style="fill: #ffd700; stroke: #ffd700; stroke-linejoin: bevel"/>
     <use xlink:href="#m971b2a0769" x="168.933554" y="270.453894" style="fill: #ffd700; stroke: #ffd700; stroke-linejoin: bevel"/>
     <use xlink:href="#m971b2a0769" x="172.212893" y="245.932384" style="fill: #ffd700; stroke: #ffd700; stroke-linejoin: bevel"/>
     <use xlink:href="#m971b2a0769" x="175.492231" y="251.352584" style="fill: #ffd700; stroke: #ffd700; stroke-linejoin: bevel"/>
     <use xlink:href="#m971b2a0769" x="178.77157" y="267.718888" style="fill: #ffd700; stroke: #ffd700; stroke-linejoin: bevel"/>
     <use xlink:href="#m971b2a0769" x="182.050909" y="257.767858" style="fill: #ffd700; stroke: #ffd700; stroke-linejoin: bevel"/>
     <use xlink:href="#m971b2a0769" x="185.330248" y="222.504993" style="fill: #ffd700; stroke: #ffd700; stroke-linejoin: bevel"/>
     <use xlink:href="#m971b2a0769" x="188.609587" y="263.183279" style="fill: #ffd700; stroke: #ffd700; stroke-linejoin: bevel"/>
     <use xlink:href="#m971b2a0769" x="191.888926" y="249.926147" style="fill: #ffd700; stroke: #ffd700; stroke-linejoin: bevel"/>
     <use xlink:href="#m971b2a0769" x="195.168264" y="258.495484" style="fill: #ffd700; stroke: #ffd700; stroke-linejoin: bevel"/>
     <use xlink:href="#m971b2a0769" x="198.447603" y="269.997915" style="fill: #ffd700; stroke: #ffd700; stroke-linejoin: bevel"/>
     <use xlink:href="#m971b2a0769" x="201.726942" y="281.963275" style="fill: #ffd700; stroke: #ffd700; stroke-linejoin: bevel"/>
     <use xlink:href="#m971b2a0769" x="205.006281" y="284.12342" style="fill: #ffd700; stroke: #ffd700; stroke-linejoin: bevel"/>
     <use xlink:href="#m971b2a0769" x="208.28562" y="260.150852" style="fill: #ffd700; stroke: #ffd700; stroke-linejoin: bevel"/>
     <use xlink:href="#m971b2a0769" x="211.564959" y="264.40989" style="fill: #ffd700; stroke: #ffd700; stroke-linejoin: bevel"/>
     <use xlink:href="#m971b2a0769" x="214.844298" y="242.555475" style="fill: #ffd700; stroke: #ffd700; stroke-linejoin: bevel"/>
     <use xlink:href="#m971b2a0769" x="218.123636" y="283.805436" style="fill: #ffd700; stroke: #ffd700; stroke-linejoin: bevel"/>
     <use xlink:href="#m971b2a0769" x="221.402975" y="261.921192" style="fill: #ffd700; stroke: #ffd700; stroke-linejoin: bevel"/>
     <use xlink:href="#m971b2a0769" x="224.682314" y="268.421898" style="fill: #ffd700; stroke: #ffd700; stroke-linejoin: bevel"/>
     <use xlink:href="#m971b2a0769" x="227.961653" y="269.808515" style="fill: #ffd700; stroke: #ffd700; stroke-linejoin: bevel"/>
     <use xlink:href="#m971b2a0769" x="231.240992" y="252.868508" style="fill: #ffd700; stroke: #ffd700; stroke-linejoin: bevel"/>
     <use xlink:href="#m971b2a0769" x="234.520331" y="259.345612" style="fill: #ffd700; stroke: #ffd700; stroke-linejoin: bevel"/>
     <use xlink:href="#m971b2a0769" x="237.799669" y="250.454672" style="fill: #ffd700; stroke: #ffd700; stroke-linejoin: bevel"/>
     <use xlink:href="#m971b2a0769" x="241.079008" y="256.312316" style="fill: #ffd700; stroke: #ffd700; stroke-linejoin: bevel"/>
     <use xlink:href="#m971b2a0769" x="244.358347" y="270.925367" style="fill: #ffd700; stroke: #ffd700; stroke-linejoin: bevel"/>
     <use xlink:href="#m971b2a0769" x="247.637686" y="238.190731" style="fill: #ffd700; stroke: #ffd700; stroke-linejoin: bevel"/>
     <use xlink:href="#m971b2a0769" x="250.917025" y="219.355566" style="fill: #ffd700; stroke: #ffd700; stroke-linejoin: bevel"/>
     <use xlink:href="#m971b2a0769" x="254.196364" y="239.351603" style="fill: #ffd700; stroke: #ffd700; stroke-linejoin: bevel"/>
     <use xlink:href="#m971b2a0769" x="257.475702" y="228.136457" style="fill: #ffd700; stroke: #ffd700; stroke-linejoin: bevel"/>
     <use xlink:href="#m971b2a0769" x="260.755041" y="266.191525" style="fill: #ffd700; stroke: #ffd700; stroke-linejoin: bevel"/>
     <use xlink:href="#m971b2a0769" x="264.03438" y="237.982073" style="fill: #ffd700; stroke: #ffd700; stroke-linejoin: bevel"/>
     <use xlink:href="#m971b2a0769" x="267.313719" y="267.826476" style="fill: #ffd700; stroke: #ffd700; stroke-linejoin: bevel"/>
     <use xlink:href="#m971b2a0769" x="270.593058" y="269.048888" style="fill: #ffd700; stroke: #ffd700; stroke-linejoin: bevel"/>
     <use xlink:href="#m971b2a0769" x="273.872397" y="252.097442" style="fill: #ffd700; stroke: #ffd700; stroke-linejoin: bevel"/>
     <use xlink:href="#m971b2a0769" x="277.151736" y="248.154359" style="fill: #ffd700; stroke: #ffd700; stroke-linejoin: bevel"/>
     <use xlink:href="#m971b2a0769" x="280.431074" y="232.611974" style="fill: #ffd700; stroke: #ffd700; stroke-linejoin: bevel"/>
     <use xlink:href="#m971b2a0769" x="283.710413" y="256.464068" style="fill: #ffd700; stroke: #ffd700; stroke-linejoin: bevel"/>
     <use xlink:href="#m971b2a0769" x="286.989752" y="256.652309" style="fill: #ffd700; stroke: #ffd700; stroke-linejoin: bevel"/>
     <use xlink:href="#m971b2a0769" x="290.269091" y="258.717609" style="fill: #ffd700; stroke: #ffd700; stroke-linejoin: bevel"/>
     <use xlink:href="#m971b2a0769" x="293.54843" y="246.878371" style="fill: #ffd700; stroke: #ffd700; stroke-linejoin: bevel"/>
     <use xlink:href="#m971b2a0769" x="296.827769" y="247.482771" style="fill: #ffd700; stroke: #ffd700; stroke-linejoin: bevel"/>
     <use xlink:href="#m971b2a0769" x="300.107107" y="268.633742" style="fill: #ffd700; stroke: #ffd700; stroke-linejoin: bevel"/>
     <use xlink:href="#m971b2a0769" x="303.386446" y="269.440285" style="fill: #ffd700; stroke: #ffd700; stroke-linejoin: bevel"/>
     <use xlink:href="#m971b2a0769" x="306.665785" y="261.330258" style="fill: #ffd700; stroke: #ffd700; stroke-linejoin: bevel"/>
     <use xlink:href="#m971b2a0769" x="309.945124" y="265.180523" style="fill: #ffd700; stroke: #ffd700; stroke-linejoin: bevel"/>
     <use xlink:href="#m971b2a0769" x="313.224463" y="284.530167" style="fill: #ffd700; stroke: #ffd700; stroke-linejoin: bevel"/>
     <use xlink:href="#m971b2a0769" x="316.503802" y="258.589605" style="fill: #ffd700; stroke: #ffd700; stroke-linejoin: bevel"/>
     <use xlink:href="#m971b2a0769" x="319.78314" y="280.386245" style="fill: #ffd700; stroke: #ffd700; stroke-linejoin: bevel"/>
     <use xlink:href="#m971b2a0769" x="323.062479" y="273.989071" style="fill: #ffd700; stroke: #ffd700; stroke-linejoin: bevel"/>
     <use xlink:href="#m971b2a0769" x="326.341818" y="279.330644" style="fill: #ffd700; stroke: #ffd700; stroke-linejoin: bevel"/>
     <use xlink:href="#m971b2a0769" x="329.621157" y="265.323007" style="fill: #ffd700; stroke: #ffd700; stroke-linejoin: bevel"/>
     <use xlink:href="#m971b2a0769" x="332.900496" y="256.886308" style="fill: #ffd700; stroke: #ffd700; stroke-linejoin: bevel"/>
     <use xlink:href="#m971b2a0769" x="336.179835" y="256.973913" style="fill: #ffd700; stroke: #ffd700; stroke-linejoin: bevel"/>
     <use xlink:href="#m971b2a0769" x="339.459174" y="277.745215" style="fill: #ffd700; stroke: #ffd700; stroke-linejoin: bevel"/>
     <use xlink:href="#m971b2a0769" x="342.738512" y="291.562149" style="fill: #ffd700; stroke: #ffd700; stroke-linejoin: bevel"/>
     <use xlink:href="#m971b2a0769" x="346.017851" y="273.766657" style="fill: #ffd700; stroke: #ffd700; stroke-linejoin: bevel"/>
     <use xlink:href="#m971b2a0769" x="349.29719" y="294.96353" style="fill: #ffd700; stroke: #ffd700; stroke-linejoin: bevel"/>
     <use xlink:href="#m971b2a0769" x="352.576529" y="278.886828" style="fill: #ffd700; stroke: #ffd700; stroke-linejoin: bevel"/>
     <use xlink:href="#m971b2a0769" x="355.855868" y="295.488" style="fill: #ffd700; stroke: #ffd700; stroke-linejoin: bevel"/>
     <use xlink:href="#m971b2a0769" x="359.135207" y="280.891601" style="fill: #ffd700; stroke: #ffd700; stroke-linejoin: bevel"/>
     <use xlink:href="#m971b2a0769" x="362.414545" y="264.259587" style="fill: #ffd700; stroke: #ffd700; stroke-linejoin: bevel"/>
     <use xlink:href="#m971b2a0769" x="365.693884" y="281.994118" style="fill: #ffd700; stroke: #ffd700; stroke-linejoin: bevel"/>
     <use xlink:href="#m971b2a0769" x="368.973223" y="252.347369" style="fill: #ffd700; stroke: #ffd700; stroke-linejoin: bevel"/>
     <use xlink:href="#m971b2a0769" x="372.252562" y="289.996558" style="fill: #ffd700; stroke: #ffd700; stroke-linejoin: bevel"/>
     <use xlink:href="#m971b2a0769" x="375.531901" y="239.231852" style="fill: #ffd700; stroke: #ffd700; stroke-linejoin: bevel"/>
     <use xlink:href="#m971b2a0769" x="378.81124" y="235.686539" style="fill: #ffd700; stroke: #ffd700; stroke-linejoin: bevel"/>
     <use xlink:href="#m971b2a0769" x="382.090579" y="253.975369" style="fill: #ffd700; stroke: #ffd700; stroke-linejoin: bevel"/>
     <use xlink:href="#m971b2a0769" x="385.369917" y="248.91109" style="fill: #ffd700; stroke: #ffd700; stroke-linejoin: bevel"/>
     <use xlink:href="#m971b2a0769" x="388.649256" y="235.122538" style="fill: #ffd700; stroke: #ffd700; stroke-linejoin: bevel"/>
     <use xlink:href="#m971b2a0769" x="391.928595" y="236.494529" style="fill: #ffd700; stroke: #ffd700; stroke-linejoin: bevel"/>
     <use xlink:href="#m971b2a0769" x="395.207934" y="264.997639" style="fill: #ffd700; stroke: #ffd700; stroke-linejoin: bevel"/>
     <use xlink:href="#m971b2a0769" x="398.487273" y="244.796419" style="fill: #ffd700; stroke: #ffd700; stroke-linejoin: bevel"/>
    </g>
   </g>
   <g id="line2d_31">
    <path d="M 57.6 132.278765 
L 414.72 132.278765 
" clip-path="url(#p5822468283)" style="fill: none; stroke-dasharray: 3.7,1.6; stroke-dashoffset: 0; stroke: #9400d3"/>
   </g>
   <g id="line2d_32">
    <path d="M 57.6 117.224468 
L 414.72 117.224468 
" clip-path="url(#p5822468283)" style="fill: none; stroke-dasharray: 3.7,1.6; stroke-dashoffset: 0; stroke: #9400d3"/>
   </g>
   <g id="line2d_33">
    <path d="M 57.6 101.816669 
L 414.72 101.816669 
" clip-path="url(#p5822468283)" style="fill: none; stroke-dasharray: 3.7,1.6; stroke-dashoffset: 0; stroke: #9400d3"/>
   </g>
   <g id="line2d_34">
    <path d="M 57.6 97.197024 
L 414.72 97.197024 
" clip-path="url(#p5822468283)" style="fill: none; stroke-dasharray: 3.7,1.6; stroke-dashoffset: 0; stroke: #9400d3"/>
   </g>
   <g id="line2d_35">
    <path d="M 57.6 55.667408 
L 414.72 55.667408 
" clip-path="url(#p5822468283)" style="fill: none; stroke-dasharray: 3.7,1.6; stroke-dashoffset: 0; stroke: #9400d3"/>
   </g>
   <g id="line2d_36">
    <path d="M 57.6 258.148975 
L 414.72 258.148975 
" clip-path="url(#p5822468283)" style="fill: none; stroke-dasharray: 3.7,1.6; stroke-dashoffset: 0; stroke: #ffa500"/>
   </g>
   <g id="line2d_37">
    <path d="M 57.6 246.641874 
L 414.72 246.641874 
" clip-path="url(#p5822468283)" style="fill: none; stroke-dasharray: 3.7,1.6; stroke-dashoffset: 0; stroke: #ffa500"/>
   </g>
   <g id="line2d_38">
    <path d="M 57.6 232.083232 
L 414.72 232.083232 
" clip-path="url(#p5822468283)" style="fill: none; stroke-dasharray: 3.7,1.6; stroke-dashoffset: 0; stroke: #ffa500"/>
   </g>
   <g id="line2d_39">
    <path d="M 57.6 222.338232 
L 414.72 222.338232 
" clip-path="url(#p5822468283)" style="fill: none; stroke-dasharray: 3.7,1.6; stroke-dashoffset: 0; stroke: #ffa500"/>
   </g>
   <g id="line2d_40">
    <path d="M 57.6 209.258218 
L 414.72 209.258218 
" clip-path="url(#p5822468283)" style="fill: none; stroke-dasharray: 3.7,1.6; stroke-dashoffset: 0; stroke: #ffa500"/>
   </g>
   <g id="patch_3">
    <path d="M 57.6 307.584 
L 57.6 41.472 
" style="fill: none; stroke: #000000; stroke-width: 0.8; stroke-linejoin: miter; stroke-linecap: square"/>
   </g>
   <g id="patch_4">
    <path d="M 414.72 307.584 
L 414.72 41.472 
" style="fill: none; stroke: #000000; stroke-width: 0.8; stroke-linejoin: miter; stroke-linecap: square"/>
   </g>
   <g id="patch_5">
    <path d="M 57.6 307.584 
L 414.72 307.584 
" style="fill: none; stroke: #000000; stroke-width: 0.8; stroke-linejoin: miter; stroke-linecap: square"/>
   </g>
   <g id="patch_6">
    <path d="M 57.6 41.472 
L 414.72 41.472 
" style="fill: none; stroke: #000000; stroke-width: 0.8; stroke-linejoin: miter; stroke-linecap: square"/>
   </g>
   <g id="text_18">
    <!-- 50% -->
    <g style="fill: #9400d3" transform="translate(398.487273 130.199077) scale(0.1 -0.1)">
     <defs>
      <path id="DejaVuSans-25" d="M 4653 2053 
Q 4381 2053 4226 1822 
Q 4072 1591 4072 1178 
Q 4072 772 4226 539 
Q 4381 306 4653 306 
Q 4919 306 5073 539 
Q 5228 772 5228 1178 
Q 5228 1588 5073 1820 
Q 4919 2053 4653 2053 
z
M 4653 2450 
Q 5147 2450 5437 2106 
Q 5728 1763 5728 1178 
Q 5728 594 5436 251 
Q 5144 -91 4653 -91 
Q 4153 -91 3862 251 
Q 3572 594 3572 1178 
Q 3572 1766 3864 2108 
Q 4156 2450 4653 2450 
z
M 1428 4353 
Q 1159 4353 1004 4120 
Q 850 3888 850 3481 
Q 850 3069 1003 2837 
Q 1156 2606 1428 2606 
Q 1700 2606 1854 2837 
Q 2009 3069 2009 3481 
Q 2009 3884 1853 4118 
Q 1697 4353 1428 4353 
z
M 4250 4750 
L 4750 4750 
L 1831 -91 
L 1331 -91 
L 4250 4750 
z
M 1428 4750 
Q 1922 4750 2215 4408 
Q 2509 4066 2509 3481 
Q 2509 2891 2217 2550 
Q 1925 2209 1428 2209 
Q 931 2209 642 2551 
Q 353 2894 353 3481 
Q 353 4063 643 4406 
Q 934 4750 1428 4750 
z
" transform="scale(0.015625)"/>
     </defs>
     <use xlink:href="#DejaVuSans-35"/>
     <use xlink:href="#DejaVuSans-30" x="63.623047"/>
     <use xlink:href="#DejaVuSans-25" x="127.246094"/>
    </g>
   </g>
   <g id="text_19">
    <!-- 75% -->
    <g style="fill: #9400d3" transform="translate(398.487273 115.144781) scale(0.1 -0.1)">
     <use xlink:href="#DejaVuSans-37"/>
     <use xlink:href="#DejaVuSans-35" x="63.623047"/>
     <use xlink:href="#DejaVuSans-25" x="127.246094"/>
    </g>
   </g>
   <g id="text_20">
    <!-- 90% -->
    <g style="fill: #9400d3" transform="translate(398.487273 99.736981) scale(0.1 -0.1)">
     <defs>
      <path id="DejaVuSans-39" d="M 703 97 
L 703 672 
Q 941 559 1184 500 
Q 1428 441 1663 441 
Q 2288 441 2617 861 
Q 2947 1281 2994 2138 
Q 2813 1869 2534 1725 
Q 2256 1581 1919 1581 
Q 1219 1581 811 2004 
Q 403 2428 403 3163 
Q 403 3881 828 4315 
Q 1253 4750 1959 4750 
Q 2769 4750 3195 4129 
Q 3622 3509 3622 2328 
Q 3622 1225 3098 567 
Q 2575 -91 1691 -91 
Q 1453 -91 1209 -44 
Q 966 3 703 97 
z
M 1959 2075 
Q 2384 2075 2632 2365 
Q 2881 2656 2881 3163 
Q 2881 3666 2632 3958 
Q 2384 4250 1959 4250 
Q 1534 4250 1286 3958 
Q 1038 3666 1038 3163 
Q 1038 2656 1286 2365 
Q 1534 2075 1959 2075 
z
" transform="scale(0.015625)"/>
     </defs>
     <use xlink:href="#DejaVuSans-39"/>
     <use xlink:href="#DejaVuSans-30" x="63.623047"/>
     <use xlink:href="#DejaVuSans-25" x="127.246094"/>
    </g>
   </g>
   <g id="text_21">
    <!-- 95% -->
    <g style="fill: #9400d3" transform="translate(398.487273 95.117337) scale(0.1 -0.1)">
     <use xlink:href="#DejaVuSans-39"/>
     <use xlink:href="#DejaVuSans-35" x="63.623047"/>
     <use xlink:href="#DejaVuSans-25" x="127.246094"/>
    </g>
   </g>
   <g id="text_22">
    <!-- 99% -->
    <g style="fill: #9400d3" transform="translate(398.487273 53.58772) scale(0.1 -0.1)">
     <use xlink:href="#DejaVuSans-39"/>
     <use xlink:href="#DejaVuSans-39" x="63.623047"/>
     <use xlink:href="#DejaVuSans-25" x="127.246094"/>
    </g>
   </g>
   <g id="text_23">
    <!-- 50% -->
    <g style="fill: #ffa500" transform="translate(398.487273 256.069287) scale(0.1 -0.1)">
     <use xlink:href="#DejaVuSans-35"/>
     <use xlink:href="#DejaVuSans-30" x="63.623047"/>
     <use xlink:href="#DejaVuSans-25" x="127.246094"/>
    </g>
   </g>
   <g id="text_24">
    <!-- 75% -->
    <g style="fill: #ffa500" transform="translate(398.487273 244.562187) scale(0.1 -0.1)">
     <use xlink:href="#DejaVuSans-37"/>
     <use xlink:href="#DejaVuSans-35" x="63.623047"/>
     <use xlink:href="#DejaVuSans-25" x="127.246094"/>
    </g>
   </g>
   <g id="text_25">
    <!-- 90% -->
    <g style="fill: #ffa500" transform="translate(398.487273 230.003545) scale(0.1 -0.1)">
     <use xlink:href="#DejaVuSans-39"/>
     <use xlink:href="#DejaVuSans-30" x="63.623047"/>
     <use xlink:href="#DejaVuSans-25" x="127.246094"/>
    </g>
   </g>
   <g id="text_26">
    <!-- 95% -->
    <g style="fill: #ffa500" transform="translate(398.487273 220.258545) scale(0.1 -0.1)">
     <use xlink:href="#DejaVuSans-39"/>
     <use xlink:href="#DejaVuSans-35" x="63.623047"/>
     <use xlink:href="#DejaVuSans-25" x="127.246094"/>
    </g>
   </g>
   <g id="text_27">
    <!-- 99% -->
    <g style="fill: #ffa500" transform="translate(398.487273 207.178531) scale(0.1 -0.1)">
     <use xlink:href="#DejaVuSans-39"/>
     <use xlink:href="#DejaVuSans-39" x="63.623047"/>
     <use xlink:href="#DejaVuSans-25" x="127.246094"/>
    </g>
   </g>
   <g id="text_28">
    <!-- График для NsPerOp -->
    <g transform="translate(171.249375 35.472) scale(0.12 -0.12)">
     <defs>
      <path id="DejaVuSans-413" d="M 628 0 
L 628 4666 
L 3531 4666 
L 3531 4134 
L 1259 4134 
L 1259 0 
L 628 0 
z
" transform="scale(0.015625)"/>
      <path id="DejaVuSans-444" d="M 947 1747 
Q 947 1013 1173 702 
Q 1400 391 1784 391 
Q 2091 391 2447 916 
L 2447 2578 
Q 2091 3103 1784 3103 
Q 1400 3103 1173 2792 
Q 947 2481 947 1747 
z
M 2447 -1331 
L 2447 447 
Q 2269 153 2064 31 
Q 1859 -91 1600 -91 
Q 1078 -91 714 392 
Q 350 875 350 1734 
Q 350 2594 714 3089 
Q 1078 3584 1600 3584 
Q 1859 3584 2064 3465 
Q 2269 3347 2447 3053 
L 2447 4666 
L 3025 4666 
L 3025 3053 
Q 3203 3347 3408 3465 
Q 3613 3584 3872 3584 
Q 4394 3584 4758 3089 
Q 5122 2594 5122 1734 
Q 5122 875 4758 392 
Q 4394 -91 3872 -91 
Q 3613 -91 3408 31 
Q 3203 153 3025 447 
L 3025 -1331 
L 2447 -1331 
z
M 4525 1747 
Q 4525 2481 4298 2792 
Q 4072 3103 3688 3103 
Q 3381 3103 3025 2578 
L 3025 916 
Q 3381 391 3688 391 
Q 4072 391 4298 702 
Q 4525 1013 4525 1747 
z
" transform="scale(0.015625)"/>
      <path id="DejaVuSans-434" d="M 1384 459 
L 3053 459 
L 3053 3041 
L 1844 3041 
L 1844 2603 
Q 1844 1316 1475 628 
L 1384 459 
z
M 550 459 
Q 834 584 959 850 
Q 1266 1509 1266 2838 
L 1266 3500 
L 3631 3500 
L 3631 459 
L 4091 459 
L 4091 -884 
L 3631 -884 
L 3631 0 
L 794 0 
L 794 -884 
L 334 -884 
L 334 459 
L 550 459 
z
" transform="scale(0.015625)"/>
      <path id="DejaVuSans-43b" d="M 238 0 
L 238 478 
Q 806 566 981 959 
Q 1194 1513 1194 2928 
L 1194 3500 
L 3559 3500 
L 3559 0 
L 2984 0 
L 2984 3041 
L 1769 3041 
L 1769 2694 
Q 1769 1344 1494 738 
Q 1200 91 238 0 
z
" transform="scale(0.015625)"/>
      <path id="DejaVuSans-44f" d="M 1181 2491 
Q 1181 2231 1381 2084 
Q 1581 1938 1953 1938 
L 2728 1938 
L 2728 3041 
L 1953 3041 
Q 1581 3041 1381 2897 
Q 1181 2753 1181 2491 
z
M 363 0 
L 1431 1534 
Q 1069 1616 828 1830 
Q 588 2044 588 2491 
Q 588 2997 923 3248 
Q 1259 3500 1938 3500 
L 3306 3500 
L 3306 0 
L 2728 0 
L 2728 1478 
L 2013 1478 
L 981 0 
L 363 0 
z
" transform="scale(0.015625)"/>
      <path id="DejaVuSans-4e" d="M 628 4666 
L 1478 4666 
L 3547 763 
L 3547 4666 
L 4159 4666 
L 4159 0 
L 3309 0 
L 1241 3903 
L 1241 0 
L 628 0 
L 628 4666 
z
" transform="scale(0.015625)"/>
      <path id="DejaVuSans-73" d="M 2834 3397 
L 2834 2853 
Q 2591 2978 2328 3040 
Q 2066 3103 1784 3103 
Q 1356 3103 1142 2972 
Q 928 2841 928 2578 
Q 928 2378 1081 2264 
Q 1234 2150 1697 2047 
L 1894 2003 
Q 2506 1872 2764 1633 
Q 3022 1394 3022 966 
Q 3022 478 2636 193 
Q 2250 -91 1575 -91 
Q 1294 -91 989 -36 
Q 684 19 347 128 
L 347 722 
Q 666 556 975 473 
Q 1284 391 1588 391 
Q 1994 391 2212 530 
Q 2431 669 2431 922 
Q 2431 1156 2273 1281 
Q 2116 1406 1581 1522 
L 1381 1569 
Q 847 1681 609 1914 
Q 372 2147 372 2553 
Q 372 3047 722 3315 
Q 1072 3584 1716 3584 
Q 2034 3584 2315 3537 
Q 2597 3491 2834 3397 
z
" transform="scale(0.015625)"/>
      <path id="DejaVuSans-50" d="M 1259 4147 
L 1259 2394 
L 2053 2394 
Q 2494 2394 2734 2622 
Q 2975 2850 2975 3272 
Q 2975 3691 2734 3919 
Q 2494 4147 2053 4147 
L 1259 4147 
z
M 628 4666 
L 2053 4666 
Q 2838 4666 3239 4311 
Q 3641 3956 3641 3272 
Q 3641 2581 3239 2228 
Q 2838 1875 2053 1875 
L 1259 1875 
L 1259 0 
L 628 0 
L 628 4666 
z
" transform="scale(0.015625)"/>
      <path id="DejaVuSans-72" d="M 2631 2963 
Q 2534 3019 2420 3045 
Q 2306 3072 2169 3072 
Q 1681 3072 1420 2755 
Q 1159 2438 1159 1844 
L 1159 0 
L 581 0 
L 581 3500 
L 1159 3500 
L 1159 2956 
Q 1341 3275 1631 3429 
Q 1922 3584 2338 3584 
Q 2397 3584 2469 3576 
Q 2541 3569 2628 3553 
L 2631 2963 
z
" transform="scale(0.015625)"/>
      <path id="DejaVuSans-4f" d="M 2522 4238 
Q 1834 4238 1429 3725 
Q 1025 3213 1025 2328 
Q 1025 1447 1429 934 
Q 1834 422 2522 422 
Q 3209 422 3611 934 
Q 4013 1447 4013 2328 
Q 4013 3213 3611 3725 
Q 3209 4238 2522 4238 
z
M 2522 4750 
Q 3503 4750 4090 4092 
Q 4678 3434 4678 2328 
Q 4678 1225 4090 567 
Q 3503 -91 2522 -91 
Q 1538 -91 948 565 
Q 359 1222 359 2328 
Q 359 3434 948 4092 
Q 1538 4750 2522 4750 
z
" transform="scale(0.015625)"/>
      <path id="DejaVuSans-70" d="M 1159 525 
L 1159 -1331 
L 581 -1331 
L 581 3500 
L 1159 3500 
L 1159 2969 
Q 1341 3281 1617 3432 
Q 1894 3584 2278 3584 
Q 2916 3584 3314 3078 
Q 3713 2572 3713 1747 
Q 3713 922 3314 415 
Q 2916 -91 2278 -91 
Q 1894 -91 1617 61 
Q 1341 213 1159 525 
z
M 3116 1747 
Q 3116 2381 2855 2742 
Q 2594 3103 2138 3103 
Q 1681 3103 1420 2742 
Q 1159 2381 1159 1747 
Q 1159 1113 1420 752 
Q 1681 391 2138 391 
Q 2594 391 2855 752 
Q 3116 1113 3116 1747 
z
" transform="scale(0.015625)"/>
     </defs>
     <use xlink:href="#DejaVuSans-413"/>
     <use xlink:href="#DejaVuSans-440" x="60.986328"/>
     <use xlink:href="#DejaVuSans-430" x="124.462891"/>
     <use xlink:href="#DejaVuSans-444" x="185.742188"/>
     <use xlink:href="#DejaVuSans-438" x="271.240234"/>
     <use xlink:href="#DejaVuSans-43a" x="336.230469"/>
     <use xlink:href="#DejaVuSans-20" x="396.630859"/>
     <use xlink:href="#DejaVuSans-434" x="428.417969"/>
     <use xlink:href="#DejaVuSans-43b" x="497.558594"/>
     <use xlink:href="#DejaVuSans-44f" x="561.474609"/>
     <use xlink:href="#DejaVuSans-20" x="621.630859"/>
     <use xlink:href="#DejaVuSans-4e" x="653.417969"/>
     <use xlink:href="#DejaVuSans-73" x="728.222656"/>
     <use xlink:href="#DejaVuSans-50" x="780.322266"/>
     <use xlink:href="#DejaVuSans-65" x="837"/>
     <use xlink:href="#DejaVuSans-72" x="898.523438"/>
     <use xlink:href="#DejaVuSans-4f" x="939.636719"/>
     <use xlink:href="#DejaVuSans-70" x="1018.347656"/>
    </g>
   </g>
   <g id="legend_1">
    <g id="patch_7">
     <path d="M 64.6 302.584 
L 122.74375 302.584 
Q 124.74375 302.584 124.74375 300.584 
L 124.74375 272.22775 
Q 124.74375 270.22775 122.74375 270.22775 
L 64.6 270.22775 
Q 62.6 270.22775 62.6 272.22775 
L 62.6 300.584 
Q 62.6 302.584 64.6 302.584 
z
" style="fill: #ffffff; opacity: 0.8; stroke: #cccccc; stroke-linejoin: miter"/>
    </g>
    <g id="line2d_41">
     <path d="M 66.6 278.326187 
L 76.6 278.326187 
L 86.6 278.326187 
" style="fill: none; stroke: #8b008b; stroke-width: 1.5; stroke-linecap: square"/>
     <g>
      <use xlink:href="#m1d6e7ef3c1" x="76.6" y="278.326187" style="fill: #8b008b; stroke: #8b008b; stroke-linejoin: miter"/>
     </g>
    </g>
    <g id="text_29">
     <!-- gorm -->
     <g transform="translate(94.6 281.826187) scale(0.1 -0.1)">
      <defs>
       <path id="DejaVuSans-67" d="M 2906 1791 
Q 2906 2416 2648 2759 
Q 2391 3103 1925 3103 
Q 1463 3103 1205 2759 
Q 947 2416 947 1791 
Q 947 1169 1205 825 
Q 1463 481 1925 481 
Q 2391 481 2648 825 
Q 2906 1169 2906 1791 
z
M 3481 434 
Q 3481 -459 3084 -895 
Q 2688 -1331 1869 -1331 
Q 1566 -1331 1297 -1286 
Q 1028 -1241 775 -1147 
L 775 -588 
Q 1028 -725 1275 -790 
Q 1522 -856 1778 -856 
Q 2344 -856 2625 -561 
Q 2906 -266 2906 331 
L 2906 616 
Q 2728 306 2450 153 
Q 2172 0 1784 0 
Q 1141 0 747 490 
Q 353 981 353 1791 
Q 353 2603 747 3093 
Q 1141 3584 1784 3584 
Q 2172 3584 2450 3431 
Q 2728 3278 2906 2969 
L 2906 3500 
L 3481 3500 
L 3481 434 
z
" transform="scale(0.015625)"/>
       <path id="DejaVuSans-6f" d="M 1959 3097 
Q 1497 3097 1228 2736 
Q 959 2375 959 1747 
Q 959 1119 1226 758 
Q 1494 397 1959 397 
Q 2419 397 2687 759 
Q 2956 1122 2956 1747 
Q 2956 2369 2687 2733 
Q 2419 3097 1959 3097 
z
M 1959 3584 
Q 2709 3584 3137 3096 
Q 3566 2609 3566 1747 
Q 3566 888 3137 398 
Q 2709 -91 1959 -91 
Q 1206 -91 779 398 
Q 353 888 353 1747 
Q 353 2609 779 3096 
Q 1206 3584 1959 3584 
z
" transform="scale(0.015625)"/>
       <path id="DejaVuSans-6d" d="M 3328 2828 
Q 3544 3216 3844 3400 
Q 4144 3584 4550 3584 
Q 5097 3584 5394 3201 
Q 5691 2819 5691 2113 
L 5691 0 
L 5113 0 
L 5113 2094 
Q 5113 2597 4934 2840 
Q 4756 3084 4391 3084 
Q 3944 3084 3684 2787 
Q 3425 2491 3425 1978 
L 3425 0 
L 2847 0 
L 2847 2094 
Q 2847 2600 2669 2842 
Q 2491 3084 2119 3084 
Q 1678 3084 1418 2786 
Q 1159 2488 1159 1978 
L 1159 0 
L 581 0 
L 581 3500 
L 1159 3500 
L 1159 2956 
Q 1356 3278 1631 3431 
Q 1906 3584 2284 3584 
Q 2666 3584 2933 3390 
Q 3200 3197 3328 2828 
z
" transform="scale(0.015625)"/>
      </defs>
      <use xlink:href="#DejaVuSans-67"/>
      <use xlink:href="#DejaVuSans-6f" x="63.476562"/>
      <use xlink:href="#DejaVuSans-72" x="124.658203"/>
      <use xlink:href="#DejaVuSans-6d" x="164.021484"/>
     </g>
    </g>
    <g id="line2d_42">
     <path d="M 66.6 293.004312 
L 76.6 293.004312 
L 86.6 293.004312 
" style="fill: none; stroke: #ffd700; stroke-width: 1.5; stroke-linecap: square"/>
     <g>
      <use xlink:href="#m971b2a0769" x="76.6" y="293.004312" style="fill: #ffd700; stroke: #ffd700; stroke-linejoin: bevel"/>
     </g>
    </g>
    <g id="text_30">
     <!-- sqlx -->
     <g transform="translate(94.6 296.504312) scale(0.1 -0.1)">
      <defs>
       <path id="DejaVuSans-71" d="M 947 1747 
Q 947 1113 1208 752 
Q 1469 391 1925 391 
Q 2381 391 2643 752 
Q 2906 1113 2906 1747 
Q 2906 2381 2643 2742 
Q 2381 3103 1925 3103 
Q 1469 3103 1208 2742 
Q 947 2381 947 1747 
z
M 2906 525 
Q 2725 213 2448 61 
Q 2172 -91 1784 -91 
Q 1150 -91 751 415 
Q 353 922 353 1747 
Q 353 2572 751 3078 
Q 1150 3584 1784 3584 
Q 2172 3584 2448 3432 
Q 2725 3281 2906 2969 
L 2906 3500 
L 3481 3500 
L 3481 -1331 
L 2906 -1331 
L 2906 525 
z
" transform="scale(0.015625)"/>
       <path id="DejaVuSans-6c" d="M 603 4863 
L 1178 4863 
L 1178 0 
L 603 0 
L 603 4863 
z
" transform="scale(0.015625)"/>
       <path id="DejaVuSans-78" d="M 3513 3500 
L 2247 1797 
L 3578 0 
L 2900 0 
L 1881 1375 
L 863 0 
L 184 0 
L 1544 1831 
L 300 3500 
L 978 3500 
L 1906 2253 
L 2834 3500 
L 3513 3500 
z
" transform="scale(0.015625)"/>
      </defs>
      <use xlink:href="#DejaVuSans-73"/>
      <use xlink:href="#DejaVuSans-71" x="52.099609"/>
      <use xlink:href="#DejaVuSans-6c" x="115.576172"/>
      <use xlink:href="#DejaVuSans-78" x="143.359375"/>
     </g>
    </g>
   </g>
  </g>
 </g>
 <defs>
  <clipPath id="p5822468283">
   <rect x="57.6" y="41.472" width="357.12" height="266.112"/>
  </clipPath>
 </defs>
</svg>
